{
.formatVersion = 3;
axes = (
{
name = Weight;
tag = wght;
},
{
name = Width;
tag = wdth;
}
);
classes = (
{
code = "bhaguru caguru chaguru daguru ddaguru ddhaguru haguru laguru lanuktaguru naguru nnaguru nyaguru phaguru phanuktaguru raguru taguru ttaguru tthaguru vaguru";
name = class1;
},
{
code = "bhanuktaguru chanuktaguru danuktaguru ddhanuktaguru hanuktaguru jhanuktaguru lanuktaguru nanuktaguru nganuktaguru nnanuktaguru nyanuktaguru ranuktaguru tanuktaguru ttanuktaguru tthanuktaguru vanuktaguru";
name = class2;
},
{
code = "aibindiguru aimatrabindiguru aubindiguru aumatrabindiguru bindiguru eebindiguru eematrabindiguru iibindiguru iimatrabindiguru oobindiguru oomatrabindiguru tippiguru ubindiguru ubindinuktaguru uubindiguru uubindinuktaguru";
name = class3;
},
{

glyphs = (
{
glyphname = .notdef;
layers = (
{
background = {
shapes = (
{
closed = 1;
nodes = (
(505,0,l),
(505,714,l),
(94,714,l),
(94,0,l)
);
},
{
closed = 1;
nodes = (
(145,663,l),
(454,663,l),
(454,51,l),
(145,51,l)
);
}
);
};
layerId = "4FA569E6-2225-4E7A-8719-2BB8460AE18A";
shapes = (
{
closed = 1;
nodes = (
(505,0,l),
(505,714,l),
(94,714,l),
(94,0,l)
);
},
{
closed = 1;
nodes = (
(145,663,l),
(454,663,l),
(454,51,l),
(145,51,l)
);
}
);
width = 600;
}
);
},
{
glyphname = adakbindiguru;
layers = (
{
anchors = (
{
name = _Anchor2;
position = "{-70, 622}";
}
);
background = {
shapes = (
{
closed = 1;
nodes = (
(-16,648,o),
(64,724,o),
(82,858,c),
(-55,877,l),
(-66,788,o),
(-96,755,o),
(-157,755,cs),
(-216,755,o),
(-247,788,o),
(-259,877,c),
(-396,858,l),
(-378,723,o),
(-297,648,o),
(-157,648,cs)
);
},
{
closed = 1;
nodes = (
(-114,777,o),
(-89,802,o),
(-89,837,cs),
(-89,872,o),
(-114,896,o),
(-157,896,cs),
(-199,896,o),
(-225,872,o),
(-225,837,cs),
(-225,802,o),
(-202,777,o),
(-157,777,cs)
);
}
);
};
layerId = "4FA569E6-2225-4E7A-8719-2BB8460AE18A";
shapes = (
{
closed = 1;
nodes = (
(-16,648,o),
(64,724,o),
(82,858,c),
(-55,877,l),
(-66,788,o),
(-96,755,o),
(-157,755,cs),
(-216,755,o),
(-247,788,o),
(-259,877,c),
(-396,858,l),
(-378,723,o),
(-297,648,o),
(-157,648,cs)
);
},
{
closed = 1;
nodes = (
(-114,777,o),
(-89,802,o),
(-89,837,cs),
(-89,872,o),
(-114,896,o),
(-157,896,cs),
(-199,896,o),
(-225,872,o),
(-225,837,cs),
(-225,802,o),
(-202,777,o),
(-157,777,cs)
);
}
);
width = 0;
}
);
unicode = 2561;
},
{
glyphname = bindiguru;
layers = (
{
anchors = (
{
name = _Anchor2;
position = "{-70, 622}";
}
);
background = {
shapes = (
{
closed = 1;
nodes = (
(-102,695,o),
(-70,726,o),
(-70,776,cs),
(-70,824,o),
(-102,857,o),
(-158,857,cs),
(-215,857,o),
(-247,824,o),
(-247,776,cs),
(-247,726,o),
(-215,695,o),
(-158,695,cs)
);
}
);
};
layerId = "4FA569E6-2225-4E7A-8719-2BB8460AE18A";
shapes = (
{
closed = 1;
nodes = (
(-102,695,o),
(-70,726,o),
(-70,776,cs),
(-70,824,o),
(-102,857,o),
(-158,857,cs),
(-215,857,o),
(-247,824,o),
(-247,776,cs),
(-247,726,o),
(-215,695,o),
(-158,695,cs)
);
}
);
width = 0;
}
);
unicode = 2562;
},
{
glyphname = visargaguru;
layers = (
{
background = {
shapes = (
{
closed = 1;
nodes = (
(341,328,o),
(408,381,o),
(408,475,cs),
(408,566,o),
(341,622,o),
(228,622,cs),
(114,622,o),
(47,564,o),
(47,475,cs),
(47,383,o),
(114,328,o),
(228,328,cs)
);
},
{
closed = 1;
nodes = (
(203,434,o),
(186,449,o),
(186,475,cs),
(186,501,o),
(201,516,o),
(228,516,cs),
(254,516,o),
(269,501,o),
(269,475,cs),
(269,450,o),
(254,434,o),
(228,434,cs)
);
},
{
closed = 1;
nodes = (
(341,0,o),
(408,53,o),
(408,147,cs),
(408,238,o),
(341,294,o),
(228,294,cs),
(114,294,o),
(47,236,o),
(47,147,cs),
(47,55,o),
(114,0,o),
(228,0,cs)
);
},
{
closed = 1;
nodes = (
(203,106,o),
(186,121,o),
(186,147,cs),
(186,173,o),
(201,188,o),
(228,188,cs),
(254,188,o),
(269,173,o),
(269,147,cs),
(269,122,o),
(254,106,o),
(228,106,cs)
);
}
);
};
layerId = "4FA569E6-2225-4E7A-8719-2BB8460AE18A";
shapes = (
{
closed = 1;
nodes = (
(341,328,o),
(408,381,o),
(408,475,cs),
(408,566,o),
(341,622,o),
(228,622,cs),
(114,622,o),
(47,564,o),
(47,475,cs),
(47,383,o),
(114,328,o),
(228,328,cs)
);
},
{
closed = 1;
nodes = (
(203,434,o),
(186,449,o),
(186,475,cs),
(186,501,o),
(201,516,o),
(228,516,cs),
(254,516,o),
(269,501,o),
(269,475,cs),
(269,450,o),
(254,434,o),
(228,434,cs)
);
},
{
closed = 1;
nodes = (
(341,0,o),
(408,53,o),
(408,147,cs),
(408,238,o),
(341,294,o),
(228,294,cs),
(114,294,o),
(47,236,o),
(47,147,cs),
(47,55,o),
(114,0,o),
(228,0,cs)
);
},
{
closed = 1;
nodes = (
(203,106,o),
(186,121,o),
(186,147,cs),
(186,173,o),
(201,188,o),
(228,188,cs),
(254,188,o),
(269,173,o),
(269,147,cs),
(269,122,o),
(254,106,o),
(228,106,cs)
);
}
);
width = 455;
}
);
unicode = 2563;
},
{
glyphname = aguru;
layers = (
{
anchors = (
{
name = Anchor4;
position = "{352, 0}";
}
);
background = {
shapes = (
{
closed = 1;
nodes = (
(803,0,l),
(803,484,l),
(880,484,l),
(880,622,l),
(626,622,l),
(626,428,l),
(645,449,l),
(561,432,o),
(482,379,o),
(439,340,c),
(550,342,l),
(550,430,o),
(514,536,o),
(491,577,c),
(369,560,o),
(249,499,o),
(185,437,c),
(276,434,l),
(276,491,o),
(253,586,o),
(237,622,c),
(-7,622,l),
(-7,484,l),
(133,484,l),
(70,547,l),
(88,515,o),
(105,462,o),
(107,411,c),
(59,365,o),
(42,322,o),
(42,273,cs),
(42,223,o),
(70,177,o),
(140,177,cs),
(215,177,o),
(281,222,o),
(281,390,c),
(216,300,l),
(279,355,o),
(353,393,o),
(417,409,c),
(342,466,l),
(366,422,o),
(380,363,o),
(381,317,c),
(333,271,o),
(316,232,o),
(316,180,cs),
(316,130,o),
(344,84,o),
(414,84,cs),
(489,84,o),
(555,129,o),
(555,297,c),
(506,222,l),
(547,259,o),
(604,287,o),
(647,298,c),
(626,374,l),
(626,0,l)
);
}
);
};
layerId = "4FA569E6-2225-4E7A-8719-2BB8460AE18A";
shapes = (
{
closed = 1;
nodes = (
(803,0,l),
(803,484,l),
(880,484,l),
(880,622,l),
(626,622,l),
(626,428,l),
(645,449,l),
(561,432,o),
(482,379,o),
(439,340,c),
(550,342,l),
(550,430,o),
(514,536,o),
(491,577,c),
(369,560,o),
(249,499,o),
(185,437,c),
(276,434,l),
(276,491,o),
(253,586,o),
(237,622,c),
(-7,622,l),
(-7,484,l),
(133,484,l),
(70,547,l),
(88,515,o),
(105,462,o),
(107,411,c),
(59,365,o),
(42,322,o),
(42,273,cs),
(42,223,o),
(70,177,o),
(140,177,cs),
(215,177,o),
(281,222,o),
(281,390,c),
(216,300,l),
(279,355,o),
(353,393,o),
(417,409,c),
(342,466,l),
(366,422,o),
(380,363,o),
(381,317,c),
(333,271,o),
(316,232,o),
(316,180,cs),
(316,130,o),
(344,84,o),
(414,84,cs),
(489,84,o),
(555,129,o),
(555,297,c),
(506,222,l),
(547,259,o),
(604,287,o),
(647,298,c),
(626,374,l),
(626,0,l)
);
}
);
width = 873;
}
);
unicode = 2565;
},
{
glyphname = aaguru;
layers = (
{
anchors = (
{
name = Anchor2;
position = "{1101, 622}";
},
{
name = Anchor4;
position = "{350, 0}";
}
);
background = {
shapes = (
{
closed = 1;
nodes = (
(1101,242,l),
(1101,484,l),
(1166,484,l),
(1166,622,l),
(864,622,l),
(864,484,l),
(924,484,l),
(924,242,l)
);
},
{
alignment = -1;
ref = aguru;
}
);
};
layerId = "4FA569E6-2225-4E7A-8719-2BB8460AE18A";
shapes = (
{
closed = 1;
nodes = (
(1101,242,l),
(1101,484,l),
(1166,484,l),
(1166,622,l),
(864,622,l),
(864,484,l),
(924,484,l),
(924,242,l)
);
},
{
alignment = -1;
ref = aguru;
}
);
width = 1159;
}
);
unicode = 2566;
},
{
glyphname = ooguru;
layers = (
{
anchors = (
{
name = Anchor4;
position = "{359, 0}";
}
);
background = {
shapes = (
{
closed = 1;
nodes = (
(564,0,o),
(644,62,o),
(644,170,cs),
(644,245,o),
(591,317,o),
(459,338,c),
(473,277,l),
(634,317,o),
(710,392,o),
(710,550,cs),
(710,574,l),
(533,566,l),
(533,540,ls),
(533,470,o),
(514,427,o),
(472,403,cs),
(440,385,o),
(406,378,o),
(320,378,cs),
(151,378,l),
(161,242,l),
(331,242,ls),
(395,242,o),
(421,238,o),
(438,230,cs),
(456,222,o),
(465,208,o),
(465,189,cs),
(465,161,o),
(443,138,o),
(377,138,cs),
(268,138,o),
(216,211,o),
(216,412,cs),
(216,540,o),
(225,618,o),
(273,663,cs),
(310,698,o),
(358,715,o),
(504,715,cs),
(645,715,l),
(654,854,l),
(512,854,ls),
(327,854,o),
(252,832,o),
(184,786,cs),
(88,721,o),
(39,622,o),
(39,421,cs),
(39,134,o),
(163,0,o),
(391,0,cs)
);
},
{
closed = 1;
nodes = (
(764,484,l),
(764,622,l),
(-7,622,l),
(-7,484,l)
);
}
);
};
layerId = "4FA569E6-2225-4E7A-8719-2BB8460AE18A";
shapes = (
{
closed = 1;
nodes = (
(564,0,o),
(644,62,o),
(644,170,cs),
(644,245,o),
(591,317,o),
(459,338,c),
(473,277,l),
(634,317,o),
(710,392,o),
(710,550,c),
(710,574,l),
(533,566,l),
(533,540,l),
(533,470,o),
(514,427,o),
(472,403,cs),
(440,385,o),
(406,378,o),
(320,378,cs),
(151,378,l),
(161,242,l),
(331,242,ls),
(395,242,o),
(421,238,o),
(438,230,cs),
(456,222,o),
(465,208,o),
(465,189,cs),
(465,161,o),
(443,138,o),
(377,138,cs),
(268,138,o),
(216,211,o),
(216,412,cs),
(216,540,o),
(225,618,o),
(273,663,cs),
(310,698,o),
(358,715,o),
(504,715,cs),
(645,715,l),
(654,854,l),
(512,854,ls),
(327,854,o),
(252,832,o),
(184,786,cs),
(88,721,o),
(39,622,o),
(39,421,cs),
(39,134,o),
(163,0,o),
(391,0,cs)
);
},
{
closed = 1;
nodes = (
(764,484,l),
(764,622,l),
(-7,622,l),
(-7,484,l)
);
}
);
width = 723;
}
);
unicode = 2579;
},
{
glyphname = kaguru;
layers = (
{
anchors = (
{
name = Anchor2;
position = "{603, 622}";
},
{
name = Anchor6;
position = "{478, 0}";
}
);
background = {
shapes = (
{
closed = 1;
nodes = (
(655,0,l),
(646,132,o),
(611,235,o),
(532,320,c),
(491,341,l),
(428,405,o),
(360,434,o),
(253,434,cs),
(110,434,o),
(23,365,o),
(23,242,cs),
(23,121,o),
(116,49,o),
(260,49,cs),
(374,49,o),
(462,95,o),
(526,181,c),
(551,203,l),
(599,266,o),
(623,337,o),
(623,432,cs),
(623,449,o),
(622,467,o),
(620,484,c),
(696,484,l),
(696,622,l),
(-7,622,l),
(-7,484,l),
(445,484,l),
(448,470,o),
(450,452,o),
(450,435,cs),
(450,407,o),
(447,369,o),
(439,339,c),
(413,278,l),
(386,227,o),
(342,188,o),
(277,188,cs),
(217,188,o),
(200,216,o),
(200,243,cs),
(200,280,o),
(233,296,o),
(277,296,cs),
(343,296,o),
(389,259,o),
(422,210,c),
(441,172,l),
(461,124,o),
(476,62,o),
(478,0,c)
);
}
);
};
guides = (
{
position = "{0, 252}";
}
);
layerId = "4FA569E6-2225-4E7A-8719-2BB8460AE18A";
shapes = (
{
closed = 1;
nodes = (
(655,0,l),
(646,132,o),
(611,235,o),
(532,320,c),
(491,341,l),
(428,405,o),
(360,434,o),
(253,434,cs),
(110,434,o),
(23,365,o),
(23,242,cs),
(23,121,o),
(116,49,o),
(260,49,cs),
(374,49,o),
(462,95,o),
(526,181,c),
(551,203,l),
(599,266,o),
(623,337,o),
(623,432,cs),
(623,449,o),
(622,467,o),
(620,484,c),
(696,484,l),
(696,622,l),
(-7,622,l),
(-7,484,l),
(445,484,l),
(448,470,o),
(450,452,o),
(450,435,cs),
(450,407,o),
(447,369,o),
(439,339,c),
(413,278,l),
(386,227,o),
(342,188,o),
(277,188,cs),
(217,188,o),
(200,216,o),
(200,243,cs),
(200,280,o),
(233,296,o),
(277,296,cs),
(343,296,o),
(389,259,o),
(422,210,c),
(441,172,l),
(461,124,o),
(476,62,o),
(478,0,c)
);
}
);
width = 689;
}
);
unicode = 2581;
},
{
glyphname = khaguru;
layers = (
{
background = {
shapes = (
{
closed = 1;
nodes = (
(606,0,l),
(606,484,l),
(683,484,l),
(683,622,l),
(429,622,l),
(429,252,l),
(455,288,l),
(424,265,o),
(381,248,o),
(328,248,cs),
(274,248,o),
(237,278,o),
(214,334,c),
(182,278,l),
(244,325,o),
(269,381,o),
(269,445,cs),
(269,504,o),
(249,562,o),
(220,622,c),
(-7,622,l),
(-7,484,l),
(81,484,l),
(89,467,o),
(92,450,o),
(92,434,cs),
(92,387,o),
(66,359,o),
(25,330,c),
(92,171,o),
(185,109,o),
(322,109,cs),
(379,109,o),
(417,116,o),
(457,135,c),
(429,145,l),
(429,0,l)
);
},
{
closed = 1;
nodes = (
(500,368,l),
(500,492,l),
(150,492,l),
(174,368,l)
);
}
);
};
layerId = "4FA569E6-2225-4E7A-8719-2BB8460AE18A";
shapes = (
{
closed = 1;
nodes = (
(606,0,l),
(606,484,l),
(683,484,l),
(683,622,l),
(429,622,l),
(429,252,l),
(455,288,l),
(424,265,o),
(381,248,o),
(328,248,cs),
(274,248,o),
(237,278,o),
(214,334,c),
(182,278,l),
(244,325,o),
(269,381,o),
(269,445,cs),
(269,504,o),
(249,562,o),
(220,622,c),
(-7,622,l),
(-7,484,l),
(81,484,l),
(89,467,o),
(92,450,o),
(92,434,cs),
(92,387,o),
(66,359,o),
(25,330,c),
(92,171,o),
(185,109,o),
(322,109,cs),
(379,109,o),
(417,116,o),
(457,135,c),
(429,145,l),
(429,0,l)
);
},
{
closed = 1;
nodes = (
(500,368,l),
(500,492,l),
(150,492,l),
(174,368,l)
);
}
);
width = 676;
}
);
unicode = 2582;
},
{
glyphname = gaguru;
layers = (
{
background = {
shapes = (
{
closed = 1;
nodes = (
(457,0,o),
(528,51,o),
(528,187,cs),
(528,484,l),
(598,484,l),
(598,622,l),
(-7,622,l),
(-7,484,l),
(354,484,l),
(354,425,l),
(273,425,ls),
(172,425,o),
(113,410,o),
(72,374,cs),
(43,348,o),
(25,313,o),
(25,265,cs),
(25,112,o),
(163,0,o),
(323,0,cs)
);
},
{
closed = 1;
nodes = (
(260,139,o),
(203,202,o),
(203,248,cs),
(203,259,o),
(207,269,o),
(214,275,cs),
(224,284,o),
(236,287,o),
(266,287,cs),
(351,287,l),
(351,191,ls),
(351,168,o),
(348,155,o),
(340,147,cs),
(334,142,o),
(328,139,o),
(315,139,cs)
);
},
{
closed = 1;
nodes = (
(817,0,l),
(817,484,l),
(894,484,l),
(894,622,l),
(572,622,l),
(572,484,l),
(640,484,l),
(640,0,l)
);
}
);
};
layerId = "4FA569E6-2225-4E7A-8719-2BB8460AE18A";
shapes = (
{
closed = 1;
nodes = (
(457,0,o),
(528,51,o),
(528,187,cs),
(528,484,l),
(598,484,l),
(598,622,l),
(-7,622,l),
(-7,484,l),
(354,484,l),
(354,425,l),
(273,425,ls),
(172,425,o),
(113,410,o),
(72,374,cs),
(43,348,o),
(25,313,o),
(25,265,cs),
(25,112,o),
(163,0,o),
(323,0,cs)
);
},
{
closed = 1;
nodes = (
(260,139,o),
(203,202,o),
(203,248,cs),
(203,259,o),
(207,269,o),
(214,275,cs),
(224,284,o),
(236,287,o),
(266,287,cs),
(351,287,l),
(351,191,ls),
(351,168,o),
(348,155,o),
(340,147,cs),
(334,142,o),
(328,139,o),
(315,139,cs)
);
},
{
closed = 1;
nodes = (
(817,0,l),
(817,484,l),
(894,484,l),
(894,622,l),
(572,622,l),
(572,484,l),
(640,484,l),
(640,0,l)
);
}
);
width = 887;
}
);
unicode = 2583;
},
{
glyphname = ghaguru;
layers = (
{
background = {
shapes = (
{
closed = 1;
nodes = (
(420,115,o),
(472,195,o),
(501,308,c),
(381,327,l),
(388,212,o),
(428,115,o),
(561,115,cs),
(605,115,o),
(642,127,o),
(668,146,c),
(641,287,l),
(626,261,o),
(604,253,o),
(579,253,cs),
(548,253,o),
(528,273,o),
(516,311,c),
(530,366,o),
(539,428,o),
(539,486,cs),
(539,565,o),
(506,611,o),
(439,611,cs),
(373,611,o),
(339,562,o),
(339,485,cs),
(339,434,o),
(347,371,o),
(363,313,c),
(349,275,o),
(329,254,o),
(292,254,cs),
(252,254,o),
(228,285,o),
(212,336,c),
(186,278,l),
(248,325,o),
(273,382,o),
(273,445,cs),
(273,505,o),
(253,562,o),
(224,622,c),
(-7,622,l),
(-7,484,l),
(107,484,l),
(68,515,l),
(87,489,o),
(96,459,o),
(96,434,cs),
(96,387,o),
(70,359,o),
(29,330,c),
(71,189,o),
(154,115,o),
(277,115,cs)
);
},
{
closed = 1;
nodes = (
(793,0,l),
(793,484,l),
(870,484,l),
(870,622,l),
(616,622,l),
(616,0,l)
);
}
);
};
layerId = "4FA569E6-2225-4E7A-8719-2BB8460AE18A";
shapes = (
{
closed = 1;
nodes = (
(420,115,o),
(472,195,o),
(501,308,c),
(381,327,l),
(388,212,o),
(428,115,o),
(561,115,cs),
(605,115,o),
(642,127,o),
(668,146,c),
(641,287,l),
(626,261,o),
(604,253,o),
(579,253,cs),
(548,253,o),
(528,273,o),
(516,311,c),
(530,366,o),
(539,428,o),
(539,486,cs),
(539,565,o),
(506,611,o),
(439,611,cs),
(373,611,o),
(339,562,o),
(339,485,cs),
(339,434,o),
(347,371,o),
(363,313,c),
(349,275,o),
(329,254,o),
(292,254,cs),
(252,254,o),
(228,285,o),
(212,336,c),
(186,278,l),
(248,325,o),
(273,382,o),
(273,445,cs),
(273,505,o),
(253,562,o),
(224,622,c),
(-7,622,l),
(-7,484,l),
(107,484,l),
(68,515,l),
(87,489,o),
(96,459,o),
(96,434,cs),
(96,387,o),
(70,359,o),
(29,330,c),
(71,189,o),
(154,115,o),
(277,115,cs)
);
},
{
closed = 1;
nodes = (
(793,0,l),
(793,484,l),
(870,484,l),
(870,622,l),
(616,622,l),
(616,0,l)
);
}
);
width = 863;
}
);
unicode = 2584;
},
{
glyphname = ngaguru;
layers = (
{
anchors = (
{
name = Anchor6;
position = "{419, 0}";
}
);
background = {
shapes = (
{
closed = 1;
nodes = (
(574,21,l),
(547,70,o),
(519,115,o),
(487,152,cs),
(404,247,o),
(333,288,o),
(207,288,cs),
(80,288,o),
(27,237,o),
(27,162,cs),
(27,46,o),
(155,18,o),
(272,18,cs),
(477,18,o),
(633,117,o),
(633,278,cs),
(633,327,o),
(614,365,o),
(580,392,cs),
(542,422,o),
(495,437,o),
(396,437,cs),
(250,437,l),
(250,484,l),
(665,484,l),
(665,622,l),
(-7,622,l),
(-7,484,l),
(76,484,l),
(76,349,l),
(121,304,l),
(383,304,ls),
(415,304,o),
(430,301,o),
(443,291,cs),
(452,284,o),
(457,273,o),
(457,258,cs),
(457,220,o),
(439,194,o),
(407,172,cs),
(372,149,o),
(320,137,o),
(267,137,cs),
(218,137,o),
(202,145,o),
(202,159,cs),
(202,173,o),
(215,178,o),
(236,178,cs),
(295,178,o),
(366,128,o),
(427,-19,c)
);
}
);
};
layerId = "4FA569E6-2225-4E7A-8719-2BB8460AE18A";
shapes = (
{
closed = 1;
nodes = (
(574,21,l),
(547,70,o),
(519,115,o),
(487,152,c),
(404,247,o),
(333,288,o),
(207,288,cs),
(80,288,o),
(27,237,o),
(27,162,cs),
(27,46,o),
(155,18,o),
(272,18,cs),
(477,18,o),
(633,117,o),
(633,278,cs),
(633,327,o),
(614,365,o),
(580,392,cs),
(542,422,o),
(495,437,o),
(396,437,cs),
(250,437,l),
(250,484,l),
(665,484,l),
(665,622,l),
(-7,622,l),
(-7,484,l),
(76,484,l),
(76,349,l),
(121,304,l),
(383,304,ls),
(415,304,o),
(430,301,o),
(443,291,cs),
(452,284,o),
(457,273,o),
(457,258,cs),
(457,220,o),
(439,194,o),
(407,172,c),
(372,149,o),
(320,137,o),
(267,137,cs),
(218,137,o),
(202,145,o),
(202,159,cs),
(202,173,o),
(215,178,o),
(236,178,cs),
(295,178,o),
(366,128,o),
(427,-19,c)
);
}
);
width = 658;
}
);
unicode = 2585;
},
{
glyphname = caguru;
layers = (
{
anchors = (
{
name = Anchor6;
position = "{411, 0}";
}
);
background = {
shapes = (
{
closed = 1;
nodes = (
(568,0,o),
(639,52,o),
(639,193,cs),
(639,523,l),
(462,523,l),
(462,203,ls),
(462,172,o),
(459,159,o),
(451,151,cs),
(442,142,o),
(429,139,o),
(404,139,cs),
(350,139,o),
(276,176,o),
(256,262,c),
(205,244,l),
(509,244,l),
(489,382,l),
(259,382,l),
(259,384,ls),
(259,423,o),
(237,453,o),
(180,453,cs),
(100,453,o),
(13,369,o),
(13,305,cs),
(13,262,o),
(40,242,o),
(80,242,cs),
(123,242,l),
(73,278,l),
(92,192,o),
(122,135,o),
(172,89,cs),
(235,30,o),
(322,0,o),
(411,0,cs)
);
},
{
closed = 1;
nodes = (
(716,484,l),
(716,622,l),
(-7,622,l),
(-7,484,l)
);
}
);
};
layerId = "4FA569E6-2225-4E7A-8719-2BB8460AE18A";
shapes = (
{
closed = 1;
nodes = (
(568,0,o),
(639,52,o),
(639,193,cs),
(639,523,l),
(462,523,l),
(462,203,ls),
(462,172,o),
(459,159,o),
(451,151,cs),
(442,142,o),
(429,139,o),
(404,139,cs),
(350,139,o),
(276,176,o),
(256,262,c),
(205,244,l),
(509,244,l),
(489,382,l),
(259,382,l),
(259,384,ls),
(259,423,o),
(237,453,o),
(180,453,cs),
(100,453,o),
(13,369,o),
(13,305,cs),
(13,262,o),
(40,242,o),
(80,242,cs),
(123,242,l),
(73,278,l),
(92,192,o),
(122,135,o),
(172,89,cs),
(235,30,o),
(322,0,o),
(411,0,cs)
);
},
{
closed = 1;
nodes = (
(716,484,l),
(716,622,l),
(-7,622,l),
(-7,484,l)
);
}
);
width = 709;
}
);
unicode = 2586;
},
{
glyphname = chaguru;
layers = (
{
anchors = (
{
name = Anchor2;
position = "{625, 622}";
},
{
name = Anchor4;
position = "{354, 0}";
},
{
name = Anchor6;
position = "{436, 0}";
}
);
background = {
shapes = (
{
closed = 1;
nodes = (
(575,0,o),
(686,28,o),
(686,149,cs),
(686,250,o),
(594,287,o),
(463,287,cs),
(271,287,ls),
(237,287,o),
(219,292,o),
(219,308,cs),
(219,314,o),
(221,319,o),
(226,322,cs),
(230,325,o),
(237,327,o),
(258,327,cs),
(575,327,l),
(625,367,l),
(625,484,l),
(715,484,l),
(715,622,l),
(-7,622,l),
(-7,484,l),
(453,484,l),
(453,446,l),
(258,446,ls),
(181,446,o),
(142,439,o),
(106,421,cs),
(66,401,o),
(39,370,o),
(39,313,cs),
(39,248,o),
(89,213,o),
(168,190,c),
(167,175,l),
(438,175,ls),
(489,175,o),
(506,165,o),
(506,145,cs),
(506,122,o),
(490,112,o),
(412,112,cs),
(294,112,ls),
(226,112,o),
(212,123,o),
(212,146,cs),
(212,165,o),
(231,175,o),
(276,175,c),
(152,253,l),
(76,230,o),
(35,191,o),
(35,141,cs),
(35,38,o),
(135,0,o),
(343,0,cs)
);
},
{
closed = 1;
nodes = (
(428,233,l),
(288,233,l),
(288,71,l),
(428,70,l)
);
}
);
};
layerId = "4FA569E6-2225-4E7A-8719-2BB8460AE18A";
shapes = (
{
closed = 1;
nodes = (
(575,0,o),
(686,28,o),
(686,149,cs),
(686,250,o),
(594,287,o),
(463,287,cs),
(271,287,ls),
(237,287,o),
(219,292,o),
(219,308,cs),
(219,314,o),
(221,319,o),
(226,322,cs),
(230,325,o),
(237,327,o),
(258,327,cs),
(575,327,l),
(625,367,l),
(625,484,l),
(715,484,l),
(715,622,l),
(-7,622,l),
(-7,484,l),
(453,484,l),
(453,446,l),
(258,446,ls),
(181,446,o),
(142,439,o),
(106,421,cs),
(66,401,o),
(39,370,o),
(39,313,cs),
(39,248,o),
(89,213,o),
(168,190,c),
(167,175,l),
(438,175,ls),
(489,175,o),
(506,165,o),
(506,145,cs),
(506,122,o),
(490,112,o),
(412,112,cs),
(294,112,ls),
(226,112,o),
(212,123,o),
(212,146,cs),
(212,165,o),
(231,175,o),
(276,175,c),
(152,253,l),
(76,230,o),
(35,191,o),
(35,141,cs),
(35,38,o),
(135,0,o),
(343,0,cs)
);
},
{
closed = 1;
nodes = (
(428,233,l),
(288,233,l),
(288,71,l),
(428,70,l)
);
}
);
width = 708;
}
);
unicode = 2587;
},
{
glyphname = jaguru;
layers = (
{
background = {
shapes = (
{
closed = 1;
nodes = (
(265,0,l),
(265,223,l),
(427,223,l),
(427,0,l),
(604,0,l),
(604,484,l),
(681,484,l),
(681,622,l),
(-7,622,l),
(-7,484,l),
(427,484,l),
(427,361,l),
(263,361,l),
(263,363,ls),
(263,402,o),
(241,432,o),
(184,432,cs),
(104,432,o),
(17,348,o),
(17,284,cs),
(17,241,o),
(44,221,o),
(84,221,cs),
(88,221,l),
(88,0,l)
);
}
);
};
layerId = "4FA569E6-2225-4E7A-8719-2BB8460AE18A";
shapes = (
{
closed = 1;
nodes = (
(265,0,l),
(265,223,l),
(427,223,l),
(427,0,l),
(604,0,l),
(604,484,l),
(681,484,l),
(681,622,l),
(-7,622,l),
(-7,484,l),
(427,484,l),
(427,361,l),
(263,361,l),
(263,363,ls),
(263,402,o),
(241,432,o),
(184,432,cs),
(104,432,o),
(17,348,o),
(17,284,cs),
(17,241,o),
(44,221,o),
(84,221,cs),
(88,221,l),
(88,0,l)
);
}
);
width = 674;
}
);
unicode = 2588;
},
{
glyphname = jhaguru;
layers = (
{
anchors = (
{
name = Anchor2;
position = "{575, 622}";
}
);
background = {
shapes = (
{
closed = 1;
nodes = (
(281,54,o),
(304,56,o),
(332,58,c),
(361,63,l),
(508,83,o),
(601,148,o),
(601,254,cs),
(601,373,o),
(494,415,o),
(309,415,cs),
(207,415,o),
(109,404,o),
(17,374,c),
(66,245,l),
(140,272,o),
(232,290,o),
(306,290,cs),
(394,290,o),
(422,273,o),
(422,247,cs),
(422,211,o),
(382,196,o),
(316,187,c),
(271,213,o),
(226,231,o),
(170,231,cs),
(98,231,o),
(68,192,o),
(68,152,cs),
(68,69,o),
(158,54,o),
(263,54,cs)
);
},
{
closed = 1;
nodes = (
(500,44,l),
(461,73,o),
(379,123,o),
(333,145,c),
(195,101,l),
(257,57,o),
(326,0,o),
(375,-46,c)
);
},
{
closed = 1;
nodes = (
(369,411,l),
(268,411,o),
(228,451,o),
(228,572,c),
(48,577,l),
(48,454,o),
(102,393,o),
(175,360,c)
);
},
{
closed = 1;
nodes = (
(637,484,l),
(637,622,l),
(-7,622,l),
(-7,484,l)
);
},
{
closed = 1;
nodes = (
(451,357,l),
(531,382,o),
(586,462,o),
(586,577,c),
(406,572,l),
(406,456,o),
(363,411,o),
(277,411,c)
);
}
);
};
layerId = "4FA569E6-2225-4E7A-8719-2BB8460AE18A";
shapes = (
{
closed = 1;
nodes = (
(281,54,o),
(304,56,o),
(332,58,c),
(361,63,l),
(508,83,o),
(601,148,o),
(601,254,cs),
(601,373,o),
(494,415,o),
(309,415,cs),
(207,415,o),
(109,404,o),
(17,374,c),
(66,245,l),
(140,272,o),
(232,290,o),
(306,290,cs),
(394,290,o),
(422,273,o),
(422,247,cs),
(422,211,o),
(382,196,o),
(316,187,c),
(271,213,o),
(226,231,o),
(170,231,cs),
(98,231,o),
(68,192,o),
(68,152,cs),
(68,69,o),
(158,54,o),
(263,54,cs)
);
},
{
closed = 1;
nodes = (
(500,44,l),
(461,73,o),
(379,123,o),
(333,145,c),
(195,101,l),
(257,57,o),
(326,0,o),
(375,-46,c)
);
},
{
closed = 1;
nodes = (
(369,411,l),
(268,411,o),
(228,451,o),
(228,572,c),
(48,577,l),
(48,454,o),
(102,393,o),
(175,360,c)
);
},
{
closed = 1;
nodes = (
(637,484,l),
(637,622,l),
(-7,622,l),
(-7,484,l)
);
},
{
closed = 1;
nodes = (
(451,357,l),
(531,382,o),
(586,462,o),
(586,577,c),
(406,572,l),
(406,456,o),
(363,411,o),
(277,411,c)
);
}
);
width = 630;
}
);
unicode = 2589;
},
{
glyphname = nyaguru;
layers = (
{
anchors = (
{
name = Anchor2;
position = "{548, 622}";
},
{
name = Anchor4;
position = "{326, 0}";
}
);
background = {
shapes = (
{
closed = 1;
nodes = (
(301,416,l),
(280,467,o),
(241,535,o),
(199,589,c),
(44,553,l),
(85,502,o),
(126,430,o),
(155,369,c)
);
},
{
alignment = -1;
ref = vaguru;
}
);
};
layerId = "4FA569E6-2225-4E7A-8719-2BB8460AE18A";
shapes = (
{
closed = 1;
nodes = (
(301,416,l),
(280,467,o),
(241,535,o),
(199,589,c),
(44,553,l),
(85,502,o),
(126,430,o),
(155,369,c)
);
},
{
alignment = -1;
ref = vaguru;
}
);
width = 618;
}
);
unicode = 2590;
},
{
glyphname = ttaguru;
layers = (
{
anchors = (
{
name = Anchor4;
position = "{332, 0}";
}
);
background = {
shapes = (
{
closed = 1;
nodes = (
(446,0,o),
(540,17,o),
(608,51,c),
(552,184,l),
(480,150,o),
(428,139,o),
(365,139,cs),
(284,139,o),
(236,163,o),
(171,277,c),
(180,167,l),
(221,218,o),
(256,246,o),
(292,261,cs),
(318,272,o),
(344,277,o),
(409,277,cs),
(510,277,l),
(556,323,l),
(556,484,l),
(633,484,l),
(633,622,l),
(-7,622,l),
(-7,484,l),
(379,484,l),
(379,415,l),
(373,415,ls),
(280,415,o),
(237,403,o),
(193,383,cs),
(127,353,o),
(75,303,o),
(16,231,c),
(82,65,o),
(201,0,o),
(360,0,cs)
);
}
);
};
layerId = "4FA569E6-2225-4E7A-8719-2BB8460AE18A";
shapes = (
{
closed = 1;
nodes = (
(446,0,o),
(540,17,o),
(608,51,c),
(552,184,l),
(480,150,o),
(428,139,o),
(365,139,cs),
(284,139,o),
(236,163,o),
(171,277,c),
(180,167,l),
(221,218,o),
(256,246,o),
(292,261,cs),
(318,272,o),
(344,277,o),
(409,277,cs),
(510,277,l),
(556,323,l),
(556,484,l),
(633,484,l),
(633,622,l),
(-7,622,l),
(-7,484,l),
(379,484,l),
(379,415,l),
(373,415,ls),
(280,415,o),
(237,403,o),
(193,383,cs),
(127,353,o),
(75,303,o),
(16,231,c),
(82,65,o),
(201,0,o),
(360,0,cs)
);
}
);
width = 626;
}
);
unicode = 2591;
},
{
glyphname = tthaguru;
layers = (
{
anchors = (
{
name = Anchor2;
position = "{456, 622}";
},
{
name = Anchor4;
position = "{368, 0}";
},
{
name = Anchor6;
position = "{427, 0}";
}
);
background = {
shapes = (
{
closed = 1;
nodes = (
(563,0,o),
(710,47,o),
(710,201,cs),
(710,299,o),
(638,386,o),
(456,427,c),
(456,484,l),
(742,484,l),
(742,622,l),
(-7,622,l),
(-7,484,l),
(279,484,l),
(279,427,l),
(98,387,o),
(25,299,o),
(25,201,cs),
(25,47,o),
(171,0,o),
(368,0,cs)
);
},
{
closed = 1;
nodes = (
(257,140,o),
(202,157,o),
(202,205,cs),
(202,246,o),
(248,283,o),
(368,305,c),
(486,283,o),
(533,246,o),
(533,209,cs),
(533,157,o),
(478,140,o),
(368,140,cs)
);
}
);
};
layerId = "4FA569E6-2225-4E7A-8719-2BB8460AE18A";
shapes = (
{
closed = 1;
nodes = (
(563,0,o),
(710,47,o),
(710,201,cs),
(710,299,o),
(638,386,o),
(456,427,c),
(456,484,l),
(742,484,l),
(742,622,l),
(-7,622,l),
(-7,484,l),
(279,484,l),
(279,427,l),
(98,387,o),
(25,299,o),
(25,201,cs),
(25,47,o),
(171,0,o),
(368,0,cs)
);
},
{
closed = 1;
nodes = (
(257,140,o),
(202,157,o),
(202,205,cs),
(202,246,o),
(248,283,o),
(368,305,c),
(486,283,o),
(533,246,o),
(533,209,cs),
(533,157,o),
(478,140,o),
(368,140,cs)
);
}
);
width = 735;
}
);
unicode = 2592;
},
{
glyphname = ddaguru;
layers = (
{
anchors = (
{
name = Anchor2;
position = "{612, 622}";
},
{
name = Anchor4;
position = "{337, 0}";
},
{
name = Anchor6;
position = "{378, 0}";
}
);
background = {
shapes = (
{
closed = 1;
nodes = (
(526,0,o),
(640,91,o),
(640,221,cs),
(640,291,o),
(609,337,o),
(547,373,c),
(589,399,o),
(615,434,o),
(615,500,cs),
(615,517,o),
(612,542,o),
(609,553,c),
(547,484,l),
(676,484,l),
(676,622,l),
(-7,622,l),
(-7,484,l),
(489,484,l),
(439,550,l),
(443,540,o),
(445,520,o),
(445,500,cs),
(445,475,o),
(424,445,o),
(392,436,c),
(344,453,o),
(307,459,o),
(261,459,cs),
(177,459,o),
(135,424,o),
(135,372,cs),
(135,322,o),
(172,281,o),
(275,281,cs),
(323,281,o),
(374,288,o),
(411,303,c),
(441,288,o),
(461,268,o),
(461,227,cs),
(461,159,o),
(378,119,o),
(290,119,cs),
(217,119,o),
(196,127,o),
(196,141,cs),
(196,155,o),
(209,160,o),
(231,160,cs),
(286,160,o),
(342,128,o),
(398,70,c),
(508,118,l),
(429,209,o),
(338,271,o),
(199,271,cs),
(71,271,o),
(21,213,o),
(21,142,cs),
(21,36,o),
(137,0,o),
(298,0,cs)
);
}
);
};
layerId = "4FA569E6-2225-4E7A-8719-2BB8460AE18A";
shapes = (
{
closed = 1;
nodes = (
(526,0,o),
(640,91,o),
(640,221,cs),
(640,291,o),
(609,337,o),
(547,373,c),
(589,399,o),
(615,434,o),
(615,500,cs),
(615,517,o),
(612,542,o),
(609,553,c),
(547,484,l),
(676,484,l),
(676,622,l),
(-7,622,l),
(-7,484,l),
(489,484,l),
(439,550,l),
(443,540,o),
(445,520,o),
(445,500,cs),
(445,475,o),
(424,445,o),
(392,436,c),
(344,453,o),
(307,459,o),
(261,459,cs),
(177,459,o),
(135,424,o),
(135,372,cs),
(135,322,o),
(172,281,o),
(275,281,cs),
(323,281,o),
(374,288,o),
(411,303,c),
(441,288,o),
(461,268,o),
(461,227,cs),
(461,159,o),
(378,119,o),
(290,119,cs),
(217,119,o),
(196,127,o),
(196,141,cs),
(196,155,o),
(209,160,o),
(231,160,cs),
(286,160,o),
(342,128,o),
(398,70,c),
(508,118,l),
(429,209,o),
(338,271,o),
(199,271,cs),
(71,271,o),
(21,213,o),
(21,142,cs),
(21,36,o),
(137,0,o),
(298,0,cs)
);
}
);
width = 669;
}
);
unicode = 2593;
},
{
glyphname = ddhaguru;
layers = (
{
anchors = (
{
name = Anchor2;
position = "{643, 622}";
},
{
name = Anchor6;
position = "{442, 0}";
}
);
background = {
shapes = (
{
closed = 1;
nodes = (
(562,0,o),
(690,28,o),
(690,140,cs),
(690,209,o),
(640,266,o),
(511,266,cs),
(373,266,o),
(282,205,o),
(203,114,c),
(313,70,l),
(369,128,o),
(427,160,o),
(478,160,cs),
(502,160,o),
(515,155,o),
(515,141,cs),
(515,127,o),
(496,119,o),
(450,119,cs),
(321,119,o),
(262,202,o),
(257,277,c),
(591,277,l),
(643,327,l),
(643,484,l),
(724,484,l),
(724,622,l),
(-7,622,l),
(-7,484,l),
(466,484,l),
(466,405,l),
(263,405,l),
(263,407,ls),
(263,446,o),
(227,471,o),
(184,471,cs),
(99,471,o),
(17,397,o),
(17,333,cs),
(17,290,o),
(44,270,o),
(84,270,cs),
(88,270,l),
(88,269,l),
(92,116,o),
(204,0,o),
(440,0,cs)
);
}
);
};
layerId = "4FA569E6-2225-4E7A-8719-2BB8460AE18A";
shapes = (
{
closed = 1;
nodes = (
(562,0,o),
(690,28,o),
(690,140,cs),
(690,209,o),
(640,266,o),
(511,266,cs),
(373,266,o),
(282,205,o),
(203,114,c),
(313,70,l),
(369,128,o),
(427,160,o),
(478,160,cs),
(502,160,o),
(515,155,o),
(515,141,cs),
(515,127,o),
(496,119,o),
(450,119,cs),
(321,119,o),
(262,202,o),
(257,277,c),
(591,277,l),
(643,327,l),
(643,484,l),
(724,484,l),
(724,622,l),
(-7,622,l),
(-7,484,l),
(466,484,l),
(466,405,l),
(263,405,l),
(263,407,ls),
(263,446,o),
(227,471,o),
(184,471,cs),
(99,471,o),
(17,397,o),
(17,333,cs),
(17,290,o),
(44,270,o),
(84,270,cs),
(88,270,l),
(88,269,l),
(92,116,o),
(204,0,o),
(440,0,cs)
);
}
);
width = 717;
}
);
unicode = 2594;
},
{
glyphname = nnaguru;
layers = (
{
background = {
shapes = (
{
closed = 1;
nodes = (
(486,0,o),
(577,25,o),
(644,60,c),
(584,191,l),
(520,162,o),
(452,139,o),
(387,139,cs),
(279,139,o),
(242,167,o),
(188,237,c),
(205,182,l),
(256,236,o),
(288,247,o),
(328,247,cs),
(353,247,o),
(371,244,o),
(390,237,c),
(462,262,l),
(537,425,l),
(396,492,l),
(332,340,l),
(417,351,l),
(376,373,o),
(338,382,o),
(311,382,cs),
(197,382,o),
(110,333,o),
(16,214,c),
(90,53,o),
(216,0,o),
(387,0,cs)
);
},
{
closed = 1;
nodes = (
(647,409,l),
(552,445,o),
(465,480,o),
(372,530,c),
(350,484,l),
(669,484,l),
(669,622,l),
(-7,622,l),
(-7,484,l),
(281,484,l),
(171,521,l),
(318,404,o),
(459,327,o),
(580,280,c)
);
}
);
};
layerId = "4FA569E6-2225-4E7A-8719-2BB8460AE18A";
shapes = (
{
closed = 1;
nodes = (
(486,0,o),
(577,25,o),
(644,60,c),
(584,191,l),
(520,162,o),
(452,139,o),
(387,139,cs),
(279,139,o),
(242,167,o),
(188,237,c),
(205,182,l),
(256,236,o),
(288,247,o),
(328,247,cs),
(353,247,o),
(371,244,o),
(390,237,c),
(462,262,l),
(537,425,l),
(396,492,l),
(332,340,l),
(417,351,l),
(376,373,o),
(338,382,o),
(311,382,cs),
(197,382,o),
(110,333,o),
(16,214,c),
(90,53,o),
(216,0,o),
(387,0,cs)
);
},
{
closed = 1;
nodes = (
(647,409,l),
(552,445,o),
(465,480,o),
(372,530,c),
(350,484,l),
(669,484,l),
(669,622,l),
(-7,622,l),
(-7,484,l),
(281,484,l),
(171,521,l),
(318,404,o),
(459,327,o),
(580,280,c)
);
}
);
width = 662;
}
);
unicode = 2595;
},
{
glyphname = taguru;
layers = (
{
anchors = (
{
name = Anchor6;
position = "{339, 0}";
}
);
background = {
shapes = (
{
closed = 1;
nodes = (
(454,0,o),
(579,52,o),
(579,188,cs),
(579,255,o),
(546,302,o),
(486,341,c),
(535,372,o),
(555,411,o),
(555,478,cs),
(555,503,o),
(551,527,o),
(545,539,c),
(483,484,l),
(615,484,l),
(615,622,l),
(-7,622,l),
(-7,484,l),
(422,484,l),
(373,517,l),
(377,509,o),
(379,500,o),
(379,482,cs),
(379,441,o),
(357,418,o),
(329,407,c),
(287,422,o),
(238,429,o),
(200,429,cs),
(116,429,o),
(74,393,o),
(74,340,cs),
(74,287,o),
(111,248,o),
(214,248,cs),
(262,248,o),
(309,255,o),
(345,269,c),
(377,255,o),
(400,235,o),
(400,203,cs),
(400,158,o),
(360,140,o),
(276,140,cs),
(209,140,o),
(140,158,o),
(59,198,c),
(12,64,l),
(82,26,o),
(192,0,o),
(298,0,cs)
);
}
);
};
layerId = "4FA569E6-2225-4E7A-8719-2BB8460AE18A";
shapes = (
{
closed = 1;
nodes = (
(454,0,o),
(579,52,o),
(579,188,cs),
(579,255,o),
(546,302,o),
(486,341,c),
(535,372,o),
(555,411,o),
(555,478,cs),
(555,503,o),
(551,527,o),
(545,539,c),
(483,484,l),
(615,484,l),
(615,622,l),
(-7,622,l),
(-7,484,l),
(422,484,l),
(373,517,l),
(377,509,o),
(379,500,o),
(379,482,cs),
(379,441,o),
(357,418,o),
(329,407,c),
(287,422,o),
(238,429,o),
(200,429,cs),
(116,429,o),
(74,393,o),
(74,340,cs),
(74,287,o),
(111,248,o),
(214,248,cs),
(262,248,o),
(309,255,o),
(345,269,c),
(377,255,o),
(400,235,o),
(400,203,cs),
(400,158,o),
(360,140,o),
(276,140,cs),
(209,140,o),
(140,158,o),
(59,198,c),
(12,64,l),
(82,26,o),
(192,0,o),
(298,0,cs)
);
}
);
width = 608;
}
);
unicode = 2596;
},
{
glyphname = thaguru;
layers = (
{
background = {
shapes = (
{
closed = 1;
nodes = (
(611,0,l),
(611,484,l),
(688,484,l),
(688,622,l),
(179,622,l),
(185,484,l),
(434,484,l),
(434,252,l),
(455,288,l),
(419,265,o),
(381,248,o),
(329,248,cs),
(271,248,o),
(232,278,o),
(209,334,c),
(177,278,l),
(239,325,o),
(269,380,o),
(269,444,cs),
(269,496,o),
(245,562,o),
(216,622,c),
(-7,622,l),
(-7,484,l),
(81,484,l),
(89,467,o),
(92,450,o),
(92,434,cs),
(92,387,o),
(66,359,o),
(25,330,c),
(92,171,o),
(185,109,o),
(322,109,cs),
(379,109,o),
(417,116,o),
(457,135,c),
(434,145,l),
(434,0,l)
);
},
{
closed = 1;
nodes = (
(500,307,l),
(500,428,l),
(150,428,l),
(172,307,l)
);
}
);
};
layerId = "4FA569E6-2225-4E7A-8719-2BB8460AE18A";
shapes = (
{
closed = 1;
nodes = (
(611,0,l),
(611,484,l),
(688,484,l),
(688,622,l),
(179,622,l),
(185,484,l),
(434,484,l),
(434,252,l),
(455,288,l),
(419,265,o),
(381,248,o),
(329,248,cs),
(271,248,o),
(232,278,o),
(209,334,c),
(177,278,l),
(239,325,o),
(269,380,o),
(269,444,cs),
(269,496,o),
(245,562,o),
(216,622,c),
(-7,622,l),
(-7,484,l),
(81,484,l),
(89,467,o),
(92,450,o),
(92,434,cs),
(92,387,o),
(66,359,o),
(25,330,c),
(92,171,o),
(185,109,o),
(322,109,cs),
(379,109,o),
(417,116,o),
(457,135,c),
(434,145,l),
(434,0,l)
);
},
{
closed = 1;
nodes = (
(500,307,l),
(500,428,l),
(150,428,l),
(172,307,l)
);
}
);
width = 681;
}
);
unicode = 2597;
},
{
glyphname = daguru;
layers = (
{
background = {
shapes = (
{
closed = 1;
nodes = (
(502,0,o),
(585,19,o),
(650,48,c),
(594,181,l),
(527,153,o),
(482,139,o),
(411,139,cs),
(313,139,o),
(272,174,o),
(258,244,c),
(557,244,l),
(603,290,l),
(603,484,l),
(680,484,l),
(680,622,l),
(-7,622,l),
(-7,484,l),
(426,484,l),
(426,382,l),
(259,382,l),
(259,384,ls),
(259,423,o),
(237,453,o),
(180,453,cs),
(100,453,o),
(13,369,o),
(13,305,cs),
(13,262,o),
(40,242,o),
(80,242,cs),
(82,242,l),
(84,241,l),
(94,98,o),
(192,0,o),
(403,0,cs)
);
}
);
};
layerId = "4FA569E6-2225-4E7A-8719-2BB8460AE18A";
shapes = (
{
closed = 1;
nodes = (
(502,0,o),
(585,19,o),
(650,48,c),
(594,181,l),
(527,153,o),
(482,139,o),
(411,139,cs),
(313,139,o),
(272,174,o),
(258,244,c),
(557,244,l),
(603,290,l),
(603,484,l),
(680,484,l),
(680,622,l),
(-7,622,l),
(-7,484,l),
(426,484,l),
(426,382,l),
(259,382,l),
(259,384,ls),
(259,423,o),
(237,453,o),
(180,453,cs),
(100,453,o),
(13,369,o),
(13,305,cs),
(13,262,o),
(40,242,o),
(80,242,cs),
(82,242,l),
(84,241,l),
(94,98,o),
(192,0,o),
(403,0,cs)
);
}
);
width = 673;
}
);
unicode = 2598;
},
{
glyphname = dhaguru;
layers = (
{
background = {
shapes = (
{
closed = 1;
nodes = (
(606,0,l),
(606,484,l),
(683,484,l),
(683,622,l),
(179,622,l),
(185,484,l),
(429,484,l),
(429,252,l),
(455,288,l),
(419,265,o),
(381,248,o),
(328,248,cs),
(274,248,o),
(237,278,o),
(214,334,c),
(182,278,l),
(244,325,o),
(269,381,o),
(269,445,cs),
(269,497,o),
(245,562,o),
(216,622,c),
(-7,622,l),
(-7,484,l),
(81,484,l),
(89,467,o),
(92,450,o),
(92,434,cs),
(92,387,o),
(66,359,o),
(25,330,c),
(92,171,o),
(185,109,o),
(322,109,cs),
(379,109,o),
(417,116,o),
(457,135,c),
(429,145,l),
(429,0,l)
);
}
);
};
layerId = "4FA569E6-2225-4E7A-8719-2BB8460AE18A";
shapes = (
{
closed = 1;
nodes = (
(606,0,l),
(606,484,l),
(683,484,l),
(683,622,l),
(179,622,l),
(185,484,l),
(429,484,l),
(429,252,l),
(455,288,l),
(419,265,o),
(381,248,o),
(328,248,cs),
(274,248,o),
(237,278,o),
(214,334,c),
(182,278,l),
(244,325,o),
(269,381,o),
(269,445,cs),
(269,497,o),
(245,562,o),
(216,622,c),
(-7,622,l),
(-7,484,l),
(81,484,l),
(89,467,o),
(92,450,o),
(92,434,cs),
(92,387,o),
(66,359,o),
(25,330,c),
(92,171,o),
(185,109,o),
(322,109,cs),
(379,109,o),
(417,116,o),
(457,135,c),
(429,145,l),
(429,0,l)
);
}
);
width = 676;
}
);
unicode = 2599;
},
{
glyphname = naguru;
layers = (
{
anchors = (
{
name = Anchor2;
position = "{451, 622}";
},
{
name = Anchor4;
position = "{362, 0}";
},
{
name = Anchor6;
position = "{459, 0}";
}
);
background = {
shapes = (
{
closed = 1;
nodes = (
(304,141,l),
(240,141,o),
(202,154,o),
(202,199,cs),
(202,249,o),
(264,284,o),
(363,305,c),
(461,284,o),
(523,245,o),
(523,199,cs),
(523,154,o),
(485,141,o),
(421,141,c),
(429,0,l),
(625,0,o),
(700,88,o),
(700,195,cs),
(700,312,o),
(606,388,o),
(451,427,c),
(451,484,l),
(732,484,l),
(732,622,l),
(-7,622,l),
(-7,484,l),
(274,484,l),
(274,427,l),
(119,388,o),
(25,312,o),
(25,195,cs),
(25,88,o),
(100,0,o),
(296,0,c)
);
}
);
};
layerId = "4FA569E6-2225-4E7A-8719-2BB8460AE18A";
shapes = (
{
closed = 1;
nodes = (
(304,141,l),
(240,141,o),
(202,154,o),
(202,199,cs),
(202,249,o),
(264,284,o),
(363,305,c),
(461,284,o),
(523,245,o),
(523,199,cs),
(523,154,o),
(485,141,o),
(421,141,c),
(429,0,l),
(625,0,o),
(700,88,o),
(700,195,cs),
(700,312,o),
(606,388,o),
(451,427,c),
(451,484,l),
(732,484,l),
(732,622,l),
(-7,622,l),
(-7,484,l),
(274,484,l),
(274,427,l),
(119,388,o),
(25,312,o),
(25,195,cs),
(25,88,o),
(100,0,o),
(296,0,c)
);
}
);
width = 725;
}
);
unicode = 2600;
},
{
glyphname = paguru;
layers = (
{
background = {
shapes = (
{
closed = 1;
nodes = (
(601,0,l),
(601,484,l),
(678,484,l),
(678,622,l),
(424,622,l),
(424,252,l),
(455,288,l),
(419,265,o),
(381,248,o),
(328,248,cs),
(274,248,o),
(237,278,o),
(214,334,c),
(182,278,l),
(244,325,o),
(269,381,o),
(269,445,cs),
(269,504,o),
(249,562,o),
(220,622,c),
(-7,622,l),
(-7,484,l),
(81,484,l),
(89,467,o),
(92,450,o),
(92,434,cs),
(92,387,o),
(66,359,o),
(25,330,c),
(92,171,o),
(185,109,o),
(322,109,cs),
(379,109,o),
(417,116,o),
(457,135,c),
(424,145,l),
(424,0,l)
);
}
);
};
layerId = "4FA569E6-2225-4E7A-8719-2BB8460AE18A";
shapes = (
{
closed = 1;
nodes = (
(601,0,l),
(601,484,l),
(678,484,l),
(678,622,l),
(424,622,l),
(424,252,l),
(455,288,l),
(419,265,o),
(381,248,o),
(328,248,cs),
(274,248,o),
(237,278,o),
(214,334,c),
(182,278,l),
(244,325,o),
(269,381,o),
(269,445,cs),
(269,504,o),
(249,562,o),
(220,622,c),
(-7,622,l),
(-7,484,l),
(81,484,l),
(89,467,o),
(92,450,o),
(92,434,cs),
(92,387,o),
(66,359,o),
(25,330,c),
(92,171,o),
(185,109,o),
(322,109,cs),
(379,109,o),
(417,116,o),
(457,135,c),
(424,145,l),
(424,0,l)
);
}
);
width = 671;
}
);
unicode = 2602;
},
{
glyphname = phaguru;
layers = (
{
anchors = (
{
name = Anchor2;
position = "{584, 622}";
}
);
background = {
shapes = (
{
closed = 1;
nodes = (
(503,0,o),
(631,28,o),
(631,142,cs),
(631,213,o),
(581,270,o),
(452,270,cs),
(314,270,o),
(223,209,o),
(144,118,c),
(254,70,l),
(310,128,o),
(368,160,o),
(419,160,cs),
(443,160,o),
(456,155,o),
(456,141,cs),
(456,127,o),
(440,119,o),
(391,119,cs),
(306,119,o),
(201,169,o),
(201,248,cs),
(201,261,o),
(205,271,o),
(213,277,cs),
(226,287,o),
(241,291,o),
(286,291,cs),
(538,291,l),
(584,337,l),
(584,484,l),
(665,484,l),
(665,622,l),
(-7,622,l),
(-7,484,l),
(407,484,l),
(407,424,l),
(253,424,ls),
(163,424,o),
(119,410,o),
(81,381,cs),
(47,355,o),
(25,318,o),
(25,268,cs),
(25,96,o),
(185,0,o),
(381,0,cs)
);
}
);
};
layerId = "4FA569E6-2225-4E7A-8719-2BB8460AE18A";
shapes = (
{
closed = 1;
nodes = (
(503,0,o),
(631,28,o),
(631,142,cs),
(631,213,o),
(581,270,o),
(452,270,cs),
(314,270,o),
(223,209,o),
(144,118,c),
(254,70,l),
(310,128,o),
(368,160,o),
(419,160,cs),
(443,160,o),
(456,155,o),
(456,141,cs),
(456,127,o),
(440,119,o),
(391,119,cs),
(306,119,o),
(201,169,o),
(201,248,cs),
(201,261,o),
(205,271,o),
(213,277,cs),
(226,287,o),
(241,291,o),
(286,291,cs),
(538,291,l),
(584,337,l),
(584,484,l),
(665,484,l),
(665,622,l),
(-7,622,l),
(-7,484,l),
(407,484,l),
(407,424,l),
(253,424,ls),
(163,424,o),
(119,410,o),
(81,381,cs),
(47,355,o),
(25,318,o),
(25,268,cs),
(25,96,o),
(185,0,o),
(381,0,cs)
);
}
);
width = 658;
}
);
unicode = 2603;
},
{
glyphname = baguru;
layers = (
{
background = {
shapes = (
{
closed = 1;
nodes = (
(86,113,o),
(188,53,o),
(311,53,cs),
(381,53,o),
(424,64,o),
(472,86,c),
(465,235,l),
(427,206,o),
(386,191,o),
(325,191,cs),
(259,191,o),
(220,225,o),
(199,281,c),
(198,202,l),
(240,259,o),
(272,277,o),
(342,277,cs),
(464,277,l),
(466,410,l),
(342,410,ls),
(282,410,o),
(260,416,o),
(243,431,cs),
(229,443,o),
(223,465,o),
(223,490,c),
(169,484,l),
(564,484,l),
(581,622,l),
(-7,622,l),
(-7,484,l),
(83,484,l),
(46,498,l),
(46,398,o),
(106,342,o),
(185,324,c),
(204,367,l),
(128,352,o),
(70,306,o),
(28,242,c)
);
},
{
closed = 1;
nodes = (
(620,0,l),
(620,484,l),
(697,484,l),
(697,622,l),
(352,622,l),
(352,484,l),
(443,484,l),
(443,0,l)
);
}
);
};
layerId = "4FA569E6-2225-4E7A-8719-2BB8460AE18A";
shapes = (
{
closed = 1;
nodes = (
(86,113,o),
(188,53,o),
(311,53,cs),
(381,53,o),
(424,64,o),
(472,86,c),
(465,235,l),
(427,206,o),
(386,191,o),
(325,191,cs),
(259,191,o),
(220,225,o),
(199,281,c),
(198,202,l),
(240,259,o),
(272,277,o),
(342,277,cs),
(464,277,l),
(466,410,l),
(342,410,ls),
(282,410,o),
(260,416,o),
(243,431,cs),
(229,443,o),
(223,465,o),
(223,490,c),
(169,484,l),
(564,484,l),
(581,622,l),
(-7,622,l),
(-7,484,l),
(83,484,l),
(46,498,l),
(46,398,o),
(106,342,o),
(185,324,c),
(204,367,l),
(128,352,o),
(70,306,o),
(28,242,c)
);
},
{
closed = 1;
nodes = (
(620,0,l),
(620,484,l),
(697,484,l),
(697,622,l),
(352,622,l),
(352,484,l),
(443,484,l),
(443,0,l)
);
}
);
width = 690;
}
);
unicode = 2604;
},
{
glyphname = bhaguru;
layers = (
{
anchors = (
{
name = Anchor2;
position = "{581, 622}";
},
{
name = Anchor4;
position = "{308, 0}";
},
{
name = Anchor6;
position = "{362, 0}";
}
);
background = {
shapes = (
{
closed = 1;
nodes = (
(500,0,o),
(610,68,o),
(610,205,cs),
(610,275,o),
(576,336,o),
(511,382,c),
(483,389,l),
(419,438,o),
(347,460,o),
(260,460,cs),
(117,460,o),
(53,402,o),
(53,324,cs),
(53,241,o),
(119,183,o),
(269,183,cs),
(367,183,o),
(434,210,o),
(491,256,c),
(521,271,l),
(579,323,o),
(601,382,o),
(601,437,cs),
(601,469,o),
(595,499,o),
(584,523,c),
(539,484,l),
(659,484,l),
(659,622,l),
(-7,622,l),
(-7,484,l),
(485,484,l),
(392,540,l),
(418,500,o),
(426,469,o),
(426,424,cs),
(426,352,o),
(373,301,o),
(271,301,cs),
(246,301,o),
(227,306,o),
(227,321,cs),
(227,337,o),
(246,342,o),
(272,342,cs),
(354,342,o),
(438,299,o),
(438,220,cs),
(438,169,o),
(397,138,o),
(284,138,cs),
(216,138,o),
(141,157,o),
(59,201,c),
(12,66,l),
(95,23,o),
(199,0,o),
(300,0,cs)
);
}
);
};
layerId = "4FA569E6-2225-4E7A-8719-2BB8460AE18A";
shapes = (
{
closed = 1;
nodes = (
(500,0,o),
(610,68,o),
(610,205,cs),
(610,275,o),
(576,336,o),
(511,382,c),
(483,389,l),
(419,438,o),
(347,460,o),
(260,460,cs),
(117,460,o),
(53,402,o),
(53,324,cs),
(53,241,o),
(119,183,o),
(269,183,cs),
(367,183,o),
(434,210,o),
(491,256,c),
(521,271,l),
(579,323,o),
(601,382,o),
(601,437,cs),
(601,469,o),
(595,499,o),
(584,523,c),
(539,484,l),
(659,484,l),
(659,622,l),
(-7,622,l),
(-7,484,l),
(485,484,l),
(392,540,l),
(418,500,o),
(426,469,o),
(426,424,cs),
(426,352,o),
(373,301,o),
(271,301,cs),
(246,301,o),
(227,306,o),
(227,321,cs),
(227,337,o),
(246,342,o),
(272,342,cs),
(354,342,o),
(438,299,o),
(438,220,cs),
(438,169,o),
(397,138,o),
(284,138,cs),
(216,138,o),
(141,157,o),
(59,201,c),
(12,66,l),
(95,23,o),
(199,0,o),
(300,0,cs)
);
}
);
width = 652;
}
);
unicode = 2605;
},
{
glyphname = maguru;
layers = (
{
background = {
shapes = (
{
closed = 1;
nodes = (
(595,0,l),
(595,484,l),
(672,484,l),
(672,622,l),
(418,622,l),
(418,335,l),
(265,335,l),
(264,413,o),
(232,541,o),
(195,622,c),
(-7,622,l),
(-7,484,l),
(51,484,l),
(73,435,o),
(92,347,o),
(97,285,c),
(49,235,o),
(32,195,o),
(32,146,cs),
(32,95,o),
(59,50,o),
(130,50,cs),
(206,50,o),
(257,99,o),
(263,197,c),
(418,197,l),
(418,0,l)
);
}
);
};
layerId = "4FA569E6-2225-4E7A-8719-2BB8460AE18A";
shapes = (
{
closed = 1;
nodes = (
(595,0,l),
(595,484,l),
(672,484,l),
(672,622,l),
(418,622,l),
(418,335,l),
(265,335,l),
(264,413,o),
(232,541,o),
(195,622,c),
(-7,622,l),
(-7,484,l),
(51,484,l),
(73,435,o),
(92,347,o),
(97,285,c),
(49,235,o),
(32,195,o),
(32,146,cs),
(32,95,o),
(59,50,o),
(130,50,cs),
(206,50,o),
(257,99,o),
(263,197,c),
(418,197,l),
(418,0,l)
);
}
);
width = 665;
}
);
unicode = 2606;
},
{
glyphname = yaguru;
layers = (
{
background = {
shapes = (
{
closed = 1;
nodes = (
(739,0,l),
(739,484,l),
(816,484,l),
(816,622,l),
(-7,622,l),
(-7,484,l),
(81,484,l),
(89,467,o),
(92,450,o),
(92,432,cs),
(92,381,o),
(66,353,o),
(25,324,c),
(97,160,o),
(185,97,o),
(322,97,cs),
(391,97,o),
(438,104,o),
(498,125,c),
(498,237,l),
(562,237,l),
(562,0,l)
);
},
{
closed = 1;
nodes = (
(328,233,l),
(327,233,o),
(325,233,o),
(325,233,c),
(274,233,o),
(239,267,o),
(214,328,c),
(182,272,l),
(244,319,o),
(269,374,o),
(269,443,cs),
(269,459,o),
(267,472,o),
(265,484,c),
(562,484,l),
(562,374,l),
(328,374,l)
);
}
);
};
layerId = "4FA569E6-2225-4E7A-8719-2BB8460AE18A";
shapes = (
{
closed = 1;
nodes = (
(739,0,l),
(739,484,l),
(816,484,l),
(816,622,l),
(-7,622,l),
(-7,484,l),
(81,484,l),
(89,467,o),
(92,450,o),
(92,432,cs),
(92,381,o),
(66,353,o),
(25,324,c),
(97,160,o),
(185,97,o),
(322,97,cs),
(391,97,o),
(438,104,o),
(498,125,c),
(498,237,l),
(562,237,l),
(562,0,l)
);
},
{
closed = 1;
nodes = (
(328,233,l),
(327,233,o),
(325,233,o),
(325,233,c),
(274,233,o),
(239,267,o),
(214,328,c),
(182,272,l),
(244,319,o),
(269,374,o),
(269,443,cs),
(269,459,o),
(267,472,o),
(265,484,c),
(562,484,l),
(562,374,l),
(328,374,l)
);
}
);
width = 809;
}
);
unicode = 2607;
},
{
glyphname = raguru;
layers = (
{
anchors = (
{
name = Anchor6;
position = "{347, 0}";
}
);
background = {
shapes = (
{
closed = 1;
nodes = (
(508,0,o),
(579,52,o),
(579,193,cs),
(579,484,l),
(656,484,l),
(656,622,l),
(-7,622,l),
(-7,484,l),
(405,484,l),
(405,425,l),
(271,425,ls),
(167,425,o),
(112,408,o),
(72,373,cs),
(44,348,o),
(25,312,o),
(25,265,cs),
(25,112,o),
(179,0,o),
(353,0,cs)
);
},
{
closed = 1;
nodes = (
(283,139,o),
(203,191,o),
(203,246,cs),
(203,258,o),
(206,267,o),
(214,274,cs),
(224,282,o),
(234,287,o),
(271,287,cs),
(402,287,l),
(402,203,ls),
(402,172,o),
(399,159,o),
(391,151,cs),
(382,142,o),
(369,139,o),
(344,139,cs)
);
}
);
};
layerId = "4FA569E6-2225-4E7A-8719-2BB8460AE18A";
shapes = (
{
closed = 1;
nodes = (
(508,0,o),
(579,52,o),
(579,193,cs),
(579,484,l),
(656,484,l),
(656,622,l),
(-7,622,l),
(-7,484,l),
(405,484,l),
(405,425,l),
(271,425,ls),
(167,425,o),
(112,408,o),
(72,373,cs),
(44,348,o),
(25,312,o),
(25,265,cs),
(25,112,o),
(179,0,o),
(353,0,cs)
);
},
{
closed = 1;
nodes = (
(283,139,o),
(203,191,o),
(203,246,cs),
(203,258,o),
(206,267,o),
(214,274,cs),
(224,282,o),
(234,287,o),
(271,287,cs),
(402,287,l),
(402,203,ls),
(402,172,o),
(399,159,o),
(391,151,cs),
(382,142,o),
(369,139,o),
(344,139,cs)
);
}
);
width = 649;
}
);
unicode = 2608;
},
{
glyphname = laguru;
layers = (
{
anchors = (
{
name = Anchor2;
position = "{644, 622}";
},
{
name = Anchor4;
position = "{376, 0}";
},
{
name = Anchor6;
position = "{477, 0}";
}
);
background = {
shapes = (
{
closed = 1;
nodes = (
(510,251,o),
(618,387,o),
(640,484,c),
(759,484,l),
(759,622,l),
(-7,622,l),
(-7,484,l),
(109,484,l),
(137,381,o),
(243,258,o),
(376,214,c)
);
},
{
closed = 1;
nodes = (
(455,484,l),
(439,428,o),
(397,380,o),
(322,350,c),
(430,350,l),
(350,383,o),
(308,430,o),
(293,484,c)
);
},
{
closed = 1;
nodes = (
(25,88,o),
(100,0,o),
(297,0,cs),
(313,0,l),
(322,141,l),
(304,141,ls),
(240,141,o),
(202,154,o),
(202,198,cs),
(202,241,o),
(244,272,o),
(322,296,c),
(221,411,l),
(82,361,o),
(25,290,o),
(25,194,cs)
);
},
{
closed = 1;
nodes = (
(727,290,o),
(670,361,o),
(531,411,c),
(430,296,l),
(508,272,o),
(550,241,o),
(550,198,cs),
(550,154,o),
(512,141,o),
(448,141,cs),
(430,141,l),
(439,0,l),
(455,0,ls),
(652,0,o),
(727,88,o),
(727,194,cs)
);
}
);
};
guides = (
{
angle = 90;
position = "{376, 0}";
}
);
layerId = "4FA569E6-2225-4E7A-8719-2BB8460AE18A";
shapes = (
{
closed = 1;
nodes = (
(510,251,o),
(618,387,o),
(640,484,c),
(759,484,l),
(759,622,l),
(-7,622,l),
(-7,484,l),
(109,484,l),
(137,381,o),
(243,258,o),
(376,214,c)
);
},
{
closed = 1;
nodes = (
(455,484,l),
(439,428,o),
(397,380,o),
(322,350,c),
(430,350,l),
(350,383,o),
(308,430,o),
(293,484,c)
);
},
{
closed = 1;
nodes = (
(25,88,o),
(100,0,o),
(297,0,cs),
(313,0,l),
(322,141,l),
(304,141,ls),
(240,141,o),
(202,154,o),
(202,198,cs),
(202,241,o),
(244,272,o),
(322,296,c),
(221,411,l),
(82,361,o),
(25,290,o),
(25,194,cs)
);
},
{
closed = 1;
nodes = (
(727,290,o),
(670,361,o),
(531,411,c),
(430,296,l),
(508,272,o),
(550,241,o),
(550,198,cs),
(550,154,o),
(512,141,o),
(448,141,cs),
(430,141,l),
(439,0,l),
(455,0,ls),
(652,0,o),
(727,88,o),
(727,194,cs)
);
}
);
width = 752;
}
);
unicode = 2610;
},
{
glyphname = vaguru;
layers = (
{
anchors = (
{
name = Anchor2;
position = "{548, 622}";
},
{
name = Anchor4;
position = "{326, 0}";
}
);
background = {
shapes = (
{
closed = 1;
nodes = (
(552,287,l),
(265,287,ls),
(234,287,o),
(222,289,o),
(214,293,cs),
(207,297,o),
(205,302,o),
(205,308,cs),
(205,314,o),
(207,319,o),
(212,322,cs),
(216,325,o),
(222,327,o),
(244,327,cs),
(512,327,l),
(548,362,l),
(548,484,l),
(625,484,l),
(625,622,l),
(-7,622,l),
(-7,484,l),
(376,484,l),
(376,446,l),
(244,446,ls),
(167,446,o),
(128,439,o),
(92,421,cs),
(52,401,o),
(25,368,o),
(25,313,cs),
(25,255,o),
(57,217,o),
(109,195,cs),
(155,175,o),
(202,170,o),
(275,170,cs),
(552,170,l)
);
},
{
closed = 1;
nodes = (
(438,0,o),
(506,11,o),
(567,26,c),
(540,147,l),
(480,131,o),
(421,123,o),
(370,123,cs),
(316,123,o),
(285,128,o),
(285,150,cs),
(285,157,o),
(288,162,o),
(293,165,cs),
(299,169,o),
(309,170,o),
(325,170,cs),
(339,170,l),
(178,237,l),
(147,216,o),
(108,186,o),
(108,135,cs),
(108,43,o),
(191,0,o),
(344,0,cs)
);
}
);
};
layerId = "4FA569E6-2225-4E7A-8719-2BB8460AE18A";
shapes = (
{
closed = 1;
nodes = (
(552,287,l),
(265,287,ls),
(234,287,o),
(222,289,o),
(214,293,cs),
(207,297,o),
(205,302,o),
(205,308,cs),
(205,314,o),
(207,319,o),
(212,322,cs),
(216,325,o),
(222,327,o),
(244,327,cs),
(512,327,l),
(548,362,l),
(548,484,l),
(625,484,l),
(625,622,l),
(-7,622,l),
(-7,484,l),
(376,484,l),
(376,446,l),
(244,446,ls),
(167,446,o),
(128,439,o),
(92,421,cs),
(52,401,o),
(25,368,o),
(25,313,cs),
(25,255,o),
(57,217,o),
(109,195,cs),
(155,175,o),
(202,170,o),
(275,170,cs),
(552,170,l)
);
},
{
closed = 1;
nodes = (
(438,0,o),
(506,11,o),
(567,26,c),
(540,147,l),
(480,131,o),
(421,123,o),
(370,123,cs),
(316,123,o),
(285,128,o),
(285,150,cs),
(285,157,o),
(288,162,o),
(293,165,cs),
(299,169,o),
(309,170,o),
(325,170,cs),
(339,170,l),
(178,237,l),
(147,216,o),
(108,186,o),
(108,135,cs),
(108,43,o),
(191,0,o),
(344,0,cs)
);
}
);
width = 618;
}
);
unicode = 2613;
},
{
glyphname = sanuktaguru;
layers = (
{
background = {
shapes = (
{
closed = 1;
nodes = (
(618,0,l),
(618,484,l),
(695,484,l),
(695,622,l),
(-7,622,l),
(-7,484,l),
(51,484,l),
(73,435,o),
(92,347,o),
(97,291,c),
(49,241,o),
(32,201,o),
(32,155,cs),
(32,105,o),
(60,61,o),
(130,61,cs),
(207,61,o),
(253,108,o),
(263,203,c),
(441,203,l),
(441,0,l)
);
},
{
closed = 1;
nodes = (
(265,341,l),
(265,375,o),
(250,447,o),
(236,484,c),
(441,484,l),
(441,341,l)
);
},
{
closed = 1;
nodes = (
(386,-8,o),
(415,24,o),
(415,72,cs),
(415,119,o),
(386,151,o),
(334,151,cs),
(281,151,o),
(251,119,o),
(251,72,cs),
(251,24,o),
(281,-8,o),
(334,-8,cs)
);
}
);
};
guides = (
{
position = "{0, 484}";
}
);
layerId = "4FA569E6-2225-4E7A-8719-2BB8460AE18A";
shapes = (
{
closed = 1;
nodes = (
(618,0,l),
(618,484,l),
(695,484,l),
(695,622,l),
(-7,622,l),
(-7,484,l),
(51,484,l),
(73,435,o),
(92,347,o),
(97,291,c),
(49,241,o),
(32,201,o),
(32,155,cs),
(32,105,o),
(60,61,o),
(130,61,cs),
(207,61,o),
(253,108,o),
(263,203,c),
(441,203,l),
(441,0,l)
);
},
{
closed = 1;
nodes = (
(265,341,l),
(265,375,o),
(250,447,o),
(236,484,c),
(441,484,l),
(441,341,l)
);
},
{
closed = 1;
nodes = (
(386,-8,o),
(415,24,o),
(415,72,cs),
(415,119,o),
(386,151,o),
(334,151,cs),
(281,151,o),
(251,119,o),
(251,72,cs),
(251,24,o),
(281,-8,o),
(334,-8,cs)
);
}
);
width = 688;
}
);
unicode = 2614;
},
{
glyphname = saguru;
layers = (
{
background = {
shapes = (
{
closed = 1;
nodes = (
(601,0,l),
(601,484,l),
(678,484,l),
(678,622,l),
(-7,622,l),
(-7,484,l),
(51,484,l),
(73,435,o),
(92,347,o),
(97,285,c),
(49,235,o),
(32,195,o),
(32,146,cs),
(32,95,o),
(60,50,o),
(130,50,cs),
(207,50,o),
(257,100,o),
(263,197,c),
(424,197,l),
(424,0,l)
);
},
{
closed = 1;
nodes = (
(265,335,l),
(265,372,o),
(250,447,o),
(236,484,c),
(424,484,l),
(424,335,l)
);
}
);
};
layerId = "4FA569E6-2225-4E7A-8719-2BB8460AE18A";
shapes = (
{
closed = 1;
nodes = (
(601,0,l),
(601,484,l),
(678,484,l),
(678,622,l),
(-7,622,l),
(-7,484,l),
(51,484,l),
(73,435,o),
(92,347,o),
(97,285,c),
(49,235,o),
(32,195,o),
(32,146,cs),
(32,95,o),
(60,50,o),
(130,50,cs),
(207,50,o),
(257,100,o),
(263,197,c),
(424,197,l),
(424,0,l)
);
},
{
closed = 1;
nodes = (
(265,335,l),
(265,372,o),
(250,447,o),
(236,484,c),
(424,484,l),
(424,335,l)
);
}
);
width = 671;
}
);
unicode = 2616;
},
{
glyphname = haguru;
layers = (
{
anchors = (
{
name = Anchor6;
position = "{347, 0}";
}
);
background = {
shapes = (
{
closed = 1;
nodes = (
(504,0,o),
(575,52,o),
(575,191,cs),
(575,484,l),
(652,484,l),
(652,622,l),
(-7,622,l),
(-7,484,l),
(398,484,l),
(398,203,ls),
(398,172,o),
(395,159,o),
(387,151,cs),
(378,142,o),
(365,139,o),
(343,139,cs),
(283,139,o),
(203,191,o),
(203,246,cs),
(203,274,o),
(221,287,o),
(262,287,cs),
(273,287,o),
(286,286,o),
(295,285,c),
(302,423,l),
(290,425,o),
(273,427,o),
(245,427,cs),
(120,427,o),
(25,378,o),
(25,265,cs),
(25,112,o),
(179,0,o),
(352,0,cs)
);
}
);
};
layerId = "4FA569E6-2225-4E7A-8719-2BB8460AE18A";
shapes = (
{
closed = 1;
nodes = (
(504,0,o),
(575,52,o),
(575,191,cs),
(575,484,l),
(652,484,l),
(652,622,l),
(-7,622,l),
(-7,484,l),
(398,484,l),
(398,203,ls),
(398,172,o),
(395,159,o),
(387,151,cs),
(378,142,o),
(365,139,o),
(343,139,cs),
(283,139,o),
(203,191,o),
(203,246,cs),
(203,274,o),
(221,287,o),
(262,287,cs),
(273,287,o),
(286,286,o),
(295,285,c),
(302,423,l),
(290,425,o),
(273,427,o),
(245,427,cs),
(120,427,o),
(25,378,o),
(25,265,cs),
(25,112,o),
(179,0,o),
(352,0,cs)
);
}
);
width = 645;
}
);
unicode = 2617;
},
{
glyphname = nuktaguru;
layers = (
{
anchors = (
{
name = _Anchor4;
position = "{-283, 0}";
}
);
background = {
shapes = (
{
closed = 1;
nodes = (
(-228,-214,o),
(-197,-182,o),
(-197,-134,cs),
(-197,-87,o),
(-228,-55,o),
(-283,-55,cs),
(-338,-55,o),
(-370,-87,o),
(-370,-134,cs),
(-370,-182,o),
(-338,-214,o),
(-283,-214,cs)
);
}
);
};
layerId = "4FA569E6-2225-4E7A-8719-2BB8460AE18A";
shapes = (
{
closed = 1;
nodes = (
(-228,-214,o),
(-197,-182,o),
(-197,-134,cs),
(-197,-87,o),
(-228,-55,o),
(-283,-55,cs),
(-338,-55,o),
(-370,-87,o),
(-370,-134,cs),
(-370,-182,o),
(-338,-214,o),
(-283,-214,cs)
);
}
);
width = 0;
}
);
unicode = 2620;
},
{
glyphname = aamatraguru;
layers = (
{
anchors = (
{
name = Anchor2;
position = "{230, 622}";
}
);
background = {
shapes = (
{
closed = 1;
nodes = (
(230,242,l),
(230,484,l),
(295,484,l),
(295,622,l),
(-7,622,l),
(-7,484,l),
(53,484,l),
(53,242,l)
);
}
);
};
layerId = "4FA569E6-2225-4E7A-8719-2BB8460AE18A";
shapes = (
{
closed = 1;
nodes = (
(230,242,l),
(230,484,l),
(295,484,l),
(295,622,l),
(-7,622,l),
(-7,484,l),
(53,484,l),
(53,242,l)
);
}
);
width = 288;
}
);
unicode = 2622;
},
{
glyphname = imatraguru;
layers = (
{
background = {
shapes = (
{
closed = 1;
nodes = (
(247,0,l),
(247,484,l),
(324,484,l),
(324,622,l),
(247,622,l),
(247,635,ls),
(247,722,o),
(272,759,o),
(331,759,cs),
(375,759,o),
(397,728,o),
(397,694,cs),
(397,679,o),
(396,669,o),
(394,660,c),
(566,651,l),
(570,668,o),
(572,687,o),
(572,700,cs),
(572,834,o),
(471,896,o),
(329,896,cs),
(161,896,o),
(70,808,o),
(70,644,cs),
(70,622,l),
(-7,622,l),
(-7,484,l),
(70,484,l),
(70,0,l)
);
}
);
};
layerId = "4FA569E6-2225-4E7A-8719-2BB8460AE18A";
shapes = (
{
closed = 1;
nodes = (
(247,0,l),
(247,484,l),
(324,484,l),
(324,622,l),
(247,622,l),
(247,635,ls),
(247,722,o),
(272,759,o),
(331,759,cs),
(375,759,o),
(397,728,o),
(397,694,cs),
(397,679,o),
(396,669,o),
(394,660,c),
(566,651,l),
(570,668,o),
(572,687,o),
(572,700,cs),
(572,834,o),
(471,896,o),
(329,896,cs),
(161,896,o),
(70,808,o),
(70,644,cs),
(70,622,l),
(-7,622,l),
(-7,484,l),
(70,484,l),
(70,0,l)
);
}
);
width = 317;
}
);
unicode = 2623;
},
{
glyphname = iimatraguru;
layers = (
{
background = {
shapes = (
{
closed = 1;
nodes = (
(247,0,l),
(247,484,l),
(324,484,l),
(324,622,l),
(247,622,l),
(247,641,ls),
(247,806,o),
(158,896,o),
(-8,896,cs),
(-153,896,o),
(-255,837,o),
(-255,700,cs),
(-255,687,o),
(-253,668,o),
(-249,651,c),
(-77,660,l),
(-79,669,o),
(-80,679,o),
(-80,694,cs),
(-80,728,o),
(-58,759,o),
(-8,759,cs),
(45,759,o),
(70,722,o),
(70,635,cs),
(70,622,l),
(-7,622,l),
(-7,484,l),
(70,484,l),
(70,0,l)
);
}
);
};
layerId = "4FA569E6-2225-4E7A-8719-2BB8460AE18A";
shapes = (
{
closed = 1;
nodes = (
(247,0,l),
(247,484,l),
(324,484,l),
(324,622,l),
(247,622,l),
(247,641,ls),
(247,806,o),
(158,896,o),
(-8,896,cs),
(-153,896,o),
(-255,837,o),
(-255,700,cs),
(-255,687,o),
(-253,668,o),
(-249,651,c),
(-77,660,l),
(-79,669,o),
(-80,679,o),
(-80,694,cs),
(-80,728,o),
(-58,759,o),
(-8,759,cs),
(45,759,o),
(70,722,o),
(70,635,cs),
(70,622,l),
(-7,622,l),
(-7,484,l),
(70,484,l),
(70,0,l)
);
}
);
width = 317;
}
);
unicode = 2624;
},
{
glyphname = umatraguru;
layers = (
{
anchors = (
{
name = _Anchor4;
position = "{-332, 0}";
}
);
background = {
shapes = (
{
closed = 1;
nodes = (
(-222,-212,o),
(-153,-186,o),
(-101,-159,c),
(-146,-40,l),
(-194,-65,o),
(-252,-82,o),
(-332,-82,cs),
(-412,-82,o),
(-470,-65,o),
(-517,-40,c),
(-562,-159,l),
(-510,-186,o),
(-438,-212,o),
(-332,-212,cs)
);
}
);
};
guides = (
{
angle = 90;
position = "{-562, 0}";
},
{
angle = 90;
position = "{-101, 0}";
}
);
layerId = "4FA569E6-2225-4E7A-8719-2BB8460AE18A";
shapes = (
{
closed = 1;
nodes = (
(-222,-212,o),
(-153,-186,o),
(-101,-159,c),
(-146,-40,l),
(-194,-65,o),
(-252,-82,o),
(-332,-82,cs),
(-412,-82,o),
(-470,-65,o),
(-517,-40,c),
(-562,-159,l),
(-510,-186,o),
(-438,-212,o),
(-332,-212,cs)
);
}
);
width = 0;
}
);
unicode = 2625;
},
{
glyphname = uumatraguru;
layers = (
{
anchors = (
{
name = _Anchor4;
position = "{-332, 0}";
}
);
background = {
shapes = (
{
closed = 1;
nodes = (
(-248,-172,o),
(-167,-149,o),
(-104,-115,c),
(-143,-19,l),
(-199,-48,o),
(-265,-63,o),
(-333,-63,cs),
(-398,-63,o),
(-466,-48,o),
(-520,-19,c),
(-559,-115,l),
(-499,-148,o),
(-421,-172,o),
(-336,-172,cs)
);
},
{
closed = 1;
nodes = (
(-250,-319,o),
(-164,-302,o),
(-104,-268,c),
(-140,-172,l),
(-200,-200,o),
(-258,-210,o),
(-332,-210,cs),
(-403,-210,o),
(-460,-199,o),
(-521,-172,c),
(-559,-268,l),
(-500,-301,o),
(-418,-319,o),
(-336,-319,cs)
);
}
);
};
layerId = "4FA569E6-2225-4E7A-8719-2BB8460AE18A";
shapes = (
{
closed = 1;
nodes = (
(-248,-172,o),
(-167,-149,o),
(-104,-115,c),
(-143,-19,l),
(-199,-48,o),
(-265,-63,o),
(-333,-63,cs),
(-398,-63,o),
(-466,-48,o),
(-520,-19,c),
(-559,-115,l),
(-499,-148,o),
(-421,-172,o),
(-336,-172,cs)
);
},
{
closed = 1;
nodes = (
(-250,-319,o),
(-164,-302,o),
(-104,-268,c),
(-140,-172,l),
(-200,-200,o),
(-258,-210,o),
(-332,-210,cs),
(-403,-210,o),
(-460,-199,o),
(-521,-172,c),
(-559,-268,l),
(-500,-301,o),
(-418,-319,o),
(-336,-319,cs)
);
}
);
width = 0;
}
);
unicode = 2626;
},
{
glyphname = eematraguru;
layers = (
{
anchors = (
{
name = _Anchor2;
position = "{-70, 622}";
}
);
background = {
shapes = (
{
closed = 1;
nodes = (
(-81,615,l),
(-132,828,o),
(-244,896,o),
(-394,896,cs),
(-412,896,o),
(-430,895,o),
(-442,894,c),
(-433,744,l),
(-425,745,o),
(-415,746,o),
(-405,746,cs),
(-329,746,o),
(-277,708,o),
(-246,615,c)
);
}
);
};
layerId = "4FA569E6-2225-4E7A-8719-2BB8460AE18A";
shapes = (
{
closed = 1;
nodes = (
(-81,615,l),
(-132,828,o),
(-244,896,o),
(-394,896,cs),
(-412,896,o),
(-430,895,o),
(-442,894,c),
(-433,744,l),
(-425,745,o),
(-415,746,o),
(-405,746,cs),
(-329,746,o),
(-277,708,o),
(-246,615,c)
);
}
);
width = 0;
}
);
unicode = 2631;
},
{
glyphname = aimatraguru;
layers = (
{
anchors = (
{
name = _Anchor2;
position = "{-70, 622}";
}
);
background = {
shapes = (
{
closed = 1;
nodes = (
(-63,615,l),
(-88,810,o),
(-181,896,o),
(-346,896,cs),
(-367,896,o),
(-382,896,o),
(-388,896,c),
(-384,783,l),
(-375,783,o),
(-365,783,o),
(-360,783,cs),
(-270,783,o),
(-203,737,o),
(-169,610,c)
);
},
{
closed = 1;
nodes = (
(-143,594,l),
(-215,730,o),
(-302,761,o),
(-410,761,cs),
(-422,761,o),
(-429,760,o),
(-440,759,c),
(-434,651,l),
(-425,652,o),
(-418,652,o),
(-407,652,cs),
(-326,652,o),
(-263,638,o),
(-205,563,c)
);
}
);
};
layerId = "4FA569E6-2225-4E7A-8719-2BB8460AE18A";
shapes = (
{
closed = 1;
nodes = (
(-63,615,l),
(-88,810,o),
(-181,896,o),
(-346,896,cs),
(-367,896,o),
(-382,896,o),
(-388,896,c),
(-384,783,l),
(-375,783,o),
(-365,783,o),
(-360,783,cs),
(-270,783,o),
(-203,737,o),
(-169,610,c)
);
},
{
closed = 1;
nodes = (
(-143,594,l),
(-215,730,o),
(-302,761,o),
(-410,761,cs),
(-422,761,o),
(-429,760,o),
(-440,759,c),
(-434,651,l),
(-425,652,o),
(-418,652,o),
(-407,652,cs),
(-326,652,o),
(-263,638,o),
(-205,563,c)
);
}
);
width = 0;
}
);
unicode = 2632;
},
{
glyphname = oomatraguru;
layers = (
{
anchors = (
{
name = _Anchor2;
position = "{-70, 622}";
}
);
background = {
shapes = (
{
closed = 1;
nodes = (
(-79,615,l),
(-79,758,o),
(-132,837,o),
(-248,837,cs),
(-287,837,o),
(-309,832,o),
(-336,832,cs),
(-366,832,o),
(-379,847,o),
(-393,896,c),
(-540,855,l),
(-510,734,o),
(-462,690,o),
(-374,690,cs),
(-344,690,o),
(-316,694,o),
(-293,694,cs),
(-260,694,o),
(-246,679,o),
(-239,615,c)
);
}
);
};
layerId = "4FA569E6-2225-4E7A-8719-2BB8460AE18A";
shapes = (
{
closed = 1;
nodes = (
(-79,615,l),
(-79,758,o),
(-132,837,o),
(-248,837,cs),
(-287,837,o),
(-309,832,o),
(-336,832,cs),
(-366,832,o),
(-379,847,o),
(-393,896,c),
(-540,855,l),
(-510,734,o),
(-462,690,o),
(-374,690,cs),
(-344,690,o),
(-316,694,o),
(-293,694,cs),
(-260,694,o),
(-246,679,o),
(-239,615,c)
);
}
);
width = 0;
}
);
unicode = 2635;
},
{
glyphname = aumatraguru;
layers = (
{
anchors = (
{
name = _Anchor2;
position = "{-70, 622}";
}
);
background = {
shapes = (
{
closed = 1;
nodes = (
(-179,682,l),
(-187,701,o),
(-192,717,o),
(-192,734,cs),
(-192,760,o),
(-175,773,o),
(-153,773,cs),
(-131,773,o),
(-117,759,o),
(-117,734,cs),
(-117,717,o),
(-122,701,o),
(-130,682,c),
(9,659,l),
(23,691,o),
(29,722,o),
(29,754,cs),
(29,834,o),
(-37,888,o),
(-149,888,cs),
(-271,888,o),
(-338,835,o),
(-338,754,cs),
(-338,720,o),
(-329,684,o),
(-317,659,c)
);
},
{
closed = 1;
nodes = (
(-310,740,o),
(-273,751,o),
(-245,766,c),
(-265,865,l),
(-285,854,o),
(-295,852,o),
(-312,852,cs),
(-336,852,o),
(-354,858,o),
(-368,896,c),
(-510,856,l),
(-481,769,o),
(-435,740,o),
(-338,740,cs)
);
}
);
};
layerId = "4FA569E6-2225-4E7A-8719-2BB8460AE18A";
shapes = (
{
closed = 1;
nodes = (
(-179,682,l),
(-187,701,o),
(-192,717,o),
(-192,734,cs),
(-192,760,o),
(-175,773,o),
(-153,773,cs),
(-131,773,o),
(-117,759,o),
(-117,734,cs),
(-117,717,o),
(-122,701,o),
(-130,682,c),
(9,659,l),
(23,691,o),
(29,722,o),
(29,754,cs),
(29,834,o),
(-37,888,o),
(-149,888,cs),
(-271,888,o),
(-338,835,o),
(-338,754,cs),
(-338,720,o),
(-329,684,o),
(-317,659,c)
);
},
{
closed = 1;
nodes = (
(-310,740,o),
(-273,751,o),
(-245,766,c),
(-265,865,l),
(-285,854,o),
(-295,852,o),
(-312,852,cs),
(-336,852,o),
(-354,858,o),
(-368,896,c),
(-510,856,l),
(-481,769,o),
(-435,740,o),
(-338,740,cs)
);
}
);
width = 0;
}
);
unicode = 2636;
},
{
glyphname = halantguru;
layers = (
{
background = {
shapes = (
{
closed = 1;
nodes = (
(73,-228,l),
(21,-101,o),
(-57,-17,o),
(-219,-17,cs),
(-229,-17,o),
(-244,-18,o),
(-259,-19,c),
(-250,-168,l),
(-241,-167,o),
(-233,-167,o),
(-226,-167,cs),
(-161,-167,o),
(-115,-185,o),
(-70,-271,c)
);
}
);
};
layerId = "4FA569E6-2225-4E7A-8719-2BB8460AE18A";
shapes = (
{
closed = 1;
nodes = (
(73,-228,l),
(21,-101,o),
(-57,-17,o),
(-219,-17,cs),
(-229,-17,o),
(-244,-18,o),
(-259,-19,c),
(-250,-168,l),
(-241,-167,o),
(-233,-167,o),
(-226,-167,cs),
(-161,-167,o),
(-115,-185,o),
(-70,-271,c)
);
}
);
width = 0;
}
);
unicode = 2637;
},
{
glyphname = udaatguru;
layers = (
{
anchors = (
{
name = _Anchor6;
position = "{-247, 0}";
}
);
background = {
shapes = (
{
closed = 1;
nodes = (
(105,-173,l),
(98,-174,o),
(91,-174,o),
(84,-174,cs),
(7,-174,o),
(-45,-152,o),
(-84,-24,c),
(-236,-69,l),
(-185,-254,o),
(-80,-324,o),
(67,-324,cs),
(79,-324,o),
(86,-323,o),
(93,-322,c)
);
}
);
};
layerId = "4FA569E6-2225-4E7A-8719-2BB8460AE18A";
shapes = (
{
closed = 1;
nodes = (
(105,-173,l),
(98,-174,o),
(91,-174,o),
(84,-174,cs),
(7,-174,o),
(-45,-152,o),
(-84,-24,c),
(-236,-69,l),
(-185,-254,o),
(-80,-324,o),
(67,-324,cs),
(79,-324,o),
(86,-323,o),
(93,-322,c)
);
}
);
width = 0;
}
);
unicode = 2641;
},
{
glyphname = januktaguru;
layers = (
{
background = {
shapes = (
{
closed = 1;
nodes = (
(265,0,l),
(265,223,l),
(473,223,l),
(473,0,l),
(650,0,l),
(650,484,l),
(727,484,l),
(727,622,l),
(-7,622,l),
(-7,484,l),
(473,484,l),
(473,361,l),
(263,361,l),
(263,363,ls),
(263,402,o),
(241,432,o),
(184,432,cs),
(104,432,o),
(17,348,o),
(17,284,cs),
(17,241,o),
(44,221,o),
(84,221,cs),
(88,221,l),
(88,0,l)
);
},
{
closed = 1;
nodes = (
(422,-8,o),
(451,24,o),
(451,72,cs),
(451,119,o),
(422,151,o),
(370,151,cs),
(317,151,o),
(287,119,o),
(287,72,cs),
(287,24,o),
(317,-8,o),
(370,-8,cs)
);
}
);
};
layerId = "4FA569E6-2225-4E7A-8719-2BB8460AE18A";
shapes = (
{
closed = 1;
nodes = (
(265,0,l),
(265,223,l),
(473,223,l),
(473,0,l),
(650,0,l),
(650,484,l),
(727,484,l),
(727,622,l),
(-7,622,l),
(-7,484,l),
(473,484,l),
(473,361,l),
(263,361,l),
(263,363,ls),
(263,402,o),
(241,432,o),
(184,432,cs),
(104,432,o),
(17,348,o),
(17,284,cs),
(17,241,o),
(44,221,o),
(84,221,cs),
(88,221,l),
(88,0,l)
);
},
{
closed = 1;
nodes = (
(422,-8,o),
(451,24,o),
(451,72,cs),
(451,119,o),
(422,151,o),
(370,151,cs),
(317,151,o),
(287,119,o),
(287,72,cs),
(287,24,o),
(317,-8,o),
(370,-8,cs)
);
}
);
width = 720;
}
);
unicode = 2651;
},
{
glyphname = rraguru;
layers = (
{
anchors = (
{
name = Anchor2;
position = "{574, 622}";
},
{
name = Anchor6;
position = "{371, 0}";
}
);
background = {
shapes = (
{
closed = 1;
nodes = (
(502,58,o),
(607,109,o),
(607,222,cs),
(607,287,o),
(569,330,o),
(514,359,c),
(573,389,o),
(583,438,o),
(583,475,cs),
(583,496,o),
(580,517,o),
(571,536,c),
(515,484,l),
(643,484,l),
(643,622,l),
(-7,622,l),
(-7,484,l),
(454,484,l),
(397,526,l),
(404,517,o),
(407,502,o),
(407,489,cs),
(407,456,o),
(391,434,o),
(357,425,c),
(311,441,o),
(266,447,o),
(228,447,cs),
(144,447,o),
(102,411,o),
(102,358,cs),
(102,305,o),
(139,266,o),
(242,266,cs),
(290,266,o),
(337,273,o),
(373,287,c),
(412,277,o),
(429,263,o),
(429,241,cs),
(429,209,o),
(394,196,o),
(306,196,cs),
(210,196,o),
(142,216,o),
(81,242,c),
(14,130,l),
(174,84,l),
(223,68,o),
(268,58,o),
(316,58,cs)
);
},
{
closed = 1;
nodes = (
(262,18,l),
(222,92,o),
(170,150,o),
(125,183,c),
(14,130,l),
(56,73,o),
(80,34,o),
(114,-35,c)
);
},
{
closed = 1;
nodes = (
(571,20,l),
(536,70,o),
(503,102,o),
(461,136,c),
(408,100,l),
(309,104,l),
(352,56,o),
(375,26,o),
(411,-35,c)
);
}
);
};
layerId = "4FA569E6-2225-4E7A-8719-2BB8460AE18A";
shapes = (
{
closed = 1;
nodes = (
(502,58,o),
(607,109,o),
(607,222,cs),
(607,287,o),
(569,330,o),
(514,359,c),
(573,389,o),
(583,438,o),
(583,475,cs),
(583,496,o),
(580,517,o),
(571,536,c),
(515,484,l),
(643,484,l),
(643,622,l),
(-7,622,l),
(-7,484,l),
(454,484,l),
(397,526,l),
(404,517,o),
(407,502,o),
(407,489,cs),
(407,456,o),
(391,434,o),
(357,425,c),
(311,441,o),
(266,447,o),
(228,447,cs),
(144,447,o),
(102,411,o),
(102,358,cs),
(102,305,o),
(139,266,o),
(242,266,cs),
(290,266,o),
(337,273,o),
(373,287,c),
(412,277,o),
(429,263,o),
(429,241,cs),
(429,209,o),
(394,196,o),
(306,196,cs),
(210,196,o),
(142,216,o),
(81,242,c),
(14,130,l),
(174,84,l),
(223,68,o),
(268,58,o),
(316,58,cs)
);
},
{
closed = 1;
nodes = (
(262,18,l),
(222,92,o),
(170,150,o),
(125,183,c),
(14,130,l),
(56,73,o),
(80,34,o),
(114,-35,c)
);
},
{
closed = 1;
nodes = (
(571,20,l),
(536,70,o),
(503,102,o),
(461,136,c),
(408,100,l),
(309,104,l),
(352,56,o),
(375,26,o),
(411,-35,c)
);
}
);
width = 636;
}
);
unicode = 2652;
},
{
glyphname = zeroguru;
layers = (
{
background = {
shapes = (
{
closed = 1;
nodes = (
(467,62,o),
(568,157,o),
(568,315,cs),
(568,474,o),
(463,569,o),
(299,569,cs),
(140,569,o),
(30,475,o),
(30,316,cs),
(30,157,o),
(131,62,o),
(300,62,cs)
);
},
{
closed = 1;
nodes = (
(241,202,o),
(209,238,o),
(209,314,cs),
(209,390,o),
(240,429,o),
(300,429,cs),
(356,429,o),
(389,393,o),
(389,317,cs),
(389,241,o),
(359,202,o),
(298,202,cs)
);
}
);
};
layerId = "4FA569E6-2225-4E7A-8719-2BB8460AE18A";
shapes = (
{
closed = 1;
nodes = (
(467,62,o),
(568,157,o),
(568,315,cs),
(568,474,o),
(463,569,o),
(299,569,cs),
(140,569,o),
(30,475,o),
(30,316,cs),
(30,157,o),
(131,62,o),
(300,62,cs)
);
},
{
closed = 1;
nodes = (
(241,202,o),
(209,238,o),
(209,314,cs),
(209,390,o),
(240,429,o),
(300,429,cs),
(356,429,o),
(389,393,o),
(389,317,cs),
(389,241,o),
(359,202,o),
(298,202,cs)
);
}
);
width = 598;
}
);
unicode = 2662;
},
{
glyphname = oneguru;
layers = (
{
background = {
shapes = (
{
closed = 1;
nodes = (
(560,133,l),
(513,135,o),
(507,150,o),
(507,205,cs),
(507,399,ls),
(507,509,o),
(475,554,o),
(432,586,cs),
(394,614,o),
(339,632,o),
(270,632,cs),
(105,632,o),
(37,536,o),
(37,443,cs),
(37,320,o),
(109,254,o),
(245,254,cs),
(311,254,o),
(355,265,o),
(401,297,c),
(369,435,l),
(333,407,o),
(315,393,o),
(270,393,cs),
(229,393,o),
(212,411,o),
(212,442,cs),
(212,472,o),
(233,493,o),
(269,493,cs),
(291,493,o),
(307,486,o),
(317,473,cs),
(328,459,o),
(330,440,o),
(330,414,cs),
(330,178,ls),
(330,104,o),
(345,67,o),
(372,40,cs),
(407,4,o),
(464,-9,o),
(539,-9,c)
);
}
);
};
layerId = "4FA569E6-2225-4E7A-8719-2BB8460AE18A";
shapes = (
{
closed = 1;
nodes = (
(560,133,l),
(513,135,o),
(507,150,o),
(507,205,cs),
(507,399,ls),
(507,509,o),
(475,554,o),
(432,586,cs),
(394,614,o),
(339,632,o),
(270,632,cs),
(105,632,o),
(37,536,o),
(37,443,cs),
(37,320,o),
(109,254,o),
(245,254,cs),
(311,254,o),
(355,265,o),
(401,297,c),
(369,435,l),
(333,407,o),
(315,393,o),
(270,393,cs),
(229,393,o),
(212,411,o),
(212,442,cs),
(212,472,o),
(233,493,o),
(269,493,cs),
(291,493,o),
(307,486,o),
(317,473,cs),
(328,459,o),
(330,440,o),
(330,414,cs),
(330,178,ls),
(330,104,o),
(345,67,o),
(372,40,cs),
(407,4,o),
(464,-9,o),
(539,-9,c)
);
}
);
width = 598;
}
);
unicode = 2663;
},
{
glyphname = twoguru;
layers = (
{
background = {
shapes = (
{
closed = 1;
nodes = (
(392,127,o),
(530,219,o),
(530,396,cs),
(530,537,o),
(441,632,o),
(258,632,cs),
(173,632,o),
(103,618,o),
(34,593,c),
(88,462,l),
(143,483,o),
(187,492,o),
(233,492,cs),
(309,492,o),
(352,458,o),
(352,388,cs),
(352,315,o),
(300,267,o),
(182,246,c),
(233,232,l),
(300,261,l),
(248,301,o),
(206,319,o),
(154,319,cs),
(85,319,o),
(47,283,o),
(47,232,cs),
(47,157,o),
(107,127,o),
(221,127,cs)
);
},
{
closed = 1;
nodes = (
(545,75,l),
(483,136,o),
(395,197,o),
(322,237,c),
(254,218,l),
(141,191,l),
(258,123,o),
(344,54,o),
(429,-32,c)
);
}
);
};
layerId = "4FA569E6-2225-4E7A-8719-2BB8460AE18A";
shapes = (
{
closed = 1;
nodes = (
(392,127,o),
(530,219,o),
(530,396,cs),
(530,537,o),
(441,632,o),
(258,632,cs),
(173,632,o),
(103,618,o),
(34,593,c),
(88,462,l),
(143,483,o),
(187,492,o),
(233,492,cs),
(309,492,o),
(352,458,o),
(352,388,cs),
(352,315,o),
(300,267,o),
(182,246,c),
(233,232,l),
(300,261,l),
(248,301,o),
(206,319,o),
(154,319,cs),
(85,319,o),
(47,283,o),
(47,232,cs),
(47,157,o),
(107,127,o),
(221,127,cs)
);
},
{
closed = 1;
nodes = (
(545,75,l),
(483,136,o),
(395,197,o),
(322,237,c),
(254,218,l),
(141,191,l),
(258,123,o),
(344,54,o),
(429,-32,c)
);
}
);
width = 598;
}
);
unicode = 2664;
},
{
glyphname = threeguru;
layers = (
{
background = {
shapes = (
{
closed = 1;
nodes = (
(526,7,l),
(477,55,o),
(387,113,o),
(311,154,c),
(173,92,l),
(264,33,o),
(326,-17,o),
(410,-100,c)
);
},
{
closed = 1;
nodes = (
(400,317,l),
(483,350,o),
(538,390,o),
(538,468,cs),
(538,575,o),
(446,630,o),
(276,630,cs),
(194,630,o),
(110,618,o),
(33,592,c),
(86,461,l),
(154,483,o),
(211,492,o),
(270,492,cs),
(339,492,o),
(359,478,o),
(359,455,cs),
(359,428,o),
(337,412,o),
(283,403,c),
(382,385,l),
(320,419,o),
(270,435,o),
(205,435,cs),
(133,435,o),
(82,413,o),
(82,356,cs),
(82,295,o),
(128,268,o),
(207,268,cs),
(259,268,o),
(320,278,o),
(363,298,c),
(270,286,l),
(336,283,o),
(361,263,o),
(361,233,cs),
(361,202,o),
(323,176,o),
(235,176,c),
(320,161,l),
(247,209,o),
(197,230,o),
(137,230,cs),
(74,230,o),
(37,199,o),
(37,149,cs),
(37,82,o),
(88,49,o),
(235,49,cs),
(431,49,o),
(542,103,o),
(542,221,cs),
(542,297,o),
(494,344,o),
(393,380,c)
);
}
);
};
layerId = "4FA569E6-2225-4E7A-8719-2BB8460AE18A";
shapes = (
{
closed = 1;
nodes = (
(526,7,l),
(477,55,o),
(387,113,o),
(311,154,c),
(173,92,l),
(264,33,o),
(326,-17,o),
(410,-100,c)
);
},
{
closed = 1;
nodes = (
(400,317,l),
(483,350,o),
(538,390,o),
(538,468,cs),
(538,575,o),
(446,630,o),
(276,630,cs),
(194,630,o),
(110,618,o),
(33,592,c),
(86,461,l),
(154,483,o),
(211,492,o),
(270,492,cs),
(339,492,o),
(359,478,o),
(359,455,cs),
(359,428,o),
(337,412,o),
(283,403,c),
(382,385,l),
(320,419,o),
(270,435,o),
(205,435,cs),
(133,435,o),
(82,413,o),
(82,356,cs),
(82,295,o),
(128,268,o),
(207,268,cs),
(259,268,o),
(320,278,o),
(363,298,c),
(270,286,l),
(336,283,o),
(361,263,o),
(361,233,cs),
(361,202,o),
(323,176,o),
(235,176,c),
(320,161,l),
(247,209,o),
(197,230,o),
(137,230,cs),
(74,230,o),
(37,199,o),
(37,149,cs),
(37,82,o),
(88,49,o),
(235,49,cs),
(431,49,o),
(542,103,o),
(542,221,cs),
(542,297,o),
(494,344,o),
(393,380,c)
);
}
);
width = 598;
}
);
unicode = 2665;
},
{
glyphname = fourguru;
layers = (
{
background = {
shapes = (
{
closed = 1;
nodes = (
(455,251,o),
(562,326,o),
(562,451,cs),
(562,534,o),
(503,614,o),
(352,630,c),
(333,487,l),
(369,479,o),
(386,459,o),
(386,431,cs),
(386,387,o),
(353,366,o),
(299,366,cs),
(247,366,o),
(212,387,o),
(212,431,cs),
(212,459,o),
(229,479,o),
(265,487,c),
(245,630,l),
(93,614,o),
(36,534,o),
(36,447,cs),
(36,326,o),
(147,251,o),
(298,251,cs)
);
},
{
closed = 1;
nodes = (
(462,-10,o),
(545,61,o),
(545,174,cs),
(545,281,o),
(440,350,o),
(299,350,cs),
(163,350,o),
(53,287,o),
(53,172,cs),
(53,61,o),
(135,-10,o),
(300,-10,cs)
);
},
{
closed = 1;
nodes = (
(257,124,o),
(229,140,o),
(229,181,cs),
(229,222,o),
(259,238,o),
(297,238,cs),
(341,238,o),
(369,222,o),
(369,181,cs),
(369,140,o),
(339,124,o),
(297,124,cs)
);
}
);
};
layerId = "4FA569E6-2225-4E7A-8719-2BB8460AE18A";
shapes = (
{
closed = 1;
nodes = (
(455,251,o),
(562,326,o),
(562,451,cs),
(562,534,o),
(503,614,o),
(352,630,c),
(333,487,l),
(369,479,o),
(386,459,o),
(386,431,cs),
(386,387,o),
(353,366,o),
(299,366,cs),
(247,366,o),
(212,387,o),
(212,431,cs),
(212,459,o),
(229,479,o),
(265,487,c),
(245,630,l),
(93,614,o),
(36,534,o),
(36,447,cs),
(36,326,o),
(147,251,o),
(298,251,cs)
);
},
{
closed = 1;
nodes = (
(462,-10,o),
(545,61,o),
(545,174,cs),
(545,281,o),
(440,350,o),
(299,350,cs),
(163,350,o),
(53,287,o),
(53,172,cs),
(53,61,o),
(135,-10,o),
(300,-10,cs)
);
},
{
closed = 1;
nodes = (
(257,124,o),
(229,140,o),
(229,181,cs),
(229,222,o),
(259,238,o),
(297,238,cs),
(341,238,o),
(369,222,o),
(369,181,cs),
(369,140,o),
(339,124,o),
(297,124,cs)
);
}
);
width = 598;
}
);
unicode = 2666;
},
{
glyphname = fiveguru;
layers = (
{
background = {
shapes = (
{
closed = 1;
nodes = (
(544,0,l),
(544,622,l),
(367,622,l),
(367,240,l),
(418,304,l),
(377,282,o),
(350,276,o),
(315,276,cs),
(250,276,o),
(220,320,o),
(193,390,c),
(176,298,l),
(238,345,o),
(264,402,o),
(264,470,cs),
(264,526,o),
(246,576,o),
(216,632,c),
(51,575,l),
(77,531,o),
(87,499,o),
(87,457,cs),
(87,413,o),
(64,379,o),
(19,350,c),
(87,191,o),
(182,137,o),
(309,137,cs),
(369,137,o),
(413,148,o),
(465,178,c),
(367,199,l),
(367,0,l)
);
}
);
};
layerId = "4FA569E6-2225-4E7A-8719-2BB8460AE18A";
shapes = (
{
closed = 1;
nodes = (
(544,0,l),
(544,622,l),
(367,622,l),
(367,240,l),
(418,304,l),
(377,282,o),
(350,276,o),
(315,276,cs),
(250,276,o),
(220,320,o),
(193,390,c),
(176,298,l),
(238,345,o),
(264,402,o),
(264,470,cs),
(264,526,o),
(246,576,o),
(216,632,c),
(51,575,l),
(77,531,o),
(87,499,o),
(87,457,cs),
(87,413,o),
(64,379,o),
(19,350,c),
(87,191,o),
(182,137,o),
(309,137,cs),
(369,137,o),
(413,148,o),
(465,178,c),
(367,199,l),
(367,0,l)
);
}
);
width = 598;
}
);
unicode = 2667;
},
{
glyphname = sixguru;
layers = (
{
background = {
shapes = (
{
closed = 1;
nodes = (
(504,539,l),
(478,570,o),
(466,597,o),
(466,623,cs),
(466,653,o),
(486,665,o),
(514,665,cs),
(527,665,o),
(539,664,o),
(551,661,c),
(570,789,l),
(547,793,o),
(524,795,o),
(493,795,cs),
(390,795,o),
(311,747,o),
(311,651,cs),
(311,600,o),
(326,564,o),
(371,511,c)
);
},
{
closed = 1;
nodes = (
(519,161,l),
(458,140,o),
(411,129,o),
(335,129,cs),
(274,129,o),
(236,141,o),
(236,174,cs),
(236,207,o),
(272,222,o),
(344,229,c),
(218,247,l),
(272,216,o),
(334,198,o),
(389,198,cs),
(477,198,o),
(521,221,o),
(521,281,cs),
(521,339,o),
(476,365,o),
(385,365,cs),
(330,365,o),
(266,347,o),
(222,328,c),
(314,348,l),
(266,355,o),
(235,371,o),
(235,402,cs),
(235,434,o),
(281,450,o),
(352,450,cs),
(392,450,o),
(412,449,o),
(446,445,c),
(341,500,l),
(366,436,o),
(412,410,o),
(473,410,cs),
(534,410,o),
(566,441,o),
(566,489,cs),
(566,550,o),
(506,585,o),
(357,585,cs),
(177,585,o),
(57,533,o),
(57,416,cs),
(57,334,o),
(115,291,o),
(195,256,c),
(209,324,l),
(138,303,o),
(59,251,o),
(59,164,cs),
(59,41,o),
(158,-9,o),
(324,-9,cs),
(421,-9,o),
(490,2,o),
(572,27,c)
);
}
);
};
layerId = "4FA569E6-2225-4E7A-8719-2BB8460AE18A";
shapes = (
{
closed = 1;
nodes = (
(504,539,l),
(478,570,o),
(466,597,o),
(466,623,cs),
(466,653,o),
(486,665,o),
(514,665,cs),
(527,665,o),
(539,664,o),
(551,661,c),
(570,789,l),
(547,793,o),
(524,795,o),
(493,795,cs),
(390,795,o),
(311,747,o),
(311,651,cs),
(311,600,o),
(326,564,o),
(371,511,c)
);
},
{
closed = 1;
nodes = (
(519,161,l),
(458,140,o),
(411,129,o),
(335,129,cs),
(274,129,o),
(236,141,o),
(236,174,cs),
(236,207,o),
(272,222,o),
(344,229,c),
(218,247,l),
(272,216,o),
(334,198,o),
(389,198,cs),
(477,198,o),
(521,221,o),
(521,281,cs),
(521,339,o),
(476,365,o),
(385,365,cs),
(330,365,o),
(266,347,o),
(222,328,c),
(314,348,l),
(266,355,o),
(235,371,o),
(235,402,cs),
(235,434,o),
(281,450,o),
(352,450,cs),
(392,450,o),
(412,449,o),
(446,445,c),
(341,500,l),
(366,436,o),
(412,410,o),
(473,410,cs),
(534,410,o),
(566,441,o),
(566,489,cs),
(566,550,o),
(506,585,o),
(357,585,cs),
(177,585,o),
(57,533,o),
(57,416,cs),
(57,334,o),
(115,291,o),
(195,256,c),
(209,324,l),
(138,303,o),
(59,251,o),
(59,164,cs),
(59,41,o),
(158,-9,o),
(324,-9,cs),
(421,-9,o),
(490,2,o),
(572,27,c)
);
}
);
width = 598;
}
);
unicode = 2668;
},
{
glyphname = sevenguru;
layers = (
{
background = {
shapes = (
{
closed = 1;
nodes = (
(39,-9,l),
(366,13,o),
(560,146,o),
(560,370,cs),
(560,532,o),
(455,632,o),
(291,632,cs),
(131,632,o),
(46,557,o),
(46,456,cs),
(46,395,o),
(72,343,o),
(118,290,c),
(256,365,l),
(236,389,o),
(223,410,o),
(223,434,cs),
(223,468,o),
(241,493,o),
(282,493,cs),
(345,493,o),
(380,439,o),
(380,366,cs),
(380,236,o),
(248,159,o),
(23,137,c)
);
}
);
};
layerId = "4FA569E6-2225-4E7A-8719-2BB8460AE18A";
shapes = (
{
closed = 1;
nodes = (
(39,-9,l),
(366,13,o),
(560,146,o),
(560,370,cs),
(560,532,o),
(455,632,o),
(291,632,cs),
(131,632,o),
(46,557,o),
(46,456,cs),
(46,395,o),
(72,343,o),
(118,290,c),
(256,365,l),
(236,389,o),
(223,410,o),
(223,434,cs),
(223,468,o),
(241,493,o),
(282,493,cs),
(345,493,o),
(380,439,o),
(380,366,cs),
(380,236,o),
(248,159,o),
(23,137,c)
);
}
);
width = 598;
}
);
unicode = 2669;
},
{
glyphname = eightguru;
layers = (
{
background = {
shapes = (
{
closed = 1;
nodes = (
(497,0,o),
(528,2,o),
(561,7,c),
(549,148,l),
(522,143,o),
(499,140,o),
(467,140,cs),
(387,140,o),
(345,153,o),
(318,177,cs),
(289,203,o),
(281,243,o),
(281,305,cs),
(281,404,l),
(557,404,l),
(557,542,l),
(279,542,l),
(279,553,ls),
(279,601,o),
(258,632,o),
(205,632,cs),
(109,632,o),
(27,525,o),
(27,465,cs),
(27,424,o),
(52,402,o),
(96,402,cs),
(104,402,l),
(104,312,ls),
(104,202,o),
(125,136,o),
(174,85,cs),
(228,28,o),
(302,0,o),
(459,0,cs)
);
}
);
};
layerId = "4FA569E6-2225-4E7A-8719-2BB8460AE18A";
shapes = (
{
closed = 1;
nodes = (
(497,0,o),
(528,2,o),
(561,7,c),
(549,148,l),
(522,143,o),
(499,140,o),
(467,140,cs),
(387,140,o),
(345,153,o),
(318,177,cs),
(289,203,o),
(281,243,o),
(281,305,cs),
(281,404,l),
(557,404,l),
(557,542,l),
(279,542,l),
(279,553,ls),
(279,601,o),
(258,632,o),
(205,632,cs),
(109,632,o),
(27,525,o),
(27,465,cs),
(27,424,o),
(52,402,o),
(96,402,cs),
(104,402,l),
(104,312,ls),
(104,202,o),
(125,136,o),
(174,85,cs),
(228,28,o),
(302,0,o),
(459,0,cs)
);
}
);
width = 598;
}
);
unicode = 2670;
},
{
glyphname = nineguru;
layers = (
{
background = {
shapes = (
{
closed = 1;
nodes = (
(497,0,o),
(528,2,o),
(561,7,c),
(549,148,l),
(522,143,o),
(499,140,o),
(467,140,cs),
(387,140,o),
(345,153,o),
(318,177,cs),
(289,203,o),
(281,243,o),
(281,305,cs),
(281,404,l),
(557,404,l),
(557,542,l),
(279,542,l),
(279,553,ls),
(279,601,o),
(258,632,o),
(205,632,cs),
(109,632,o),
(27,525,o),
(27,465,cs),
(27,424,o),
(52,402,o),
(96,402,cs),
(104,402,l),
(104,312,ls),
(104,202,o),
(125,136,o),
(174,85,cs),
(228,28,o),
(302,0,o),
(459,0,cs)
);
},
{
closed = 1;
nodes = (
(551,539,l),
(525,570,o),
(513,597,o),
(513,623,cs),
(513,653,o),
(533,665,o),
(561,665,cs),
(574,665,o),
(586,664,o),
(598,661,c),
(617,789,l),
(594,793,o),
(571,795,o),
(540,795,cs),
(437,795,o),
(358,747,o),
(358,651,cs),
(358,600,o),
(373,564,o),
(418,511,c)
);
}
);
};
layerId = "4FA569E6-2225-4E7A-8719-2BB8460AE18A";
shapes = (
{
closed = 1;
nodes = (
(497,0,o),
(528,2,o),
(561,7,c),
(549,148,l),
(522,143,o),
(499,140,o),
(467,140,cs),
(387,140,o),
(345,153,o),
(318,177,cs),
(289,203,o),
(281,243,o),
(281,305,cs),
(281,404,l),
(557,404,l),
(557,542,l),
(279,542,l),
(279,553,ls),
(279,601,o),
(258,632,o),
(205,632,cs),
(109,632,o),
(27,525,o),
(27,465,cs),
(27,424,o),
(52,402,o),
(96,402,cs),
(104,402,l),
(104,312,ls),
(104,202,o),
(125,136,o),
(174,85,cs),
(228,28,o),
(302,0,o),
(459,0,cs)
);
},
{
closed = 1;
nodes = (
(551,539,l),
(525,570,o),
(513,597,o),
(513,623,cs),
(513,653,o),
(533,665,o),
(561,665,cs),
(574,665,o),
(586,664,o),
(598,661,c),
(617,789,l),
(594,793,o),
(571,795,o),
(540,795,cs),
(437,795,o),
(358,747,o),
(358,651,cs),
(358,600,o),
(373,564,o),
(418,511,c)
);
}
);
width = 598;
}
);
unicode = 2671;
},
{
glyphname = tippiguru;
layers = (
{
anchors = (
{
name = _Anchor2;
position = "{-70, 622}";
}
);
background = {
shapes = (
{
closed = 1;
nodes = (
(-185,682,l),
(-193,701,o),
(-198,717,o),
(-198,734,cs),
(-198,759,o),
(-184,773,o),
(-159,773,cs),
(-133,773,o),
(-119,759,o),
(-119,734,cs),
(-119,717,o),
(-124,701,o),
(-132,682,c),
(7,659,l),
(21,691,o),
(27,722,o),
(27,754,cs),
(27,834,o),
(-39,888,o),
(-158,888,cs),
(-278,888,o),
(-344,835,o),
(-344,754,cs),
(-344,722,o),
(-338,691,o),
(-324,659,c)
);
}
);
};
layerId = "4FA569E6-2225-4E7A-8719-2BB8460AE18A";
shapes = (
{
closed = 1;
nodes = (
(-185,682,l),
(-193,701,o),
(-198,717,o),
(-198,734,cs),
(-198,759,o),
(-184,773,o),
(-159,773,cs),
(-133,773,o),
(-119,759,o),
(-119,734,cs),
(-119,717,o),
(-124,701,o),
(-132,682,c),
(7,659,l),
(21,691,o),
(27,722,o),
(27,754,cs),
(27,834,o),
(-39,888,o),
(-158,888,cs),
(-278,888,o),
(-344,835,o),
(-344,754,cs),
(-344,722,o),
(-338,691,o),
(-324,659,c)
);
}
);
width = 0;
}
);
unicode = 2672;
},
{
glyphname = addakguru;
layers = (
{
background = {
shapes = (
{
closed = 1;
nodes = (
(-3,667,o),
(40,750,o),
(40,868,c),
(-108,878,l),
(-109,801,o),
(-125,782,o),
(-151,782,cs),
(-179,782,o),
(-192,798,o),
(-193,878,c),
(-341,868,l),
(-341,750,o),
(-295,667,o),
(-148,667,cs)
);
}
);
};
layerId = "4FA569E6-2225-4E7A-8719-2BB8460AE18A";
shapes = (
{
closed = 1;
nodes = (
(-3,667,o),
(40,750,o),
(40,868,c),
(-108,878,l),
(-109,801,o),
(-125,782,o),
(-151,782,cs),
(-179,782,o),
(-192,798,o),
(-193,878,c),
(-341,868,l),
(-341,750,o),
(-295,667,o),
(-148,667,cs)
);
}
);
width = 0;
}
);
unicode = 2673;
},
{
glyphname = iriguru;
layers = (
{
background = {
shapes = (
{
closed = 1;
nodes = (
(101,61,o),
(210,0,o),
(362,0,cs),
(467,0,o),
(540,18,o),
(605,47,c),
(553,179,l),
(486,151,o),
(440,138,o),
(375,138,cs),
(294,138,o),
(244,164,o),
(196,249,c),
(201,167,l),
(229,201,o),
(257,222,o),
(294,234,cs),
(313,240,o),
(335,244,o),
(373,244,cs),
(512,244,l),
(570,299,l),
(570,484,l),
(643,484,l),
(643,622,l),
(-7,622,l),
(-7,484,l),
(47,484,l),
(47,385,o),
(91,306,o),
(220,284,c),
(235,344,l),
(146,327,o),
(71,277,o),
(28,206,c)
);
},
{
closed = 1;
nodes = (
(314,381,ls),
(284,381,o),
(268,387,o),
(254,397,cs),
(230,414,o),
(225,445,o),
(225,484,c),
(393,484,l),
(393,381,l)
);
}
);
};
layerId = "4FA569E6-2225-4E7A-8719-2BB8460AE18A";
shapes = (
{
closed = 1;
nodes = (
(101,61,o),
(210,0,o),
(362,0,cs),
(467,0,o),
(540,18,o),
(605,47,c),
(553,179,l),
(486,151,o),
(440,138,o),
(375,138,cs),
(294,138,o),
(244,164,o),
(196,249,c),
(201,167,l),
(229,201,o),
(257,222,o),
(294,234,cs),
(313,240,o),
(335,244,o),
(373,244,cs),
(512,244,l),
(570,299,l),
(570,484,l),
(643,484,l),
(643,622,l),
(-7,622,l),
(-7,484,l),
(47,484,l),
(47,385,o),
(91,306,o),
(220,284,c),
(235,344,l),
(146,327,o),
(71,277,o),
(28,206,c)
);
},
{
closed = 1;
nodes = (
(314,381,ls),
(284,381,o),
(268,387,o),
(254,397,cs),
(230,414,o),
(225,445,o),
(225,484,c),
(393,484,l),
(393,381,l)
);
}
);
width = 636;
}
);
unicode = 2674;
},
{
glyphname = uraguru;
layers = (
{
background = {
shapes = (
{
closed = 1;
nodes = (
(564,0,o),
(644,62,o),
(644,170,cs),
(644,245,o),
(591,317,o),
(459,338,c),
(473,277,l),
(634,317,o),
(710,392,o),
(710,550,cs),
(710,773,o),
(569,857,o),
(404,857,cs),
(209,857,o),
(91,749,o),
(52,574,c),
(49,543,l),
(42,505,o),
(39,463,o),
(39,419,cs),
(39,134,o),
(163,0,o),
(391,0,cs)
);
},
{
closed = 1;
nodes = (
(269,138,o),
(216,211,o),
(216,412,cs),
(216,453,o),
(218,493,o),
(223,527,c),
(228,569,l),
(252,664,o),
(306,719,o),
(396,719,cs),
(484,719,o),
(536,654,o),
(536,554,c),
(533,540,l),
(533,470,o),
(514,427,o),
(472,403,cs),
(440,385,o),
(406,378,o),
(320,378,cs),
(151,378,l),
(161,242,l),
(331,242,ls),
(395,242,o),
(421,238,o),
(438,230,cs),
(456,222,o),
(465,208,o),
(465,189,cs),
(465,161,o),
(443,138,o),
(377,138,cs)
);
},
{
closed = 1;
nodes = (
(764,484,l),
(764,622,l),
(-7,622,l),
(-7,484,l)
);
}
);
};
layerId = "4FA569E6-2225-4E7A-8719-2BB8460AE18A";
shapes = (
{
closed = 1;
nodes = (
(564,0,o),
(644,62,o),
(644,170,cs),
(644,245,o),
(591,317,o),
(459,338,c),
(473,277,l),
(634,317,o),
(710,392,o),
(710,550,cs),
(710,773,o),
(569,857,o),
(404,857,cs),
(209,857,o),
(91,749,o),
(52,574,c),
(49,543,l),
(42,505,o),
(39,463,o),
(39,419,cs),
(39,134,o),
(163,0,o),
(391,0,cs)
);
},
{
closed = 1;
nodes = (
(269,138,o),
(216,211,o),
(216,412,cs),
(216,453,o),
(218,493,o),
(223,527,c),
(228,569,l),
(252,664,o),
(306,719,o),
(396,719,cs),
(484,719,o),
(536,654,o),
(536,554,c),
(533,540,l),
(533,470,o),
(514,427,o),
(472,403,cs),
(440,385,o),
(406,378,o),
(320,378,cs),
(151,378,l),
(161,242,l),
(331,242,ls),
(395,242,o),
(421,238,o),
(438,230,cs),
(456,222,o),
(465,208,o),
(465,189,cs),
(465,161,o),
(443,138,o),
(377,138,cs)
);
},
{
closed = 1;
nodes = (
(764,484,l),
(764,622,l),
(-7,622,l),
(-7,484,l)
);
}
);
width = 723;
}
);
unicode = 2675;
},
{
glyphname = ekonkarguru;
layers = (
{
background = {
shapes = (
{
closed = 1;
nodes = (
(1131,0,o),
(1211,62,o),
(1211,170,cs),
(1211,245,o),
(1158,317,o),
(1026,338,c),
(1040,277,l),
(1201,317,o),
(1277,392,o),
(1277,550,cs),
(1277,569,l),
(1100,554,l),
(1100,540,ls),
(1100,470,o),
(1081,427,o),
(1039,403,cs),
(1007,385,o),
(973,378,o),
(887,378,cs),
(718,378,l),
(728,242,l),
(898,242,ls),
(962,242,o),
(988,238,o),
(1005,230,cs),
(1023,222,o),
(1032,208,o),
(1032,189,cs),
(1032,161,o),
(1010,138,o),
(944,138,cs),
(836,138,o),
(783,211,o),
(783,412,cs),
(783,453,o),
(785,493,o),
(790,527,c),
(795,569,l),
(819,664,o),
(873,719,o),
(965,719,cs),
(1025,719,o),
(1068,697,o),
(1094,659,c),
(1245,674,l),
(1282,720,o),
(1324,745,o),
(1381,745,cs),
(1436,745,o),
(1482,725,o),
(1512,653,c),
(1695,675,l),
(1656,816,o),
(1554,884,o),
(1403,884,cs),
(1263,884,o),
(1178,828,o),
(1117,731,c),
(1228,738,l),
(1182,803,o),
(1096,857,o),
(980,857,cs),
(776,857,o),
(658,749,o),
(619,574,c),
(616,543,l),
(609,505,o),
(606,463,o),
(606,419,cs),
(606,134,o),
(730,0,o),
(958,0,cs)
);
},
{
closed = 1;
nodes = (
(1331,484,l),
(1331,622,l),
(568,622,l),
(568,484,l)
);
},
{
alignment = -1;
pos = (8,0);
ref = oneguru;
}
);
};
layerId = "4FA569E6-2225-4E7A-8719-2BB8460AE18A";
shapes = (
{
closed = 1;
nodes = (
(1131,0,o),
(1211,62,o),
(1211,170,cs),
(1211,245,o),
(1158,317,o),
(1026,338,c),
(1040,277,l),
(1201,317,o),
(1277,392,o),
(1277,550,c),
(1277,569,l),
(1100,554,l),
(1100,540,l),
(1100,470,o),
(1081,427,o),
(1039,403,cs),
(1007,385,o),
(973,378,o),
(887,378,cs),
(718,378,l),
(728,242,l),
(898,242,ls),
(962,242,o),
(988,238,o),
(1005,230,cs),
(1023,222,o),
(1032,208,o),
(1032,189,cs),
(1032,161,o),
(1010,138,o),
(944,138,cs),
(836,138,o),
(783,211,o),
(783,412,cs),
(783,453,o),
(785,493,o),
(790,527,c),
(795,569,l),
(819,664,o),
(873,719,o),
(965,719,cs),
(1025,719,o),
(1068,697,o),
(1094,659,c),
(1245,674,l),
(1282,720,o),
(1324,745,o),
(1381,745,cs),
(1436,745,o),
(1482,725,o),
(1512,653,c),
(1695,675,l),
(1656,816,o),
(1554,884,o),
(1403,884,cs),
(1263,884,o),
(1178,828,o),
(1117,731,c),
(1228,738,l),
(1182,803,o),
(1096,857,o),
(980,857,cs),
(776,857,o),
(658,749,o),
(619,574,c),
(616,543,l),
(609,505,o),
(606,463,o),
(606,419,cs),
(606,134,o),
(730,0,o),
(958,0,cs)
);
},
{
closed = 1;
nodes = (
(1331,484,l),
(1331,622,l),
(568,622,l),
(568,484,l)
);
},
{
alignment = -1;
pos = (8,0);
ref = oneguru;
}
);
width = 1630;
}
);
unicode = 2676;
},
{
glyphname = yakashguru;
layers = (
{
anchors = (
{
name = _Anchor6;
position = "{-247, 0}";
}
);
background = {
shapes = (
{
closed = 1;
nodes = (
(-66,-326,o),
(-23,-276,o),
(5,-221,c),
(-99,-169,l),
(-108,-192,o),
(-117,-205,o),
(-133,-205,cs),
(-149,-205,o),
(-156,-194,o),
(-156,-151,cs),
(-156,-118,o),
(-153,-83,o),
(-149,-51,c),
(-299,-41,l),
(-306,-73,o),
(-311,-111,o),
(-311,-148,cs),
(-311,-298,o),
(-217,-326,o),
(-153,-326,cs)
);
}
);
};
layerId = "4FA569E6-2225-4E7A-8719-2BB8460AE18A";
shapes = (
{
closed = 1;
nodes = (
(-66,-326,o),
(-23,-276,o),
(5,-221,c),
(-99,-169,l),
(-108,-192,o),
(-117,-205,o),
(-133,-205,cs),
(-149,-205,o),
(-156,-194,o),
(-156,-151,cs),
(-156,-118,o),
(-153,-83,o),
(-149,-51,c),
(-299,-41,l),
(-306,-73,o),
(-311,-111,o),
(-311,-148,cs),
(-311,-298,o),
(-217,-326,o),
(-153,-326,cs)
);
}
);
width = 0;
}
);
unicode = 2677;
},
{
glyphname = uni0A76;
layers = (
{
background = {
shapes = (
{
closed = 1;
nodes = (
(48,251,o),
(100,222,o),
(162,222,cs),
(222,222,o),
(272,251,o),
(272,324,cs),
(272,400,o),
(222,427,o),
(162,427,cs),
(100,427,o),
(48,400,o),
(48,324,cs)
);
}
);
};
layerId = "4FA569E6-2225-4E7A-8719-2BB8460AE18A";
shapes = (
{
closed = 1;
nodes = (
(48,251,o),
(100,222,o),
(162,222,cs),
(222,222,o),
(272,251,o),
(272,324,cs),
(272,400,o),
(222,427,o),
(162,427,cs),
(100,427,o),
(48,400,o),
(48,324,cs)
);
}
);
width = 320;
}
);
unicode = 2678;
},
{
glyphname = uni262C;
layers = (
{
background = {
shapes = (
{
closed = 1;
nodes = (
(514,-198,o),
(547,-164,o),
(547,-120,cs),
(547,-56,o),
(510,-42,o),
(510,25,cs),
(510,61,o),
(543,84,o),
(543,84,c),
(576,50,o),
(619,-4,o),
(619,-38,cs),
(619,-49,o),
(607,-51,o),
(607,-79,cs),
(607,-105,o),
(625,-130,o),
(659,-130,cs),
(692,-130,o),
(708,-107,o),
(708,-76,cs),
(708,-36,o),
(655,42,o),
(580,103,c),
(598,109,o),
(618,114,o),
(639,114,cs),
(723,114,o),
(764,48,o),
(767,-13,c),
(790,20,o),
(889,155,o),
(889,396,cs),
(889,578,o),
(780,686,o),
(729,718,c),
(767,651,o),
(790,583,o),
(790,468,cs),
(790,317,o),
(697,172,o),
(510,158,c),
(510,236,l),
(543,240,o),
(578,250,o),
(593,256,c),
(585,268,o),
(578,280,o),
(572,292,c),
(656,333,o),
(715,417,o),
(715,517,cs),
(715,628,o),
(641,721,o),
(539,750,c),
(546,789,o),
(558,802,o),
(588,802,c),
(588,830,l),
(533,830,o),
(512,880,o),
(471,880,cs),
(428,880,o),
(417,830,o),
(361,830,c),
(361,802,l),
(392,802,o),
(404,789,o),
(411,750,c),
(310,721,o),
(235,628,o),
(235,517,cs),
(235,417,o),
(293,333,o),
(378,292,c),
(372,280,o),
(364,268,o),
(357,256,c),
(372,250,o),
(407,240,o),
(440,236,c),
(440,158,l),
(253,172,o),
(160,317,o),
(160,468,cs),
(160,583,o),
(183,651,o),
(221,718,c),
(170,686,o),
(61,578,o),
(61,396,cs),
(61,155,o),
(160,20,o),
(183,-13,c),
(187,48,o),
(227,114,o),
(311,114,cs),
(332,114,o),
(352,109,o),
(371,103,c),
(295,42,o),
(242,-36,o),
(242,-76,cs),
(242,-107,o),
(257,-130,o),
(291,-130,cs),
(325,-130,o),
(343,-105,o),
(343,-79,cs),
(343,-51,o),
(331,-49,o),
(331,-38,cs),
(331,-4,o),
(374,50,o),
(407,84,c),
(407,84,o),
(440,61,o),
(440,25,cs),
(440,-42,o),
(403,-56,o),
(403,-120,cs),
(403,-164,o),
(436,-198,o),
(475,-198,cs)
);
},
{
closed = 1;
nodes = (
(340,378,o),
(297,442,o),
(297,517,cs),
(297,598,o),
(349,665,o),
(422,688,c),
(427,654,o),
(432,607,o),
(432,544,cs),
(432,460,o),
(419,399,o),
(403,351,c)
);
},
{
closed = 1;
nodes = (
(530,399,o),
(519,460,o),
(519,544,cs),
(519,607,o),
(523,654,o),
(527,688,c),
(601,665,o),
(652,598,o),
(652,517,cs),
(652,442,o),
(610,378,o),
(547,351,c)
);
}
);
};
layerId = "4FA569E6-2225-4E7A-8719-2BB8460AE18A";
shapes = (
{
closed = 1;
nodes = (
(514,-198,o),
(547,-164,o),
(547,-120,cs),
(547,-56,o),
(510,-42,o),
(510,25,cs),
(510,61,o),
(543,84,o),
(543,84,c),
(576,50,o),
(619,-4,o),
(619,-38,cs),
(619,-49,o),
(607,-51,o),
(607,-79,cs),
(607,-105,o),
(625,-130,o),
(659,-130,cs),
(692,-130,o),
(708,-107,o),
(708,-76,cs),
(708,-36,o),
(655,42,o),
(580,103,c),
(598,109,o),
(618,114,o),
(639,114,cs),
(723,114,o),
(764,48,o),
(767,-13,c),
(790,20,o),
(889,155,o),
(889,396,cs),
(889,578,o),
(780,686,o),
(729,718,c),
(767,651,o),
(790,583,o),
(790,468,cs),
(790,317,o),
(697,172,o),
(510,158,c),
(510,236,l),
(543,240,o),
(578,250,o),
(593,256,c),
(585,268,o),
(578,280,o),
(572,292,c),
(656,333,o),
(715,417,o),
(715,517,cs),
(715,628,o),
(641,721,o),
(539,750,c),
(546,789,o),
(558,802,o),
(588,802,c),
(588,830,l),
(533,830,o),
(512,880,o),
(471,880,cs),
(428,880,o),
(417,830,o),
(361,830,c),
(361,802,l),
(392,802,o),
(404,789,o),
(411,750,c),
(310,721,o),
(235,628,o),
(235,517,cs),
(235,417,o),
(293,333,o),
(378,292,c),
(372,280,o),
(364,268,o),
(357,256,c),
(372,250,o),
(407,240,o),
(440,236,c),
(440,158,l),
(253,172,o),
(160,317,o),
(160,468,cs),
(160,583,o),
(183,651,o),
(221,718,c),
(170,686,o),
(61,578,o),
(61,396,cs),
(61,155,o),
(160,20,o),
(183,-13,c),
(187,48,o),
(227,114,o),
(311,114,cs),
(332,114,o),
(352,109,o),
(371,103,c),
(295,42,o),
(242,-36,o),
(242,-76,cs),
(242,-107,o),
(257,-130,o),
(291,-130,cs),
(325,-130,o),
(343,-105,o),
(343,-79,cs),
(343,-51,o),
(331,-49,o),
(331,-38,cs),
(331,-4,o),
(374,50,o),
(407,84,c),
(407,84,o),
(440,61,o),
(440,25,cs),
(440,-42,o),
(403,-56,o),
(403,-120,cs),
(403,-164,o),
(436,-198,o),
(475,-198,cs)
);
},
{
closed = 1;
nodes = (
(340,378,o),
(297,442,o),
(297,517,cs),
(297,598,o),
(349,665,o),
(422,688,c),
(427,654,o),
(432,607,o),
(432,544,cs),
(432,460,o),
(419,399,o),
(403,351,c)
);
},
{
closed = 1;
nodes = (
(530,399,o),
(519,460,o),
(519,544,cs),
(519,607,o),
(523,654,o),
(527,688,c),
(601,665,o),
(652,598,o),
(652,517,cs),
(652,442,o),
(610,378,o),
(547,351,c)
);
}
);
width = 949;
}
);
unicode = 9772;
},
{
glyphname = rasubscriptguru;
layers = (
{
anchors = (
{
name = _Anchor6;
position = "{-247, 0}";
}
);
background = {
shapes = (
{
closed = 1;
nodes = (
(46,-206,l),
(6,-152,o),
(-36,-114,o),
(-82,-85,c),
(-75,-67,o),
(-70,-44,o),
(-70,-8,cs),
(-70,0,l),
(-247,0,l),
(-247,-29,ls),
(-247,-37,o),
(-247,-44,o),
(-248,-52,c),
(-256,-51,o),
(-263,-51,o),
(-268,-51,cs),
(-334,-51,o),
(-384,-74,o),
(-384,-135,cs),
(-384,-197,o),
(-334,-223,o),
(-256,-223,cs),
(-204,-223,o),
(-170,-207,o),
(-139,-184,c),
(-110,-206,o),
(-84,-233,o),
(-53,-271,c)
);
}
);
};
layerId = "4FA569E6-2225-4E7A-8719-2BB8460AE18A";
shapes = (
{
closed = 1;
nodes = (
(46,-206,l),
(6,-152,o),
(-36,-114,o),
(-82,-85,c),
(-75,-67,o),
(-70,-44,o),
(-70,-8,cs),
(-70,0,l),
(-247,0,l),
(-247,-29,ls),
(-247,-37,o),
(-247,-44,o),
(-248,-52,c),
(-256,-51,o),
(-263,-51,o),
(-268,-51,cs),
(-334,-51,o),
(-384,-74,o),
(-384,-135,cs),
(-384,-197,o),
(-334,-223,o),
(-256,-223,cs),
(-204,-223,o),
(-170,-207,o),
(-139,-184,c),
(-110,-206,o),
(-84,-233,o),
(-53,-271,c)
);
}
);
width = 0;
}
);
},
{
glyphname = hasubscriptguru;
layers = (
{
anchors = (
{
name = _Anchor6;
position = "{-247, 0}";
}
);
background = {
shapes = (
{
closed = 1;
nodes = (
(-201,-322,o),
(-155,-308,o),
(-123,-281,cs),
(-88,-251,o),
(-70,-209,o),
(-70,-132,cs),
(-70,0,l),
(-247,0,l),
(-247,-175,ls),
(-247,-204,o),
(-256,-212,o),
(-278,-212,cs),
(-309,-212,o),
(-343,-193,o),
(-343,-176,cs),
(-343,-159,o),
(-331,-155,o),
(-295,-155,c),
(-292,-46,l),
(-302,-46,ls),
(-380,-46,o),
(-423,-52,o),
(-458,-76,cs),
(-483,-93,o),
(-496,-117,o),
(-496,-151,cs),
(-496,-247,o),
(-402,-322,o),
(-262,-322,cs)
);
}
);
};
hints = (
{
horizontal = 1;
place = (-271,42);
type = Stem;
}
);
layerId = "4FA569E6-2225-4E7A-8719-2BB8460AE18A";
shapes = (
{
closed = 1;
nodes = (
(-201,-322,o),
(-155,-308,o),
(-123,-281,cs),
(-88,-251,o),
(-70,-209,o),
(-70,-132,cs),
(-70,0,l),
(-247,0,l),
(-247,-175,ls),
(-247,-204,o),
(-256,-212,o),
(-278,-212,cs),
(-309,-212,o),
(-343,-193,o),
(-343,-176,cs),
(-343,-159,o),
(-331,-155,o),
(-295,-155,c),
(-292,-46,l),
(-302,-46,ls),
(-380,-46,o),
(-423,-52,o),
(-458,-76,cs),
(-483,-93,o),
(-496,-117,o),
(-496,-151,cs),
(-496,-247,o),
(-402,-322,o),
(-262,-322,cs)
);
}
);
width = 0;
}
);
},
{
glyphname = vasubscriptguru;
layers = (
{
anchors = (
{
name = _Anchor6;
position = "{-247, 0}";
}
);
background = {
shapes = (
{
closed = 1;
nodes = (
(-66,-213,l),
(-66,-135,l),
(-256,-135,ls),
(-279,-135,o),
(-292,-127,o),
(-292,-116,cs),
(-292,-105,o),
(-281,-101,o),
(-269,-101,cs),
(-104,-101,l),
(-70,-66,l),
(-70,0,l),
(-247,0,l),
(-247,-25,l),
(-294,-25,ls),
(-387,-25,o),
(-432,-53,o),
(-432,-109,cs),
(-432,-167,o),
(-396,-213,o),
(-269,-213,cs)
);
},
{
closed = 1;
nodes = (
(-137,-329,o),
(-103,-324,o),
(-55,-313,c),
(-74,-236,l),
(-107,-243,o),
(-145,-249,o),
(-182,-249,cs),
(-220,-249,o),
(-239,-241,o),
(-239,-227,cs),
(-239,-217,o),
(-230,-213,o),
(-220,-213,cs),
(-163,-213,l),
(-338,-170,l),
(-367,-190,o),
(-380,-216,o),
(-380,-236,cs),
(-380,-313,o),
(-295,-329,o),
(-203,-329,cs)
);
}
);
};
layerId = "4FA569E6-2225-4E7A-8719-2BB8460AE18A";
shapes = (
{
closed = 1;
nodes = (
(-66,-213,l),
(-66,-135,l),
(-256,-135,ls),
(-279,-135,o),
(-292,-127,o),
(-292,-116,cs),
(-292,-105,o),
(-281,-101,o),
(-269,-101,cs),
(-104,-101,l),
(-70,-66,l),
(-70,0,l),
(-247,0,l),
(-247,-25,l),
(-294,-25,ls),
(-387,-25,o),
(-432,-53,o),
(-432,-109,cs),
(-432,-167,o),
(-396,-213,o),
(-269,-213,cs)
);
},
{
closed = 1;
nodes = (
(-137,-329,o),
(-103,-324,o),
(-55,-313,c),
(-74,-236,l),
(-107,-243,o),
(-145,-249,o),
(-182,-249,cs),
(-220,-249,o),
(-239,-241,o),
(-239,-227,cs),
(-239,-217,o),
(-230,-213,o),
(-220,-213,cs),
(-163,-213,l),
(-338,-170,l),
(-367,-190,o),
(-380,-216,o),
(-380,-236,cs),
(-380,-313,o),
(-295,-329,o),
(-203,-329,cs)
);
}
);
width = 0;
}
);
},
{
glyphname = yapostformguru;
layers = (
{
background = {
shapes = (
{
closed = 1;
nodes = (
(535,484,l),
(535,374,l),
(301,374,l),
(301,233,l),
(300,233,o),
(299,233,o),
(298,233,cs),
(242,233,o),
(205,270,o),
(157,378,c),
(9,311,l),
(76,156,o),
(163,97,o),
(295,97,cs),
(364,97,o),
(411,104,o),
(471,125,c),
(471,237,l),
(535,237,l),
(535,0,l),
(712,0,l),
(712,484,l),
(789,484,l),
(789,622,l),
(-7,622,l),
(-7,484,l)
);
}
);
};
layerId = "4FA569E6-2225-4E7A-8719-2BB8460AE18A";
shapes = (
{
closed = 1;
nodes = (
(535,484,l),
(535,374,l),
(301,374,l),
(301,233,l),
(300,233,o),
(299,233,o),
(298,233,cs),
(242,233,o),
(205,270,o),
(157,378,c),
(9,311,l),
(76,156,o),
(163,97,o),
(295,97,cs),
(364,97,o),
(411,104,o),
(471,125,c),
(471,237,l),
(535,237,l),
(535,0,l),
(712,0,l),
(712,484,l),
(789,484,l),
(789,622,l),
(-7,622,l),
(-7,484,l)
);
}
);
width = 782;
}
);
},
{
glyphname = rasubscripthalantguru;
layers = (
{
anchors = (
{
name = _Anchor6;
position = "{-247, 0}";
}
);
background = {
shapes = (
{
closed = 1;
nodes = (
(48,-180,l),
(4,-126,o),
(-36,-90,o),
(-82,-61,c),
(-74,-43,o),
(-70,-23,o),
(-70,-1,cs),
(-70,0,l),
(-247,0,l),
(-247,-5,ls),
(-247,-13,o),
(-247,-20,o),
(-248,-28,c),
(-256,-27,o),
(-263,-27,o),
(-268,-27,cs),
(-334,-27,o),
(-384,-52,o),
(-384,-106,cs),
(-384,-167,o),
(-334,-195,o),
(-256,-195,cs),
(-204,-195,o),
(-172,-178,o),
(-138,-153,c),
(-114,-171,o),
(-78,-203,o),
(-45,-241,c)
);
},
{
closed = 1;
nodes = (
(58,-355,l),
(-9,-255,o),
(-88,-203,o),
(-207,-203,cs),
(-223,-203,o),
(-237,-204,o),
(-256,-206,c),
(-248,-341,l),
(-239,-340,o),
(-231,-340,o),
(-223,-340,cs),
(-149,-340,o),
(-107,-355,o),
(-66,-407,c)
);
}
);
};
layerId = "4FA569E6-2225-4E7A-8719-2BB8460AE18A";
shapes = (
{
closed = 1;
nodes = (
(48,-180,l),
(4,-126,o),
(-36,-90,o),
(-82,-61,c),
(-74,-43,o),
(-70,-23,o),
(-70,-1,cs),
(-70,0,l),
(-247,0,l),
(-247,-5,ls),
(-247,-13,o),
(-247,-20,o),
(-248,-28,c),
(-256,-27,o),
(-263,-27,o),
(-268,-27,cs),
(-334,-27,o),
(-384,-52,o),
(-384,-106,cs),
(-384,-167,o),
(-334,-195,o),
(-256,-195,cs),
(-204,-195,o),
(-172,-178,o),
(-138,-153,c),
(-114,-171,o),
(-78,-203,o),
(-45,-241,c)
);
},
{
closed = 1;
nodes = (
(58,-355,l),
(-9,-255,o),
(-88,-203,o),
(-207,-203,cs),
(-223,-203,o),
(-237,-204,o),
(-256,-206,c),
(-248,-341,l),
(-239,-340,o),
(-231,-340,o),
(-223,-340,cs),
(-149,-340,o),
(-107,-355,o),
(-66,-407,c)
);
}
);
width = 0;
}
);
},
{
glyphname = hasubscripthalantguru;
layers = (
{
anchors = (
{
name = _Anchor6;
position = "{-247, 0}";
}
);
background = {
shapes = (
{
closed = 1;
nodes = (
(-201,-313,o),
(-155,-299,o),
(-123,-272,cs),
(-88,-242,o),
(-70,-200,o),
(-70,-123,cs),
(-70,0,l),
(-247,0,l),
(-247,-166,ls),
(-247,-195,o),
(-256,-203,o),
(-278,-203,cs),
(-309,-203,o),
(-343,-184,o),
(-343,-167,cs),
(-343,-150,o),
(-331,-146,o),
(-295,-146,c),
(-292,-37,l),
(-302,-37,ls),
(-380,-37,o),
(-423,-43,o),
(-458,-67,cs),
(-483,-84,o),
(-496,-108,o),
(-496,-142,cs),
(-496,-238,o),
(-402,-313,o),
(-262,-313,cs)
);
},
{
closed = 1;
nodes = (
(192,-360,l),
(125,-223,o),
(11,-196,o),
(-71,-196,cs),
(-81,-196,o),
(-96,-197,o),
(-111,-198,c),
(-102,-338,l),
(-93,-337,o),
(-85,-337,o),
(-78,-337,cs),
(-19,-337,o),
(26,-355,o),
(57,-406,c)
);
}
);
};
layerId = "4FA569E6-2225-4E7A-8719-2BB8460AE18A";
shapes = (
{
closed = 1;
nodes = (
(-201,-313,o),
(-155,-299,o),
(-123,-272,cs),
(-88,-242,o),
(-70,-200,o),
(-70,-123,cs),
(-70,0,l),
(-247,0,l),
(-247,-166,ls),
(-247,-195,o),
(-256,-203,o),
(-278,-203,cs),
(-309,-203,o),
(-343,-184,o),
(-343,-167,cs),
(-343,-150,o),
(-331,-146,o),
(-295,-146,c),
(-292,-37,l),
(-302,-37,ls),
(-380,-37,o),
(-423,-43,o),
(-458,-67,cs),
(-483,-84,o),
(-496,-108,o),
(-496,-142,cs),
(-496,-238,o),
(-402,-313,o),
(-262,-313,cs)
);
},
{
closed = 1;
nodes = (
(192,-360,l),
(125,-223,o),
(11,-196,o),
(-71,-196,cs),
(-81,-196,o),
(-96,-197,o),
(-111,-198,c),
(-102,-338,l),
(-93,-337,o),
(-85,-337,o),
(-78,-337,cs),
(-19,-337,o),
(26,-355,o),
(57,-406,c)
);
}
);
width = 0;
}
);
},
{
glyphname = vasubscripthalantguru;
layers = (
{
background = {
shapes = (
{
closed = 1;
nodes = (
(-132,-213,l),
(-132,-135,l),
(-306,-135,ls),
(-329,-135,o),
(-342,-127,o),
(-342,-116,cs),
(-342,-105,o),
(-331,-101,o),
(-319,-101,cs),
(-170,-101,l),
(-136,-66,l),
(-136,-15,l),
(-303,-15,l),
(-303,-25,l),
(-344,-25,ls),
(-437,-25,o),
(-482,-53,o),
(-482,-109,cs),
(-482,-167,o),
(-446,-213,o),
(-319,-213,cs)
);
},
{
closed = 1;
nodes = (
(-203,-329,o),
(-169,-324,o),
(-121,-313,c),
(-140,-236,l),
(-174,-244,o),
(-205,-249,o),
(-237,-249,cs),
(-278,-249,o),
(-293,-241,o),
(-293,-227,cs),
(-293,-217,o),
(-284,-213,o),
(-274,-213,cs),
(-217,-213,l),
(-392,-170,l),
(-421,-190,o),
(-434,-216,o),
(-434,-236,cs),
(-434,-313,o),
(-350,-329,o),
(-258,-329,cs)
);
},
{
closed = 1;
nodes = (
(198,-360,l),
(131,-223,o),
(17,-196,o),
(-65,-196,cs),
(-75,-196,o),
(-90,-197,o),
(-105,-198,c),
(-96,-338,l),
(-87,-337,o),
(-79,-337,o),
(-72,-337,cs),
(-13,-337,o),
(32,-355,o),
(63,-406,c)
);
}
);
};
layerId = "4FA569E6-2225-4E7A-8719-2BB8460AE18A";
shapes = (
{
closed = 1;
nodes = (
(-132,-213,l),
(-132,-135,l),
(-306,-135,ls),
(-329,-135,o),
(-342,-127,o),
(-342,-116,cs),
(-342,-105,o),
(-331,-101,o),
(-319,-101,cs),
(-170,-101,l),
(-136,-66,l),
(-136,-15,l),
(-303,-15,l),
(-303,-25,l),
(-344,-25,ls),
(-437,-25,o),
(-482,-53,o),
(-482,-109,cs),
(-482,-167,o),
(-446,-213,o),
(-319,-213,cs)
);
},
{
closed = 1;
nodes = (
(-203,-329,o),
(-169,-324,o),
(-121,-313,c),
(-140,-236,l),
(-174,-244,o),
(-205,-249,o),
(-237,-249,cs),
(-278,-249,o),
(-293,-241,o),
(-293,-227,cs),
(-293,-217,o),
(-284,-213,o),
(-274,-213,cs),
(-217,-213,l),
(-392,-170,l),
(-421,-190,o),
(-434,-216,o),
(-434,-236,cs),
(-434,-313,o),
(-350,-329,o),
(-258,-329,cs)
);
},
{
closed = 1;
nodes = (
(198,-360,l),
(131,-223,o),
(17,-196,o),
(-65,-196,cs),
(-75,-196,o),
(-90,-197,o),
(-105,-198,c),
(-96,-338,l),
(-87,-337,o),
(-79,-337,o),
(-72,-337,cs),
(-13,-337,o),
(32,-355,o),
(63,-406,c)
);
}
);
width = 0;
}
);
},
{
glyphname = udaathalantguru;
layers = (
{
background = {
shapes = (
{
closed = 1;
nodes = (
(83,-112,l),
(1,-103,o),
(-54,-78,o),
(-84,-8,c),
(-236,-53,l),
(-185,-181,o),
(-72,-241,o),
(56,-261,c)
);
},
{
closed = 1;
nodes = (
(48,-360,l),
(-17,-227,o),
(-133,-196,o),
(-211,-196,cs),
(-225,-196,o),
(-240,-197,o),
(-255,-198,c),
(-246,-338,l),
(-237,-337,o),
(-229,-337,o),
(-222,-337,cs),
(-163,-337,o),
(-118,-355,o),
(-87,-406,c)
);
}
);
};
layerId = "4FA569E6-2225-4E7A-8719-2BB8460AE18A";
shapes = (
{
closed = 1;
nodes = (
(83,-112,l),
(1,-103,o),
(-54,-78,o),
(-84,-8,c),
(-236,-53,l),
(-185,-181,o),
(-72,-241,o),
(56,-261,c)
);
},
{
closed = 1;
nodes = (
(48,-360,l),
(-17,-227,o),
(-133,-196,o),
(-211,-196,cs),
(-225,-196,o),
(-240,-197,o),
(-255,-198,c),
(-246,-338,l),
(-237,-337,o),
(-229,-337,o),
(-222,-337,cs),
(-163,-337,o),
(-118,-355,o),
(-87,-406,c)
);
}
);
width = 0;
}
);
},
{
glyphname = yakashhalantguru;
layers = (
{
background = {
shapes = (
{
closed = 1;
nodes = (
(-82,-251,o),
(-39,-201,o),
(-11,-146,c),
(-115,-94,l),
(-124,-117,o),
(-133,-130,o),
(-149,-130,cs),
(-165,-130,o),
(-172,-119,o),
(-172,-94,cs),
(-172,-72,o),
(-170,-53,o),
(-166,-26,c),
(-317,-16,l),
(-323,-43,o),
(-327,-66,o),
(-327,-94,cs),
(-327,-223,o),
(-233,-251,o),
(-169,-251,cs)
);
},
{
closed = 1;
nodes = (
(207,-360,l),
(140,-223,o),
(26,-196,o),
(-56,-196,cs),
(-66,-196,o),
(-81,-197,o),
(-96,-198,c),
(-87,-338,l),
(-78,-337,o),
(-70,-337,o),
(-63,-337,cs),
(-4,-337,o),
(41,-355,o),
(72,-406,c)
);
}
);
};
layerId = "4FA569E6-2225-4E7A-8719-2BB8460AE18A";
shapes = (
{
closed = 1;
nodes = (
(-82,-251,o),
(-39,-201,o),
(-11,-146,c),
(-115,-94,l),
(-124,-117,o),
(-133,-130,o),
(-149,-130,cs),
(-165,-130,o),
(-172,-119,o),
(-172,-94,cs),
(-172,-72,o),
(-170,-53,o),
(-166,-26,c),
(-317,-16,l),
(-323,-43,o),
(-327,-66,o),
(-327,-94,cs),
(-327,-223,o),
(-233,-251,o),
(-169,-251,cs)
);
},
{
closed = 1;
nodes = (
(207,-360,l),
(140,-223,o),
(26,-196,o),
(-56,-196,cs),
(-66,-196,o),
(-81,-197,o),
(-96,-198,c),
(-87,-338,l),
(-78,-337,o),
(-70,-337,o),
(-63,-337,cs),
(-4,-337,o),
(41,-355,o),
(72,-406,c)
);
}
);
width = 0;
}
);
},
{
glyphname = rasubscriptuguru;
layers = (
{
anchors = (
{
name = _Anchor6;
position = "{-247, 0}";
}
);
background = {
shapes = (
{
closed = 1;
nodes = (
(46,-206,l),
(6,-152,o),
(-36,-114,o),
(-82,-85,c),
(-75,-67,o),
(-70,-44,o),
(-70,-8,cs),
(-70,0,l),
(-247,0,l),
(-247,-29,ls),
(-247,-37,o),
(-247,-44,o),
(-248,-52,c),
(-256,-51,o),
(-263,-51,o),
(-268,-51,cs),
(-334,-51,o),
(-384,-74,o),
(-384,-135,cs),
(-384,-197,o),
(-334,-223,o),
(-256,-223,cs),
(-204,-223,o),
(-170,-207,o),
(-139,-184,c),
(-110,-206,o),
(-84,-233,o),
(-53,-271,c)
);
},
{
closed = 1;
nodes = (
(-222,-394,o),
(-153,-368,o),
(-101,-341,c),
(-146,-222,l),
(-194,-247,o),
(-252,-264,o),
(-332,-264,cs),
(-412,-264,o),
(-470,-247,o),
(-517,-222,c),
(-562,-341,l),
(-510,-368,o),
(-438,-394,o),
(-332,-394,cs)
);
}
);
};
layerId = "4FA569E6-2225-4E7A-8719-2BB8460AE18A";
shapes = (
{
closed = 1;
nodes = (
(46,-206,l),
(6,-152,o),
(-36,-114,o),
(-82,-85,c),
(-75,-67,o),
(-70,-44,o),
(-70,-8,cs),
(-70,0,l),
(-247,0,l),
(-247,-29,ls),
(-247,-37,o),
(-247,-44,o),
(-248,-52,c),
(-256,-51,o),
(-263,-51,o),
(-268,-51,cs),
(-334,-51,o),
(-384,-74,o),
(-384,-135,cs),
(-384,-197,o),
(-334,-223,o),
(-256,-223,cs),
(-204,-223,o),
(-170,-207,o),
(-139,-184,c),
(-110,-206,o),
(-84,-233,o),
(-53,-271,c)
);
},
{
closed = 1;
nodes = (
(-222,-394,o),
(-153,-368,o),
(-101,-341,c),
(-146,-222,l),
(-194,-247,o),
(-252,-264,o),
(-332,-264,cs),
(-412,-264,o),
(-470,-247,o),
(-517,-222,c),
(-562,-341,l),
(-510,-368,o),
(-438,-394,o),
(-332,-394,cs)
);
}
);
width = 0;
}
);
},
{
glyphname = hasubscriptuguru;
layers = (
{
background = {
shapes = (
{
closed = 1;
nodes = (
(-202,-279,o),
(-155,-268,o),
(-123,-243,cs),
(-88,-215,o),
(-70,-175,o),
(-70,-103,cs),
(-70,0,l),
(-247,0,l),
(-247,-144,ls),
(-247,-171,o),
(-256,-178,o),
(-278,-178,cs),
(-309,-178,o),
(-343,-160,o),
(-343,-145,cs),
(-343,-129,o),
(-331,-125,o),
(-295,-125,c),
(-292,-23,l),
(-302,-23,ls),
(-380,-23,o),
(-423,-29,o),
(-458,-51,cs),
(-483,-67,o),
(-496,-89,o),
(-496,-121,cs),
(-496,-211,o),
(-397,-279,o),
(-263,-279,cs)
);
},
{
closed = 1;
nodes = (
(-288,-401,o),
(-219,-375,o),
(-167,-348,c),
(-208,-243,l),
(-256,-268,o),
(-318,-285,o),
(-392,-285,cs),
(-468,-285,o),
(-530,-268,o),
(-577,-243,c),
(-618,-348,l),
(-566,-375,o),
(-494,-401,o),
(-392,-401,cs)
);
}
);
};
layerId = "4FA569E6-2225-4E7A-8719-2BB8460AE18A";
shapes = (
{
closed = 1;
nodes = (
(-202,-279,o),
(-155,-268,o),
(-123,-243,cs),
(-88,-215,o),
(-70,-175,o),
(-70,-103,cs),
(-70,0,l),
(-247,0,l),
(-247,-144,ls),
(-247,-171,o),
(-256,-178,o),
(-278,-178,cs),
(-309,-178,o),
(-343,-160,o),
(-343,-145,cs),
(-343,-129,o),
(-331,-125,o),
(-295,-125,c),
(-292,-23,l),
(-302,-23,ls),
(-380,-23,o),
(-423,-29,o),
(-458,-51,cs),
(-483,-67,o),
(-496,-89,o),
(-496,-121,cs),
(-496,-211,o),
(-397,-279,o),
(-263,-279,cs)
);
},
{
closed = 1;
nodes = (
(-288,-401,o),
(-219,-375,o),
(-167,-348,c),
(-208,-243,l),
(-256,-268,o),
(-318,-285,o),
(-392,-285,cs),
(-468,-285,o),
(-530,-268,o),
(-577,-243,c),
(-618,-348,l),
(-566,-375,o),
(-494,-401,o),
(-392,-401,cs)
);
}
);
width = 0;
}
);
},
{
glyphname = vasubscriptuguru;
layers = (
{
background = {
shapes = (
{
closed = 1;
nodes = (
(-66,-213,l),
(-66,-135,l),
(-236,-135,ls),
(-259,-135,o),
(-272,-127,o),
(-272,-116,cs),
(-272,-105,o),
(-261,-101,o),
(-249,-101,cs),
(-104,-101,l),
(-70,-66,l),
(-70,0,l),
(-247,0,l),
(-247,-25,l),
(-274,-25,ls),
(-367,-25,o),
(-412,-53,o),
(-412,-109,cs),
(-412,-167,o),
(-376,-213,o),
(-249,-213,cs)
);
},
{
closed = 1;
nodes = (
(-139,-329,o),
(-103,-325,o),
(-55,-313,c),
(-74,-236,l),
(-108,-245,o),
(-135,-249,o),
(-168,-249,cs),
(-200,-249,o),
(-219,-241,o),
(-219,-227,cs),
(-219,-217,o),
(-210,-213,o),
(-200,-213,cs),
(-143,-213,l),
(-318,-170,l),
(-347,-190,o),
(-360,-216,o),
(-360,-236,cs),
(-360,-313,o),
(-275,-329,o),
(-183,-329,cs)
);
},
{
closed = 1;
nodes = (
(-258,-400,o),
(-200,-386,o),
(-137,-359,c),
(-178,-254,l),
(-244,-278,o),
(-296,-287,o),
(-358,-287,cs),
(-424,-287,o),
(-487,-268,o),
(-534,-243,c),
(-578,-347,l),
(-526,-374,o),
(-454,-400,o),
(-358,-400,cs)
);
}
);
};
layerId = "4FA569E6-2225-4E7A-8719-2BB8460AE18A";
shapes = (
{
closed = 1;
nodes = (
(-66,-213,l),
(-66,-135,l),
(-236,-135,ls),
(-259,-135,o),
(-272,-127,o),
(-272,-116,cs),
(-272,-105,o),
(-261,-101,o),
(-249,-101,cs),
(-104,-101,l),
(-70,-66,l),
(-70,0,l),
(-247,0,l),
(-247,-25,l),
(-274,-25,ls),
(-367,-25,o),
(-412,-53,o),
(-412,-109,cs),
(-412,-167,o),
(-376,-213,o),
(-249,-213,cs)
);
},
{
closed = 1;
nodes = (
(-139,-329,o),
(-103,-325,o),
(-55,-313,c),
(-74,-236,l),
(-108,-245,o),
(-135,-249,o),
(-168,-249,cs),
(-200,-249,o),
(-219,-241,o),
(-219,-227,cs),
(-219,-217,o),
(-210,-213,o),
(-200,-213,cs),
(-143,-213,l),
(-318,-170,l),
(-347,-190,o),
(-360,-216,o),
(-360,-236,cs),
(-360,-313,o),
(-275,-329,o),
(-183,-329,cs)
);
},
{
closed = 1;
nodes = (
(-258,-400,o),
(-200,-386,o),
(-137,-359,c),
(-178,-254,l),
(-244,-278,o),
(-296,-287,o),
(-358,-287,cs),
(-424,-287,o),
(-487,-268,o),
(-534,-243,c),
(-578,-347,l),
(-526,-374,o),
(-454,-400,o),
(-358,-400,cs)
);
}
);
width = 0;
}
);
},
{
glyphname = udaatuguru;
layers = (
{
background = {
shapes = (
{
closed = 1;
nodes = (
(105,-173,l),
(98,-174,o),
(91,-174,o),
(84,-174,cs),
(7,-174,o),
(-45,-152,o),
(-84,-24,c),
(-236,-69,l),
(-185,-254,o),
(-80,-324,o),
(67,-324,cs),
(79,-324,o),
(86,-323,o),
(93,-322,c)
);
},
{
closed = 1;
nodes = (
(-240,-384,o),
(-173,-358,o),
(-121,-331,c),
(-172,-215,l),
(-219,-238,o),
(-268,-254,o),
(-342,-254,cs),
(-416,-254,o),
(-470,-237,o),
(-517,-212,c),
(-562,-331,l),
(-510,-358,o),
(-440,-384,o),
(-342,-384,cs)
);
}
);
};
layerId = "4FA569E6-2225-4E7A-8719-2BB8460AE18A";
shapes = (
{
closed = 1;
nodes = (
(105,-173,l),
(98,-174,o),
(91,-174,o),
(84,-174,cs),
(7,-174,o),
(-45,-152,o),
(-84,-24,c),
(-236,-69,l),
(-185,-254,o),
(-80,-324,o),
(67,-324,cs),
(79,-324,o),
(86,-323,o),
(93,-322,c)
);
},
{
closed = 1;
nodes = (
(-240,-384,o),
(-173,-358,o),
(-121,-331,c),
(-172,-215,l),
(-219,-238,o),
(-268,-254,o),
(-342,-254,cs),
(-416,-254,o),
(-470,-237,o),
(-517,-212,c),
(-562,-331,l),
(-510,-358,o),
(-440,-384,o),
(-342,-384,cs)
);
}
);
width = 0;
}
);
},
{
glyphname = yakashuguru;
layers = (
{
background = {
shapes = (
{
closed = 1;
nodes = (
(-50,-271,o),
(-7,-221,o),
(21,-166,c),
(-83,-114,l),
(-92,-137,o),
(-101,-150,o),
(-117,-150,cs),
(-133,-150,o),
(-140,-139,o),
(-140,-110,cs),
(-140,-86,o),
(-137,-58,o),
(-133,-26,c),
(-283,-16,l),
(-290,-48,o),
(-295,-75,o),
(-295,-108,cs),
(-295,-243,o),
(-201,-271,o),
(-137,-271,cs)
);
},
{
closed = 1;
nodes = (
(-236,-395,o),
(-173,-377,o),
(-121,-350,c),
(-166,-231,l),
(-214,-256,o),
(-266,-265,o),
(-342,-265,cs),
(-412,-265,o),
(-470,-248,o),
(-517,-223,c),
(-562,-342,l),
(-510,-369,o),
(-438,-395,o),
(-342,-395,cs)
);
}
);
};
layerId = "4FA569E6-2225-4E7A-8719-2BB8460AE18A";
shapes = (
{
closed = 1;
nodes = (
(-50,-271,o),
(-7,-221,o),
(21,-166,c),
(-83,-114,l),
(-92,-137,o),
(-101,-150,o),
(-117,-150,cs),
(-133,-150,o),
(-140,-139,o),
(-140,-110,cs),
(-140,-86,o),
(-137,-58,o),
(-133,-26,c),
(-283,-16,l),
(-290,-48,o),
(-295,-75,o),
(-295,-108,cs),
(-295,-243,o),
(-201,-271,o),
(-137,-271,cs)
);
},
{
closed = 1;
nodes = (
(-236,-395,o),
(-173,-377,o),
(-121,-350,c),
(-166,-231,l),
(-214,-256,o),
(-266,-265,o),
(-342,-265,cs),
(-412,-265,o),
(-470,-248,o),
(-517,-223,c),
(-562,-342,l),
(-510,-369,o),
(-438,-395,o),
(-342,-395,cs)
);
}
);
width = 0;
}
);
},
{
glyphname = rasubscriptuuguru;
layers = (
{
anchors = (
{
name = _Anchor6;
position = "{-247, 0}";
}
);
background = {
shapes = (
{
closed = 1;
nodes = (
(50,-166,l),
(10,-112,o),
(-30,-75,o),
(-76,-46,c),
(-71,-33,o),
(-70,-23,o),
(-70,-2,cs),
(-70,0,l),
(-247,0,l),
(-247,-3,ls),
(-247,-8,o),
(-247,-14,o),
(-248,-19,c),
(-256,-18,o),
(-263,-18,o),
(-268,-18,cs),
(-334,-18,o),
(-384,-41,o),
(-384,-102,cs),
(-384,-164,o),
(-328,-181,o),
(-256,-179,cs),
(-204,-178,o),
(-170,-165,o),
(-139,-142,c),
(-110,-164,o),
(-76,-193,o),
(-48,-233,c)
);
},
{
closed = 1;
nodes = (
(-283,-279,o),
(-204,-254,o),
(-142,-224,c),
(-181,-140,l),
(-235,-166,o),
(-299,-179,o),
(-368,-179,cs),
(-435,-179,o),
(-500,-166,o),
(-554,-140,c),
(-591,-224,l),
(-533,-253,o),
(-457,-279,o),
(-371,-279,cs)
);
},
{
closed = 1;
nodes = (
(-285,-400,o),
(-201,-384,o),
(-142,-354,c),
(-178,-271,l),
(-236,-296,o),
(-292,-305,o),
(-367,-305,cs),
(-439,-305,o),
(-494,-295,o),
(-554,-271,c),
(-591,-354,l),
(-534,-383,o),
(-454,-400,o),
(-371,-400,cs)
);
}
);
};
hints = (
{
horizontal = 1;
place = (-271,42);
type = Stem;
}
);
layerId = "4FA569E6-2225-4E7A-8719-2BB8460AE18A";
shapes = (
{
closed = 1;
nodes = (
(50,-166,l),
(10,-112,o),
(-30,-75,o),
(-76,-46,c),
(-71,-33,o),
(-70,-23,o),
(-70,-2,cs),
(-70,0,l),
(-247,0,l),
(-247,-3,ls),
(-247,-8,o),
(-247,-14,o),
(-248,-19,c),
(-256,-18,o),
(-263,-18,o),
(-268,-18,cs),
(-334,-18,o),
(-384,-41,o),
(-384,-102,cs),
(-384,-164,o),
(-328,-181,o),
(-256,-179,cs),
(-204,-178,o),
(-170,-165,o),
(-139,-142,c),
(-110,-164,o),
(-76,-193,o),
(-48,-233,c)
);
},
{
closed = 1;
nodes = (
(-283,-279,o),
(-204,-254,o),
(-142,-224,c),
(-181,-140,l),
(-235,-166,o),
(-299,-179,o),
(-368,-179,cs),
(-435,-179,o),
(-500,-166,o),
(-554,-140,c),
(-591,-224,l),
(-533,-253,o),
(-457,-279,o),
(-371,-279,cs)
);
},
{
closed = 1;
nodes = (
(-285,-400,o),
(-201,-384,o),
(-142,-354,c),
(-178,-271,l),
(-236,-296,o),
(-292,-305,o),
(-367,-305,cs),
(-439,-305,o),
(-494,-295,o),
(-554,-271,c),
(-591,-354,l),
(-534,-383,o),
(-454,-400,o),
(-371,-400,cs)
);
}
);
width = 0;
}
);
},
{
glyphname = hasubscriptuuguru;
layers = (
{
background = {
shapes = (
{
closed = 1;
nodes = (
(-201,-294,o),
(-155,-280,o),
(-123,-253,cs),
(-88,-223,o),
(-70,-181,o),
(-70,-104,cs),
(-70,0,l),
(-247,0,l),
(-247,-147,ls),
(-247,-176,o),
(-256,-184,o),
(-278,-184,cs),
(-309,-184,o),
(-343,-165,o),
(-343,-148,cs),
(-343,-131,o),
(-331,-127,o),
(-295,-127,c),
(-292,-18,l),
(-302,-18,ls),
(-380,-18,o),
(-423,-24,o),
(-458,-48,cs),
(-483,-65,o),
(-496,-89,o),
(-496,-123,cs),
(-496,-219,o),
(-402,-294,o),
(-262,-294,cs)
);
},
{
closed = 1;
nodes = (
(-372,-279,o),
(-323,-270,o),
(-280,-257,c),
(-361,-176,l),
(-381,-178,o),
(-401,-179,o),
(-421,-179,cs),
(-488,-179,o),
(-553,-166,o),
(-607,-140,c),
(-644,-224,l),
(-586,-253,o),
(-510,-279,o),
(-424,-279,cs)
);
},
{
closed = 1;
nodes = (
(-338,-400,o),
(-254,-384,o),
(-195,-354,c),
(-231,-271,l),
(-289,-296,o),
(-345,-305,o),
(-420,-305,cs),
(-492,-305,o),
(-547,-295,o),
(-607,-271,c),
(-644,-354,l),
(-587,-383,o),
(-507,-400,o),
(-424,-400,cs)
);
}
);
};
layerId = "4FA569E6-2225-4E7A-8719-2BB8460AE18A";
shapes = (
{
closed = 1;
nodes = (
(-201,-294,o),
(-155,-280,o),
(-123,-253,cs),
(-88,-223,o),
(-70,-181,o),
(-70,-104,cs),
(-70,0,l),
(-247,0,l),
(-247,-147,ls),
(-247,-176,o),
(-256,-184,o),
(-278,-184,cs),
(-309,-184,o),
(-343,-165,o),
(-343,-148,cs),
(-343,-131,o),
(-331,-127,o),
(-295,-127,c),
(-292,-18,l),
(-302,-18,ls),
(-380,-18,o),
(-423,-24,o),
(-458,-48,cs),
(-483,-65,o),
(-496,-89,o),
(-496,-123,cs),
(-496,-219,o),
(-402,-294,o),
(-262,-294,cs)
);
},
{
closed = 1;
nodes = (
(-372,-279,o),
(-323,-270,o),
(-280,-257,c),
(-361,-176,l),
(-381,-178,o),
(-401,-179,o),
(-421,-179,cs),
(-488,-179,o),
(-553,-166,o),
(-607,-140,c),
(-644,-224,l),
(-586,-253,o),
(-510,-279,o),
(-424,-279,cs)
);
},
{
closed = 1;
nodes = (
(-338,-400,o),
(-254,-384,o),
(-195,-354,c),
(-231,-271,l),
(-289,-296,o),
(-345,-305,o),
(-420,-305,cs),
(-492,-305,o),
(-547,-295,o),
(-607,-271,c),
(-644,-354,l),
(-587,-383,o),
(-507,-400,o),
(-424,-400,cs)
);
}
);
width = 0;
}
);
},
{
glyphname = vasubscriptuuguru;
layers = (
{
background = {
shapes = (
{
closed = 1;
nodes = (
(-66,-213,l),
(-66,-135,l),
(-240,-135,ls),
(-263,-135,o),
(-276,-127,o),
(-276,-116,cs),
(-276,-105,o),
(-265,-101,o),
(-253,-101,cs),
(-104,-101,l),
(-70,-66,l),
(-70,0,l),
(-247,0,l),
(-247,-25,l),
(-278,-25,ls),
(-371,-25,o),
(-416,-53,o),
(-416,-109,cs),
(-416,-160,o),
(-374,-213,o),
(-247,-213,cs)
);
},
{
closed = 1;
nodes = (
(-137,-329,o),
(-103,-324,o),
(-55,-313,c),
(-74,-236,l),
(-108,-244,o),
(-139,-249,o),
(-171,-249,cs),
(-212,-249,o),
(-227,-241,o),
(-227,-227,cs),
(-227,-217,o),
(-218,-213,o),
(-208,-213,cs),
(-151,-213,l),
(-326,-170,l),
(-355,-190,o),
(-363,-216,o),
(-363,-236,cs),
(-363,-313,o),
(-284,-329,o),
(-192,-329,cs)
);
},
{
closed = 1;
nodes = (
(-357,-279,o),
(-306,-270,o),
(-261,-255,c),
(-297,-167,l),
(-332,-175,o),
(-369,-179,o),
(-408,-179,cs),
(-475,-179,o),
(-540,-166,o),
(-594,-140,c),
(-631,-224,l),
(-573,-253,o),
(-497,-279,o),
(-411,-279,cs)
);
},
{
closed = 1;
nodes = (
(-325,-400,o),
(-243,-384,o),
(-182,-359,c),
(-218,-276,l),
(-276,-301,o),
(-332,-305,o),
(-407,-305,cs),
(-479,-305,o),
(-534,-295,o),
(-594,-271,c),
(-631,-354,l),
(-574,-383,o),
(-494,-400,o),
(-411,-400,cs)
);
}
);
};
layerId = "4FA569E6-2225-4E7A-8719-2BB8460AE18A";
shapes = (
{
closed = 1;
nodes = (
(-66,-213,l),
(-66,-135,l),
(-240,-135,ls),
(-263,-135,o),
(-276,-127,o),
(-276,-116,cs),
(-276,-105,o),
(-265,-101,o),
(-253,-101,cs),
(-104,-101,l),
(-70,-66,l),
(-70,0,l),
(-247,0,l),
(-247,-25,l),
(-278,-25,ls),
(-371,-25,o),
(-416,-53,o),
(-416,-109,cs),
(-416,-160,o),
(-374,-213,o),
(-247,-213,cs)
);
},
{
closed = 1;
nodes = (
(-137,-329,o),
(-103,-324,o),
(-55,-313,c),
(-74,-236,l),
(-108,-244,o),
(-139,-249,o),
(-171,-249,cs),
(-212,-249,o),
(-227,-241,o),
(-227,-227,cs),
(-227,-217,o),
(-218,-213,o),
(-208,-213,cs),
(-151,-213,l),
(-326,-170,l),
(-355,-190,o),
(-363,-216,o),
(-363,-236,cs),
(-363,-313,o),
(-284,-329,o),
(-192,-329,cs)
);
},
{
closed = 1;
nodes = (
(-357,-279,o),
(-306,-270,o),
(-261,-255,c),
(-297,-167,l),
(-332,-175,o),
(-369,-179,o),
(-408,-179,cs),
(-475,-179,o),
(-540,-166,o),
(-594,-140,c),
(-631,-224,l),
(-573,-253,o),
(-497,-279,o),
(-411,-279,cs)
);
},
{
closed = 1;
nodes = (
(-325,-400,o),
(-243,-384,o),
(-182,-359,c),
(-218,-276,l),
(-276,-301,o),
(-332,-305,o),
(-407,-305,cs),
(-479,-305,o),
(-534,-295,o),
(-594,-271,c),
(-631,-354,l),
(-574,-383,o),
(-494,-400,o),
(-411,-400,cs)
);
}
);
width = 0;
}
);
},
{
glyphname = udaatuuguru;
layers = (
{
background = {
shapes = (
{
closed = 1;
nodes = (
(83,-112,l),
(1,-103,o),
(-54,-78,o),
(-84,-8,c),
(-236,-53,l),
(-185,-181,o),
(-72,-241,o),
(56,-261,c)
);
},
{
closed = 1;
nodes = (
(-283,-279,o),
(-204,-254,o),
(-142,-224,c),
(-181,-140,l),
(-235,-166,o),
(-299,-179,o),
(-368,-179,cs),
(-435,-179,o),
(-500,-166,o),
(-554,-140,c),
(-591,-224,l),
(-533,-253,o),
(-457,-279,o),
(-371,-279,cs)
);
},
{
closed = 1;
nodes = (
(-285,-400,o),
(-201,-384,o),
(-142,-354,c),
(-178,-271,l),
(-236,-296,o),
(-292,-305,o),
(-367,-305,cs),
(-439,-305,o),
(-494,-295,o),
(-554,-271,c),
(-591,-354,l),
(-534,-383,o),
(-454,-400,o),
(-371,-400,cs)
);
}
);
};
layerId = "4FA569E6-2225-4E7A-8719-2BB8460AE18A";
shapes = (
{
closed = 1;
nodes = (
(83,-112,l),
(1,-103,o),
(-54,-78,o),
(-84,-8,c),
(-236,-53,l),
(-185,-181,o),
(-72,-241,o),
(56,-261,c)
);
},
{
closed = 1;
nodes = (
(-283,-279,o),
(-204,-254,o),
(-142,-224,c),
(-181,-140,l),
(-235,-166,o),
(-299,-179,o),
(-368,-179,cs),
(-435,-179,o),
(-500,-166,o),
(-554,-140,c),
(-591,-224,l),
(-533,-253,o),
(-457,-279,o),
(-371,-279,cs)
);
},
{
closed = 1;
nodes = (
(-285,-400,o),
(-201,-384,o),
(-142,-354,c),
(-178,-271,l),
(-236,-296,o),
(-292,-305,o),
(-367,-305,cs),
(-439,-305,o),
(-494,-295,o),
(-554,-271,c),
(-591,-354,l),
(-534,-383,o),
(-454,-400,o),
(-371,-400,cs)
);
}
);
width = 0;
}
);
},
{
glyphname = yakashuuguru;
layers = (
{
background = {
shapes = (
{
closed = 1;
nodes = (
(-47,-251,o),
(-4,-201,o),
(24,-146,c),
(-80,-94,l),
(-89,-117,o),
(-98,-130,o),
(-114,-130,cs),
(-130,-130,o),
(-137,-119,o),
(-137,-94,cs),
(-137,-72,o),
(-135,-53,o),
(-131,-26,c),
(-282,-16,l),
(-288,-43,o),
(-292,-66,o),
(-292,-94,cs),
(-292,-223,o),
(-198,-251,o),
(-134,-251,cs)
);
},
{
closed = 1;
nodes = (
(-301,-279,o),
(-234,-254,o),
(-172,-224,c),
(-211,-140,l),
(-265,-166,o),
(-322,-179,o),
(-388,-179,cs),
(-457,-179,o),
(-510,-166,o),
(-564,-140,c),
(-601,-224,l),
(-543,-253,o),
(-464,-279,o),
(-391,-279,cs)
);
},
{
closed = 1;
nodes = (
(-307,-400,o),
(-231,-384,o),
(-172,-354,c),
(-208,-271,l),
(-266,-296,o),
(-314,-305,o),
(-387,-305,cs),
(-457,-305,o),
(-504,-295,o),
(-564,-271,c),
(-601,-354,l),
(-544,-383,o),
(-474,-400,o),
(-391,-400,cs)
);
}
);
};
layerId = "4FA569E6-2225-4E7A-8719-2BB8460AE18A";
shapes = (
{
closed = 1;
nodes = (
(-47,-251,o),
(-4,-201,o),
(24,-146,c),
(-80,-94,l),
(-89,-117,o),
(-98,-130,o),
(-114,-130,cs),
(-130,-130,o),
(-137,-119,o),
(-137,-94,cs),
(-137,-72,o),
(-135,-53,o),
(-131,-26,c),
(-282,-16,l),
(-288,-43,o),
(-292,-66,o),
(-292,-94,cs),
(-292,-223,o),
(-198,-251,o),
(-134,-251,cs)
);
},
{
closed = 1;
nodes = (
(-301,-279,o),
(-234,-254,o),
(-172,-224,c),
(-211,-140,l),
(-265,-166,o),
(-322,-179,o),
(-388,-179,cs),
(-457,-179,o),
(-510,-166,o),
(-564,-140,c),
(-601,-224,l),
(-543,-253,o),
(-464,-279,o),
(-391,-279,cs)
);
},
{
closed = 1;
nodes = (
(-307,-400,o),
(-231,-384,o),
(-172,-354,c),
(-208,-271,l),
(-266,-296,o),
(-314,-305,o),
(-387,-305,cs),
(-457,-305,o),
(-504,-295,o),
(-564,-271,c),
(-601,-354,l),
(-544,-383,o),
(-474,-400,o),
(-391,-400,cs)
);
}
);
width = 0;
}
);
},
{
glyphname = karaguru;
layers = (
{
anchors = (
{
name = Anchor2;
position = "{603, 622}";
}
);
background = {
shapes = (
{
closed = 1;
nodes = (
(498,-206,l),
(458,-152,o),
(418,-115,o),
(372,-86,c),
(375,-68,o),
(378,-44,o),
(378,-8,cs),
(378,110,l),
(205,110,l),
(205,-29,ls),
(205,-37,o),
(205,-44,o),
(204,-52,c),
(196,-51,o),
(189,-51,o),
(184,-51,cs),
(118,-51,o),
(68,-74,o),
(68,-135,cs),
(68,-197,o),
(118,-223,o),
(196,-223,cs),
(248,-223,o),
(282,-207,o),
(313,-184,c),
(342,-206,o),
(368,-233,o),
(399,-271,c)
);
},
{
alignment = -1;
ref = kaguru;
}
);
};
layerId = "4FA569E6-2225-4E7A-8719-2BB8460AE18A";
shapes = (
{
closed = 1;
nodes = (
(498,-206,l),
(458,-152,o),
(418,-115,o),
(372,-86,c),
(375,-68,o),
(378,-44,o),
(378,-8,cs),
(378,110,l),
(205,110,l),
(205,-29,ls),
(205,-37,o),
(205,-44,o),
(204,-52,c),
(196,-51,o),
(189,-51,o),
(184,-51,cs),
(118,-51,o),
(68,-74,o),
(68,-135,cs),
(68,-197,o),
(118,-223,o),
(196,-223,cs),
(248,-223,o),
(282,-207,o),
(313,-184,c),
(342,-206,o),
(368,-233,o),
(399,-271,c)
);
},
{
alignment = -1;
ref = kaguru;
}
);
width = 689;
}
);
},
{
glyphname = rasubscript1guru;
layers = (
{
anchors = (
{
name = _Anchor6;
position = "{-247, 0}";
}
);
background = {
shapes = (
{
closed = 1;
nodes = (
(46,-206,l),
(6,-152,o),
(-36,-114,o),
(-82,-85,c),
(-81,-67,o),
(-80,-44,o),
(-80,-8,cs),
(-80,64,l),
(-247,30,l),
(-247,-29,ls),
(-247,-37,o),
(-247,-44,o),
(-248,-52,c),
(-256,-51,o),
(-263,-51,o),
(-268,-51,cs),
(-334,-51,o),
(-384,-74,o),
(-384,-135,cs),
(-384,-197,o),
(-334,-223,o),
(-256,-223,cs),
(-204,-223,o),
(-170,-207,o),
(-139,-184,c),
(-110,-206,o),
(-84,-233,o),
(-53,-271,c)
);
}
);
};
layerId = "4FA569E6-2225-4E7A-8719-2BB8460AE18A";
shapes = (
{
closed = 1;
nodes = (
(46,-206,l),
(6,-152,o),
(-36,-114,o),
(-82,-85,c),
(-81,-67,o),
(-80,-44,o),
(-80,-8,cs),
(-80,64,l),
(-247,30,l),
(-247,-29,ls),
(-247,-37,o),
(-247,-44,o),
(-248,-52,c),
(-256,-51,o),
(-263,-51,o),
(-268,-51,cs),
(-334,-51,o),
(-384,-74,o),
(-384,-135,cs),
(-384,-197,o),
(-334,-223,o),
(-256,-223,cs),
(-204,-223,o),
(-170,-207,o),
(-139,-184,c),
(-110,-206,o),
(-84,-233,o),
(-53,-271,c)
);
}
);
width = 0;
}
);
},
{
glyphname = hasubscript1guru;
layers = (
{
anchors = (
{
name = _Anchor6;
position = "{-247, 0}";
}
);
background = {
shapes = (
{
closed = 1;
nodes = (
(-204,-322,o),
(-160,-308,o),
(-130,-281,cs),
(-97,-251,o),
(-80,-209,o),
(-80,-132,cs),
(-80,64,l),
(-247,30,l),
(-247,-175,ls),
(-247,-204,o),
(-256,-212,o),
(-278,-212,cs),
(-309,-212,o),
(-343,-193,o),
(-343,-176,cs),
(-343,-159,o),
(-331,-155,o),
(-295,-155,c),
(-292,-46,l),
(-297,-46,ls),
(-380,-46,o),
(-420,-52,o),
(-455,-76,cs),
(-480,-93,o),
(-496,-117,o),
(-496,-151,cs),
(-496,-247,o),
(-402,-322,o),
(-262,-322,cs)
);
}
);
};
hints = (
{
horizontal = 1;
place = (-271,42);
type = Stem;
}
);
layerId = "4FA569E6-2225-4E7A-8719-2BB8460AE18A";
shapes = (
{
closed = 1;
nodes = (
(-204,-322,o),
(-160,-308,o),
(-130,-281,cs),
(-97,-251,o),
(-80,-209,o),
(-80,-132,cs),
(-80,64,l),
(-247,30,l),
(-247,-175,ls),
(-247,-204,o),
(-256,-212,o),
(-278,-212,cs),
(-309,-212,o),
(-343,-193,o),
(-343,-176,cs),
(-343,-159,o),
(-331,-155,o),
(-295,-155,c),
(-292,-46,l),
(-297,-46,ls),
(-380,-46,o),
(-420,-52,o),
(-455,-76,cs),
(-480,-93,o),
(-496,-117,o),
(-496,-151,cs),
(-496,-247,o),
(-402,-322,o),
(-262,-322,cs)
);
}
);
width = 0;
}
);
},
{
glyphname = vasubscript1guru;
layers = (
{
anchors = (
{
name = _Anchor6;
position = "{-247, 0}";
}
);
background = {
shapes = (
{
closed = 1;
nodes = (
(-66,-213,l),
(-66,-135,l),
(-256,-135,ls),
(-279,-135,o),
(-292,-127,o),
(-292,-116,cs),
(-292,-105,o),
(-281,-101,o),
(-269,-101,cs),
(-104,-101,l),
(-70,-66,l),
(-70,64,l),
(-237,31,l),
(-237,-25,l),
(-294,-25,ls),
(-387,-25,o),
(-432,-53,o),
(-432,-109,cs),
(-432,-167,o),
(-396,-213,o),
(-269,-213,cs)
);
},
{
closed = 1;
nodes = (
(-137,-329,o),
(-103,-324,o),
(-55,-313,c),
(-74,-236,l),
(-107,-243,o),
(-145,-249,o),
(-182,-249,cs),
(-220,-249,o),
(-239,-241,o),
(-239,-227,cs),
(-239,-217,o),
(-230,-213,o),
(-220,-213,cs),
(-163,-213,l),
(-338,-170,l),
(-367,-190,o),
(-380,-216,o),
(-380,-236,cs),
(-380,-313,o),
(-295,-329,o),
(-203,-329,cs)
);
}
);
};
layerId = "4FA569E6-2225-4E7A-8719-2BB8460AE18A";
shapes = (
{
closed = 1;
nodes = (
(-66,-213,l),
(-66,-135,l),
(-256,-135,ls),
(-279,-135,o),
(-292,-127,o),
(-292,-116,cs),
(-292,-105,o),
(-281,-101,o),
(-269,-101,cs),
(-104,-101,l),
(-70,-66,l),
(-70,64,l),
(-237,31,l),
(-237,-25,l),
(-294,-25,ls),
(-387,-25,o),
(-432,-53,o),
(-432,-109,cs),
(-432,-167,o),
(-396,-213,o),
(-269,-213,cs)
);
},
{
closed = 1;
nodes = (
(-137,-329,o),
(-103,-324,o),
(-55,-313,c),
(-74,-236,l),
(-107,-243,o),
(-145,-249,o),
(-182,-249,cs),
(-220,-249,o),
(-239,-241,o),
(-239,-227,cs),
(-239,-217,o),
(-230,-213,o),
(-220,-213,cs),
(-163,-213,l),
(-338,-170,l),
(-367,-190,o),
(-380,-216,o),
(-380,-236,cs),
(-380,-313,o),
(-295,-329,o),
(-203,-329,cs)
);
}
);
width = 0;
}
);
},
{
glyphname = oobindiguru;
layers = (
{
anchors = (
{
name = Anchor4;
position = "{369, 0}";
}
);
background = {
shapes = (
{
closed = 1;
nodes = (
(564,0,o),
(644,62,o),
(644,170,cs),
(644,245,o),
(591,317,o),
(459,338,c),
(473,277,l),
(634,317,o),
(710,392,o),
(710,550,cs),
(710,574,l),
(533,566,l),
(533,540,ls),
(533,470,o),
(514,427,o),
(472,403,cs),
(440,385,o),
(406,378,o),
(320,378,cs),
(151,378,l),
(161,242,l),
(331,242,ls),
(395,242,o),
(421,238,o),
(438,230,cs),
(456,222,o),
(465,208,o),
(465,189,cs),
(465,161,o),
(443,138,o),
(377,138,cs),
(268,138,o),
(216,211,o),
(216,412,cs),
(216,540,o),
(225,618,o),
(273,663,cs),
(310,698,o),
(358,715,o),
(504,715,cs),
(530,715,l),
(546,854,l),
(512,854,ls),
(327,854,o),
(252,832,o),
(184,786,cs),
(88,721,o),
(39,622,o),
(39,421,cs),
(39,134,o),
(163,0,o),
(391,0,cs)
);
},
{
closed = 1;
nodes = (
(764,484,l),
(764,622,l),
(-7,622,l),
(-7,484,l)
);
},
{
closed = 1;
nodes = (
(705,650,o),
(737,681,o),
(737,731,cs),
(737,779,o),
(705,812,o),
(649,812,cs),
(592,812,o),
(560,779,o),
(560,731,cs),
(560,681,o),
(592,650,o),
(649,650,cs)
);
}
);
};
layerId = "4FA569E6-2225-4E7A-8719-2BB8460AE18A";
shapes = (
{
closed = 1;
nodes = (
(564,0,o),
(644,62,o),
(644,170,cs),
(644,245,o),
(591,317,o),
(459,338,c),
(473,277,l),
(634,317,o),
(710,392,o),
(710,550,c),
(710,574,l),
(533,566,l),
(533,540,l),
(533,470,o),
(514,427,o),
(472,403,cs),
(440,385,o),
(406,378,o),
(320,378,cs),
(151,378,l),
(161,242,l),
(331,242,ls),
(395,242,o),
(421,238,o),
(438,230,cs),
(456,222,o),
(465,208,o),
(465,189,cs),
(465,161,o),
(443,138,o),
(377,138,cs),
(268,138,o),
(216,211,o),
(216,412,cs),
(216,540,o),
(225,618,o),
(273,663,cs),
(310,698,o),
(358,715,o),
(504,715,cs),
(530,715,l),
(546,854,l),
(512,854,ls),
(327,854,o),
(252,832,o),
(184,786,cs),
(88,721,o),
(39,622,o),
(39,421,cs),
(39,134,o),
(163,0,o),
(391,0,cs)
);
},
{
closed = 1;
nodes = (
(764,484,l),
(764,622,l),
(-7,622,l),
(-7,484,l)
);
},
{
closed = 1;
nodes = (
(705,650,o),
(737,681,o),
(737,731,cs),
(737,779,o),
(705,812,o),
(649,812,cs),
(592,812,o),
(560,779,o),
(560,731,cs),
(560,681,o),
(592,650,o),
(649,650,cs)
);
}
);
width = 723;
}
);
},
{
glyphname = eematrabindiguru;
layers = (
{
anchors = (
{
name = _Anchor2;
position = "{-70, 622}";
}
);
background = {
shapes = (
{
closed = 1;
nodes = (
(-81,615,l),
(-132,828,o),
(-244,896,o),
(-394,896,cs),
(-412,896,o),
(-430,895,o),
(-442,894,c),
(-433,744,l),
(-425,745,o),
(-415,746,o),
(-405,746,cs),
(-329,746,o),
(-277,708,o),
(-246,615,c)
);
},
{
closed = 1;
nodes = (
(4,734,o),
(36,765,o),
(36,815,cs),
(36,863,o),
(4,896,o),
(-52,896,cs),
(-109,896,o),
(-141,863,o),
(-141,815,cs),
(-141,765,o),
(-109,734,o),
(-52,734,cs)
);
}
);
};
layerId = "4FA569E6-2225-4E7A-8719-2BB8460AE18A";
shapes = (
{
closed = 1;
nodes = (
(-81,615,l),
(-132,828,o),
(-244,896,o),
(-394,896,cs),
(-412,896,o),
(-430,895,o),
(-442,894,c),
(-433,744,l),
(-425,745,o),
(-415,746,o),
(-405,746,cs),
(-329,746,o),
(-277,708,o),
(-246,615,c)
);
},
{
closed = 1;
nodes = (
(4,734,o),
(36,765,o),
(36,815,cs),
(36,863,o),
(4,896,o),
(-52,896,cs),
(-109,896,o),
(-141,863,o),
(-141,815,cs),
(-141,765,o),
(-109,734,o),
(-52,734,cs)
);
}
);
width = 0;
}
);
},
{
glyphname = aimatrabindiguru;
layers = (
{
anchors = (
{
name = _Anchor2;
position = "{-70, 622}";
}
);
background = {
shapes = (
{
closed = 1;
nodes = (
(-63,615,l),
(-88,810,o),
(-181,896,o),
(-346,896,cs),
(-367,896,o),
(-382,896,o),
(-388,896,c),
(-384,783,l),
(-375,783,o),
(-365,783,o),
(-360,783,cs),
(-270,783,o),
(-203,737,o),
(-169,610,c)
);
},
{
closed = 1;
nodes = (
(-143,594,l),
(-215,730,o),
(-302,761,o),
(-410,761,cs),
(-422,761,o),
(-429,760,o),
(-440,759,c),
(-434,651,l),
(-425,652,o),
(-418,652,o),
(-407,652,cs),
(-326,652,o),
(-263,638,o),
(-205,563,c)
);
},
{
closed = 1;
nodes = (
(36,734,o),
(68,765,o),
(68,815,cs),
(68,863,o),
(36,896,o),
(-20,896,cs),
(-77,896,o),
(-109,863,o),
(-109,815,cs),
(-109,765,o),
(-77,734,o),
(-20,734,cs)
);
}
);
};
layerId = "4FA569E6-2225-4E7A-8719-2BB8460AE18A";
shapes = (
{
closed = 1;
nodes = (
(-63,615,l),
(-88,810,o),
(-181,896,o),
(-346,896,cs),
(-367,896,o),
(-382,896,o),
(-388,896,c),
(-384,783,l),
(-375,783,o),
(-365,783,o),
(-360,783,cs),
(-270,783,o),
(-203,737,o),
(-169,610,c)
);
},
{
closed = 1;
nodes = (
(-143,594,l),
(-215,730,o),
(-302,761,o),
(-410,761,cs),
(-422,761,o),
(-429,760,o),
(-440,759,c),
(-434,651,l),
(-425,652,o),
(-418,652,o),
(-407,652,cs),
(-326,652,o),
(-263,638,o),
(-205,563,c)
);
},
{
closed = 1;
nodes = (
(36,734,o),
(68,765,o),
(68,815,cs),
(68,863,o),
(36,896,o),
(-20,896,cs),
(-77,896,o),
(-109,863,o),
(-109,815,cs),
(-109,765,o),
(-77,734,o),
(-20,734,cs)
);
}
);
width = 0;
}
);
},
{
glyphname = oomatrabindiguru;
layers = (
{
anchors = (
{
name = _Anchor2;
position = "{-70, 622}";
}
);
background = {
shapes = (
{
closed = 1;
nodes = (
(-79,615,l),
(-79,758,o),
(-132,837,o),
(-248,837,cs),
(-287,837,o),
(-309,832,o),
(-336,832,cs),
(-366,832,o),
(-379,847,o),
(-393,896,c),
(-540,855,l),
(-510,734,o),
(-462,690,o),
(-374,690,cs),
(-344,690,o),
(-316,694,o),
(-293,694,cs),
(-260,694,o),
(-246,679,o),
(-239,615,c)
);
},
{
closed = 1;
nodes = (
(28,734,o),
(60,765,o),
(60,815,cs),
(60,863,o),
(28,896,o),
(-28,896,cs),
(-85,896,o),
(-117,863,o),
(-117,815,cs),
(-117,765,o),
(-85,734,o),
(-28,734,cs)
);
}
);
};
layerId = "4FA569E6-2225-4E7A-8719-2BB8460AE18A";
shapes = (
{
closed = 1;
nodes = (
(-79,615,l),
(-79,758,o),
(-132,837,o),
(-248,837,cs),
(-287,837,o),
(-309,832,o),
(-336,832,cs),
(-366,832,o),
(-379,847,o),
(-393,896,c),
(-540,855,l),
(-510,734,o),
(-462,690,o),
(-374,690,cs),
(-344,690,o),
(-316,694,o),
(-293,694,cs),
(-260,694,o),
(-246,679,o),
(-239,615,c)
);
},
{
closed = 1;
nodes = (
(28,734,o),
(60,765,o),
(60,815,cs),
(60,863,o),
(28,896,o),
(-28,896,cs),
(-85,896,o),
(-117,863,o),
(-117,815,cs),
(-117,765,o),
(-85,734,o),
(-28,734,cs)
);
}
);
width = 0;
}
);
},
{
glyphname = aumatrabindiguru;
layers = (
{
anchors = (
{
name = _Anchor2;
position = "{-70, 622}";
}
);
background = {
shapes = (
{
closed = 1;
nodes = (
(-265,682,l),
(-273,701,o),
(-278,717,o),
(-278,734,cs),
(-278,760,o),
(-261,773,o),
(-239,773,cs),
(-217,773,o),
(-203,759,o),
(-203,734,cs),
(-203,717,o),
(-208,701,o),
(-216,682,c),
(-77,659,l),
(-63,691,o),
(-57,722,o),
(-57,754,cs),
(-57,834,o),
(-123,888,o),
(-235,888,cs),
(-357,888,o),
(-424,835,o),
(-424,754,cs),
(-424,720,o),
(-415,684,o),
(-403,659,c)
);
},
{
closed = 1;
nodes = (
(-396,740,o),
(-359,751,o),
(-331,766,c),
(-351,865,l),
(-371,854,o),
(-381,852,o),
(-398,852,cs),
(-422,852,o),
(-440,858,o),
(-454,896,c),
(-596,856,l),
(-567,769,o),
(-521,740,o),
(-424,740,cs)
);
},
{
closed = 1;
nodes = (
(86,734,o),
(118,765,o),
(118,815,cs),
(118,863,o),
(86,896,o),
(30,896,cs),
(-27,896,o),
(-59,863,o),
(-59,815,cs),
(-59,765,o),
(-27,734,o),
(30,734,cs)
);
}
);
};
layerId = "4FA569E6-2225-4E7A-8719-2BB8460AE18A";
shapes = (
{
closed = 1;
nodes = (
(-265,682,l),
(-273,701,o),
(-278,717,o),
(-278,734,cs),
(-278,760,o),
(-261,773,o),
(-239,773,cs),
(-217,773,o),
(-203,759,o),
(-203,734,cs),
(-203,717,o),
(-208,701,o),
(-216,682,c),
(-77,659,l),
(-63,691,o),
(-57,722,o),
(-57,754,cs),
(-57,834,o),
(-123,888,o),
(-235,888,cs),
(-357,888,o),
(-424,835,o),
(-424,754,cs),
(-424,720,o),
(-415,684,o),
(-403,659,c)
);
},
{
closed = 1;
nodes = (
(-396,740,o),
(-359,751,o),
(-331,766,c),
(-351,865,l),
(-371,854,o),
(-381,852,o),
(-398,852,cs),
(-422,852,o),
(-440,858,o),
(-454,896,c),
(-596,856,l),
(-567,769,o),
(-521,740,o),
(-424,740,cs)
);
},
{
closed = 1;
nodes = (
(86,734,o),
(118,765,o),
(118,815,cs),
(118,863,o),
(86,896,o),
(30,896,cs),
(-27,896,o),
(-59,863,o),
(-59,815,cs),
(-59,765,o),
(-27,734,o),
(30,734,cs)
);
}
);
width = 0;
}
);
},
{
glyphname = addakbaraltguru;
layers = (
{
background = {
shapes = (
{
closed = 1;
nodes = (
(375,667,o),
(418,750,o),
(418,868,c),
(270,878,l),
(269,801,o),
(253,782,o),
(227,782,cs),
(199,782,o),
(186,798,o),
(185,878,c),
(37,868,l),
(37,750,o),
(83,667,o),
(230,667,cs)
);
},
{
closed = 1;
nodes = (
(282,484,l),
(282,622,l),
(-7,622,l),
(-7,484,l)
);
}
);
};
layerId = "4FA569E6-2225-4E7A-8719-2BB8460AE18A";
shapes = (
{
closed = 1;
nodes = (
(375,667,o),
(418,750,o),
(418,868,c),
(270,878,l),
(269,801,o),
(253,782,o),
(227,782,cs),
(199,782,o),
(186,798,o),
(185,878,c),
(37,868,l),
(37,750,o),
(83,667,o),
(230,667,cs)
);
},
{
closed = 1;
nodes = (
(282,484,l),
(282,622,l),
(-7,622,l),
(-7,484,l)
);
}
);
width = 275;
}
);
},
{
glyphname = umatralowguru;
layers = (
{
background = {
shapes = (
{
closed = 1;
nodes = (
(-232,-289,o),
(-163,-263,o),
(-111,-236,c),
(-156,-117,l),
(-204,-142,o),
(-262,-159,o),
(-337,-159,cs),
(-412,-159,o),
(-470,-142,o),
(-517,-117,c),
(-562,-236,l),
(-510,-263,o),
(-438,-289,o),
(-337,-289,cs)
);
}
);
};
layerId = "4FA569E6-2225-4E7A-8719-2BB8460AE18A";
shapes = (
{
closed = 1;
nodes = (
(-232,-289,o),
(-163,-263,o),
(-111,-236,c),
(-156,-117,l),
(-204,-142,o),
(-262,-159,o),
(-337,-159,cs),
(-412,-159,o),
(-470,-142,o),
(-517,-117,c),
(-562,-236,l),
(-510,-263,o),
(-438,-289,o),
(-337,-289,cs)
);
}
);
width = 0;
}
);
},
{
glyphname = uumatralowguru;
layers = (
{
background = {
shapes = (
{
closed = 1;
nodes = (
(-233,-232,o),
(-152,-209,o),
(-89,-175,c),
(-128,-79,l),
(-184,-108,o),
(-250,-123,o),
(-313,-123,cs),
(-374,-123,o),
(-441,-108,o),
(-495,-79,c),
(-534,-175,l),
(-474,-208,o),
(-397,-232,o),
(-316,-232,cs)
);
},
{
closed = 1;
nodes = (
(-235,-379,o),
(-149,-362,o),
(-89,-328,c),
(-125,-232,l),
(-185,-260,o),
(-243,-270,o),
(-312,-270,cs),
(-379,-270,o),
(-435,-259,o),
(-496,-232,c),
(-534,-328,l),
(-475,-361,o),
(-394,-379,o),
(-316,-379,cs)
);
}
);
};
layerId = "4FA569E6-2225-4E7A-8719-2BB8460AE18A";
shapes = (
{
closed = 1;
nodes = (
(-233,-232,o),
(-152,-209,o),
(-89,-175,c),
(-128,-79,l),
(-184,-108,o),
(-250,-123,o),
(-313,-123,cs),
(-374,-123,o),
(-441,-108,o),
(-495,-79,c),
(-534,-175,l),
(-474,-208,o),
(-397,-232,o),
(-316,-232,cs)
);
},
{
closed = 1;
nodes = (
(-235,-379,o),
(-149,-362,o),
(-89,-328,c),
(-125,-232,l),
(-185,-260,o),
(-243,-270,o),
(-312,-270,cs),
(-379,-270,o),
(-435,-259,o),
(-496,-232,c),
(-534,-328,l),
(-475,-361,o),
(-394,-379,o),
(-316,-379,cs)
);
}
);
width = 0;
}
);
},
{
glyphname = oomatra1guru;
layers = (
{
anchors = (
{
name = _Anchor2;
position = "{-79, 622}";
}
);
background = {
shapes = (
{
closed = 1;
nodes = (
(-79,615,l),
(-79,758,o),
(-134,837,o),
(-231,837,cs),
(-260,837,o),
(-279,833,o),
(-299,833,cs),
(-329,833,o),
(-338,847,o),
(-352,896,c),
(-499,859,l),
(-472,738,o),
(-425,691,o),
(-349,691,cs),
(-329,691,o),
(-305,694,o),
(-289,694,cs),
(-261,694,o),
(-243,681,o),
(-239,615,c)
);
}
);
};
layerId = "4FA569E6-2225-4E7A-8719-2BB8460AE18A";
shapes = (
{
closed = 1;
nodes = (
(-79,615,l),
(-79,758,o),
(-134,837,o),
(-231,837,cs),
(-260,837,o),
(-279,833,o),
(-299,833,cs),
(-329,833,o),
(-338,847,o),
(-352,896,c),
(-499,859,l),
(-472,738,o),
(-425,691,o),
(-349,691,cs),
(-329,691,o),
(-305,694,o),
(-289,694,cs),
(-261,694,o),
(-243,681,o),
(-239,615,c)
);
}
);
width = 0;
}
);
},
{
glyphname = oomatrabindi1guru;
layers = (
{
anchors = (
{
name = _Anchor2;
position = "{-79, 622}";
}
);
background = {
shapes = (
{
closed = 1;
nodes = (
(-79,615,l),
(-79,758,o),
(-134,837,o),
(-231,837,cs),
(-260,837,o),
(-279,833,o),
(-299,833,cs),
(-329,833,o),
(-338,847,o),
(-352,896,c),
(-499,859,l),
(-472,738,o),
(-425,691,o),
(-349,691,cs),
(-329,691,o),
(-305,694,o),
(-289,694,cs),
(-261,694,o),
(-243,681,o),
(-239,615,c)
);
},
{
closed = 1;
nodes = (
(33,734,o),
(65,765,o),
(65,815,cs),
(65,863,o),
(33,896,o),
(-23,896,cs),
(-80,896,o),
(-112,863,o),
(-112,815,cs),
(-112,765,o),
(-80,734,o),
(-23,734,cs)
);
}
);
};
layerId = "4FA569E6-2225-4E7A-8719-2BB8460AE18A";
shapes = (
{
closed = 1;
nodes = (
(-79,615,l),
(-79,758,o),
(-134,837,o),
(-231,837,cs),
(-260,837,o),
(-279,833,o),
(-299,833,cs),
(-329,833,o),
(-338,847,o),
(-352,896,c),
(-499,859,l),
(-472,738,o),
(-425,691,o),
(-349,691,cs),
(-329,691,o),
(-305,694,o),
(-289,694,cs),
(-261,694,o),
(-243,681,o),
(-239,615,c)
);
},
{
closed = 1;
nodes = (
(33,734,o),
(65,765,o),
(65,815,cs),
(65,863,o),
(33,896,o),
(-23,896,cs),
(-80,896,o),
(-112,863,o),
(-112,815,cs),
(-112,765,o),
(-80,734,o),
(-23,734,cs)
);
}
);
width = 0;
}
);
},
{
glyphname = uumatraUIguru;
layers = (
{
background = {
shapes = (
{
closed = 1;
nodes = (
(-248,-150,o),
(-167,-127,o),
(-104,-93,c),
(-137,-14,l),
(-193,-43,o),
(-259,-58,o),
(-333,-58,cs),
(-404,-58,o),
(-472,-43,o),
(-526,-14,c),
(-559,-93,l),
(-499,-126,o),
(-421,-150,o),
(-336,-150,cs)
);
},
{
closed = 1;
nodes = (
(-250,-271,o),
(-164,-254,o),
(-104,-220,c),
(-134,-141,l),
(-194,-169,o),
(-252,-179,o),
(-332,-179,cs),
(-409,-179,o),
(-466,-168,o),
(-527,-141,c),
(-559,-220,l),
(-500,-253,o),
(-418,-271,o),
(-336,-271,cs)
);
}
);
};
layerId = "4FA569E6-2225-4E7A-8719-2BB8460AE18A";
shapes = (
{
closed = 1;
nodes = (
(-248,-150,o),
(-167,-127,o),
(-104,-93,c),
(-137,-14,l),
(-193,-43,o),
(-259,-58,o),
(-333,-58,cs),
(-404,-58,o),
(-472,-43,o),
(-526,-14,c),
(-559,-93,l),
(-499,-126,o),
(-421,-150,o),
(-336,-150,cs)
);
},
{
closed = 1;
nodes = (
(-250,-271,o),
(-164,-254,o),
(-104,-220,c),
(-134,-141,l),
(-194,-169,o),
(-252,-179,o),
(-332,-179,cs),
(-409,-179,o),
(-466,-168,o),
(-527,-141,c),
(-559,-220,l),
(-500,-253,o),
(-418,-271,o),
(-336,-271,cs)
);
}
);
width = 0;
}
);
},
{
glyphname = udaatUIguru;
layers = (
{
background = {
shapes = (
{
closed = 1;
nodes = (
(73,-122,l),
(-5,-117,o),
(-62,-83,o),
(-84,-8,c),
(-236,-53,l),
(-184,-209,o),
(-91,-265,o),
(46,-271,c)
);
}
);
};
layerId = "4FA569E6-2225-4E7A-8719-2BB8460AE18A";
shapes = (
{
closed = 1;
nodes = (
(73,-122,l),
(-5,-117,o),
(-62,-83,o),
(-84,-8,c),
(-236,-53,l),
(-184,-209,o),
(-91,-265,o),
(46,-271,c)
);
}
);
width = 0;
}
);
},
{
glyphname = yakashUIguru;
layers = (
{
background = {
shapes = (
{
closed = 1;
nodes = (
(-64,-271,o),
(-21,-221,o),
(7,-166,c),
(-97,-114,l),
(-106,-137,o),
(-115,-150,o),
(-131,-150,cs),
(-147,-150,o),
(-154,-139,o),
(-154,-110,cs),
(-154,-86,o),
(-151,-58,o),
(-147,-26,c),
(-297,-16,l),
(-304,-48,o),
(-309,-75,o),
(-309,-108,cs),
(-309,-243,o),
(-215,-271,o),
(-151,-271,cs)
);
}
);
};
layerId = "4FA569E6-2225-4E7A-8719-2BB8460AE18A";
shapes = (
{
closed = 1;
nodes = (
(-64,-271,o),
(-21,-221,o),
(7,-166,c),
(-97,-114,l),
(-106,-137,o),
(-115,-150,o),
(-131,-150,cs),
(-147,-150,o),
(-154,-139,o),
(-154,-110,cs),
(-154,-86,o),
(-151,-58,o),
(-147,-26,c),
(-297,-16,l),
(-304,-48,o),
(-309,-75,o),
(-309,-108,cs),
(-309,-243,o),
(-215,-271,o),
(-151,-271,cs)
);
}
);
width = 0;
}
);
},
{
glyphname = hasubscriptUIguru;
layers = (
{
background = {
shapes = (
{
closed = 1;
nodes = (
(-201,-271,o),
(-155,-258,o),
(-123,-233,cs),
(-88,-206,o),
(-70,-167,o),
(-70,-97,cs),
(-70,0,l),
(-247,0,l),
(-247,-136,ls),
(-247,-163,o),
(-256,-170,o),
(-278,-170,cs),
(-309,-170,o),
(-343,-153,o),
(-343,-137,cs),
(-343,-122,o),
(-331,-119,o),
(-295,-119,c),
(-292,-19,l),
(-297,-19,ls),
(-380,-19,o),
(-420,-24,o),
(-455,-46,cs),
(-480,-62,o),
(-496,-83,o),
(-496,-114,cs),
(-496,-202,o),
(-402,-271,o),
(-262,-271,cs)
);
}
);
};
layerId = "4FA569E6-2225-4E7A-8719-2BB8460AE18A";
shapes = (
{
closed = 1;
nodes = (
(-201,-271,o),
(-155,-258,o),
(-123,-233,cs),
(-88,-206,o),
(-70,-167,o),
(-70,-97,cs),
(-70,0,l),
(-247,0,l),
(-247,-136,ls),
(-247,-163,o),
(-256,-170,o),
(-278,-170,cs),
(-309,-170,o),
(-343,-153,o),
(-343,-137,cs),
(-343,-122,o),
(-331,-119,o),
(-295,-119,c),
(-292,-19,l),
(-297,-19,ls),
(-380,-19,o),
(-420,-24,o),
(-455,-46,cs),
(-480,-62,o),
(-496,-83,o),
(-496,-114,cs),
(-496,-202,o),
(-402,-271,o),
(-262,-271,cs)
);
}
);
width = 0;
}
);
},
{
glyphname = vasubscriptUIguru;
layers = (
{
background = {
shapes = (
{
closed = 1;
nodes = (
(-66,-171,l),
(-66,-103,l),
(-264,-103,ls),
(-286,-103,o),
(-292,-96,o),
(-292,-87,cs),
(-292,-77,o),
(-284,-74,o),
(-272,-74,cs),
(-104,-74,l),
(-70,-43,l),
(-70,0,l),
(-247,0,l),
(-247,-8,l),
(-296,-8,ls),
(-387,-8,o),
(-432,-32,o),
(-432,-81,cs),
(-432,-131,o),
(-403,-171,o),
(-282,-171,cs)
);
},
{
closed = 1;
nodes = (
(-137,-271,o),
(-103,-267,o),
(-55,-257,c),
(-74,-188,l),
(-110,-197,o),
(-145,-202,o),
(-182,-202,cs),
(-223,-202,o),
(-239,-195,o),
(-239,-183,cs),
(-239,-175,o),
(-234,-171,o),
(-221,-171,cs),
(-163,-171,l),
(-338,-133,l),
(-367,-147,o),
(-380,-173,o),
(-380,-191,cs),
(-380,-257,o),
(-305,-271,o),
(-203,-271,cs)
);
}
);
};
layerId = "4FA569E6-2225-4E7A-8719-2BB8460AE18A";
shapes = (
{
closed = 1;
nodes = (
(-66,-171,l),
(-66,-103,l),
(-264,-103,ls),
(-286,-103,o),
(-292,-96,o),
(-292,-87,cs),
(-292,-77,o),
(-284,-74,o),
(-272,-74,cs),
(-104,-74,l),
(-70,-43,l),
(-70,0,l),
(-247,0,l),
(-247,-8,l),
(-296,-8,ls),
(-387,-8,o),
(-432,-32,o),
(-432,-81,cs),
(-432,-131,o),
(-403,-171,o),
(-282,-171,cs)
);
},
{
closed = 1;
nodes = (
(-137,-271,o),
(-103,-267,o),
(-55,-257,c),
(-74,-188,l),
(-110,-197,o),
(-145,-202,o),
(-182,-202,cs),
(-223,-202,o),
(-239,-195,o),
(-239,-183,cs),
(-239,-175,o),
(-234,-171,o),
(-221,-171,cs),
(-163,-171,l),
(-338,-133,l),
(-367,-147,o),
(-380,-173,o),
(-380,-191,cs),
(-380,-257,o),
(-305,-271,o),
(-203,-271,cs)
);
}
);
width = 0;
}
);
},
{
glyphname = rasubscriptuUIguru;
layers = (
{
background = {
shapes = (
{
closed = 1;
nodes = (
(46,-173,l),
(6,-122,o),
(-36,-86,o),
(-82,-58,c),
(-75,-41,o),
(-70,-19,o),
(-70,0,c),
(-247,0,l),
(-247,-4,ls),
(-247,-12,o),
(-247,-19,o),
(-248,-27,c),
(-256,-26,o),
(-263,-26,o),
(-268,-26,cs),
(-334,-26,o),
(-384,-48,o),
(-384,-106,cs),
(-384,-165,o),
(-334,-189,o),
(-256,-189,cs),
(-204,-189,o),
(-170,-174,o),
(-139,-152,c),
(-110,-173,o),
(-84,-199,o),
(-53,-235,c)
);
},
{
closed = 1;
nodes = (
(-326,-271,o),
(-255,-248,o),
(-212,-221,c),
(-244,-127,l),
(-297,-151,o),
(-337,-165,o),
(-411,-165,cs),
(-485,-165,o),
(-535,-149,o),
(-576,-128,c),
(-612,-221,l),
(-562,-248,o),
(-499,-271,o),
(-412,-271,cs)
);
}
);
};
layerId = "4FA569E6-2225-4E7A-8719-2BB8460AE18A";
shapes = (
{
closed = 1;
nodes = (
(46,-173,l),
(6,-122,o),
(-36,-86,o),
(-82,-58,c),
(-75,-41,o),
(-70,-19,o),
(-70,0,c),
(-247,0,l),
(-247,-4,ls),
(-247,-12,o),
(-247,-19,o),
(-248,-27,c),
(-256,-26,o),
(-263,-26,o),
(-268,-26,cs),
(-334,-26,o),
(-384,-48,o),
(-384,-106,cs),
(-384,-165,o),
(-334,-189,o),
(-256,-189,cs),
(-204,-189,o),
(-170,-174,o),
(-139,-152,c),
(-110,-173,o),
(-84,-199,o),
(-53,-235,c)
);
},
{
closed = 1;
nodes = (
(-326,-271,o),
(-255,-248,o),
(-212,-221,c),
(-244,-127,l),
(-297,-151,o),
(-337,-165,o),
(-411,-165,cs),
(-485,-165,o),
(-535,-149,o),
(-576,-128,c),
(-612,-221,l),
(-562,-248,o),
(-499,-271,o),
(-412,-271,cs)
);
}
);
width = 0;
}
);
},
{
glyphname = hasubscriptuUIguru;
layers = (
{
background = {
shapes = (
{
closed = 1;
nodes = (
(-201,-181,o),
(-155,-173,o),
(-123,-148,cs),
(-88,-121,o),
(-70,-82,o),
(-70,-12,cs),
(-70,85,l),
(-247,85,l),
(-247,-51,ls),
(-247,-78,o),
(-256,-85,o),
(-278,-85,cs),
(-309,-85,o),
(-343,-68,o),
(-343,-52,cs),
(-343,-37,o),
(-331,-34,o),
(-295,-34,c),
(-292,66,l),
(-297,66,ls),
(-380,66,o),
(-420,61,o),
(-455,39,cs),
(-480,23,o),
(-496,2,o),
(-496,-29,cs),
(-496,-117,o),
(-401,-185,o),
(-262,-182,cs)
);
},
{
closed = 1;
nodes = (
(-331,-271,o),
(-260,-251,o),
(-217,-224,c),
(-249,-130,l),
(-302,-154,o),
(-342,-168,o),
(-415,-168,cs),
(-480,-168,o),
(-540,-149,o),
(-581,-128,c),
(-617,-221,l),
(-567,-248,o),
(-504,-271,o),
(-417,-271,cs)
);
}
);
};
layerId = "4FA569E6-2225-4E7A-8719-2BB8460AE18A";
shapes = (
{
closed = 1;
nodes = (
(-201,-181,o),
(-155,-173,o),
(-123,-148,cs),
(-88,-121,o),
(-70,-82,o),
(-70,-12,cs),
(-70,85,l),
(-247,85,l),
(-247,-51,ls),
(-247,-78,o),
(-256,-85,o),
(-278,-85,cs),
(-309,-85,o),
(-343,-68,o),
(-343,-52,cs),
(-343,-37,o),
(-331,-34,o),
(-295,-34,c),
(-292,66,l),
(-297,66,ls),
(-380,66,o),
(-420,61,o),
(-455,39,cs),
(-480,23,o),
(-496,2,o),
(-496,-29,cs),
(-496,-117,o),
(-401,-185,o),
(-262,-182,cs)
);
},
{
closed = 1;
nodes = (
(-331,-271,o),
(-260,-251,o),
(-217,-224,c),
(-249,-130,l),
(-302,-154,o),
(-342,-168,o),
(-415,-168,cs),
(-480,-168,o),
(-540,-149,o),
(-581,-128,c),
(-617,-221,l),
(-567,-248,o),
(-504,-271,o),
(-417,-271,cs)
);
}
);
width = 0;
}
);
},
{
glyphname = vasubscriptuUIguru;
layers = (
{
background = {
shapes = (
{
closed = 1;
nodes = (
(-66,-102,l),
(-66,-34,l),
(-264,-34,ls),
(-286,-34,o),
(-292,-27,o),
(-292,-18,cs),
(-292,-8,o),
(-284,-5,o),
(-272,-5,cs),
(-104,-5,l),
(-70,26,l),
(-70,85,l),
(-247,85,l),
(-247,61,l),
(-296,61,ls),
(-387,61,o),
(-432,37,o),
(-432,-12,cs),
(-432,-62,o),
(-403,-102,o),
(-282,-102,cs)
);
},
{
closed = 1;
nodes = (
(-137,-202,o),
(-103,-198,o),
(-55,-188,c),
(-74,-119,l),
(-110,-128,o),
(-145,-133,o),
(-182,-133,cs),
(-223,-133,o),
(-239,-126,o),
(-239,-114,cs),
(-239,-106,o),
(-234,-102,o),
(-221,-102,cs),
(-163,-102,l),
(-338,-64,l),
(-367,-78,o),
(-380,-104,o),
(-380,-122,cs),
(-380,-188,o),
(-305,-202,o),
(-203,-202,cs)
);
},
{
closed = 1;
nodes = (
(-303,-271,o),
(-232,-251,o),
(-189,-224,c),
(-215,-148,l),
(-242,-137,l),
(-281,-155,o),
(-314,-168,o),
(-387,-168,cs),
(-452,-168,o),
(-512,-149,o),
(-553,-128,c),
(-589,-221,l),
(-539,-248,o),
(-476,-271,o),
(-389,-271,cs)
);
}
);
};
layerId = "4FA569E6-2225-4E7A-8719-2BB8460AE18A";
shapes = (
{
closed = 1;
nodes = (
(-66,-102,l),
(-66,-34,l),
(-264,-34,ls),
(-286,-34,o),
(-292,-27,o),
(-292,-18,cs),
(-292,-8,o),
(-284,-5,o),
(-272,-5,cs),
(-104,-5,l),
(-70,26,l),
(-70,85,l),
(-247,85,l),
(-247,61,l),
(-296,61,ls),
(-387,61,o),
(-432,37,o),
(-432,-12,cs),
(-432,-62,o),
(-403,-102,o),
(-282,-102,cs)
);
},
{
closed = 1;
nodes = (
(-137,-202,o),
(-103,-198,o),
(-55,-188,c),
(-74,-119,l),
(-110,-128,o),
(-145,-133,o),
(-182,-133,cs),
(-223,-133,o),
(-239,-126,o),
(-239,-114,cs),
(-239,-106,o),
(-234,-102,o),
(-221,-102,cs),
(-163,-102,l),
(-338,-64,l),
(-367,-78,o),
(-380,-104,o),
(-380,-122,cs),
(-380,-188,o),
(-305,-202,o),
(-203,-202,cs)
);
},
{
closed = 1;
nodes = (
(-303,-271,o),
(-232,-251,o),
(-189,-224,c),
(-215,-148,l),
(-242,-137,l),
(-281,-155,o),
(-314,-168,o),
(-387,-168,cs),
(-452,-168,o),
(-512,-149,o),
(-553,-128,c),
(-589,-221,l),
(-539,-248,o),
(-476,-271,o),
(-389,-271,cs)
);
}
);
width = 0;
}
);
},
{
glyphname = udaatuUIguru;
layers = (
{
background = {
shapes = (
{
closed = 1;
nodes = (
(73,-122,l),
(-5,-117,o),
(-62,-83,o),
(-84,-8,c),
(-236,-53,l),
(-184,-193,o),
(-91,-265,o),
(46,-271,c)
);
},
{
closed = 1;
nodes = (
(-287,-271,o),
(-216,-248,o),
(-173,-221,c),
(-205,-127,l),
(-258,-151,o),
(-298,-165,o),
(-372,-165,cs),
(-446,-165,o),
(-496,-149,o),
(-537,-128,c),
(-573,-221,l),
(-523,-248,o),
(-460,-271,o),
(-373,-271,cs)
);
}
);
};
layerId = "4FA569E6-2225-4E7A-8719-2BB8460AE18A";
shapes = (
{
closed = 1;
nodes = (
(73,-122,l),
(-5,-117,o),
(-62,-83,o),
(-84,-8,c),
(-236,-53,l),
(-184,-193,o),
(-91,-265,o),
(46,-271,c)
);
},
{
closed = 1;
nodes = (
(-287,-271,o),
(-216,-248,o),
(-173,-221,c),
(-205,-127,l),
(-258,-151,o),
(-298,-165,o),
(-372,-165,cs),
(-446,-165,o),
(-496,-149,o),
(-537,-128,c),
(-573,-221,l),
(-523,-248,o),
(-460,-271,o),
(-373,-271,cs)
);
}
);
width = 0;
}
);
},
{
glyphname = yakashuUIguru;
layers = (
{
background = {
shapes = (
{
closed = 1;
nodes = (
(-43,-243,o),
(0,-193,o),
(28,-138,c),
(-76,-86,l),
(-85,-109,o),
(-94,-122,o),
(-110,-122,cs),
(-126,-122,o),
(-133,-111,o),
(-133,-82,cs),
(-133,-65,o),
(-132,-47,o),
(-129,-19,c),
(-279,-9,l),
(-285,-38,o),
(-288,-63,o),
(-288,-86,cs),
(-288,-215,o),
(-194,-243,o),
(-130,-243,cs)
);
},
{
closed = 1;
nodes = (
(-277,-271,o),
(-205,-252,o),
(-162,-227,c),
(-195,-129,l),
(-248,-153,o),
(-295,-165,o),
(-361,-165,cs),
(-420,-165,o),
(-486,-149,o),
(-527,-128,c),
(-563,-221,l),
(-513,-248,o),
(-450,-271,o),
(-363,-271,cs)
);
}
);
};
layerId = "4FA569E6-2225-4E7A-8719-2BB8460AE18A";
shapes = (
{
closed = 1;
nodes = (
(-43,-243,o),
(0,-193,o),
(28,-138,c),
(-76,-86,l),
(-85,-109,o),
(-94,-122,o),
(-110,-122,cs),
(-126,-122,o),
(-133,-111,o),
(-133,-82,cs),
(-133,-65,o),
(-132,-47,o),
(-129,-19,c),
(-279,-9,l),
(-285,-38,o),
(-288,-63,o),
(-288,-86,cs),
(-288,-215,o),
(-194,-243,o),
(-130,-243,cs)
);
},
{
closed = 1;
nodes = (
(-277,-271,o),
(-205,-252,o),
(-162,-227,c),
(-195,-129,l),
(-248,-153,o),
(-295,-165,o),
(-361,-165,cs),
(-420,-165,o),
(-486,-149,o),
(-527,-128,c),
(-563,-221,l),
(-513,-248,o),
(-450,-271,o),
(-363,-271,cs)
);
}
);
width = 0;
}
);
},
{
glyphname = rasubscriptuuUIguru;
layers = (
{
background = {
shapes = (
{
closed = 1;
nodes = (
(46,-88,l),
(6,-37,o),
(-36,-1,o),
(-82,27,c),
(-75,44,o),
(-70,66,o),
(-70,85,c),
(-247,85,l),
(-247,76,ls),
(-247,68,o),
(-247,61,o),
(-248,53,c),
(-256,54,o),
(-263,54,o),
(-268,54,cs),
(-334,54,o),
(-384,33,o),
(-384,-21,cs),
(-384,-80,o),
(-327,-104,o),
(-256,-104,cs),
(-204,-104,o),
(-170,-89,o),
(-139,-67,c),
(-110,-88,o),
(-84,-114,o),
(-53,-150,c)
);
},
{
closed = 1;
nodes = (
(-268,-155,o),
(-205,-135,o),
(-142,-101,c),
(-175,-27,l),
(-238,-60,o),
(-297,-71,o),
(-351,-71,cs),
(-416,-71,o),
(-473,-57,o),
(-534,-24,c),
(-567,-98,l),
(-507,-131,o),
(-433,-155,o),
(-354,-155,cs)
);
},
{
closed = 1;
nodes = (
(-268,-271,o),
(-192,-254,o),
(-132,-220,c),
(-162,-146,l),
(-222,-174,o),
(-276,-184,o),
(-350,-184,cs),
(-421,-184,o),
(-474,-173,o),
(-535,-146,c),
(-567,-220,l),
(-508,-253,o),
(-430,-271,o),
(-354,-271,cs)
);
}
);
};
layerId = "4FA569E6-2225-4E7A-8719-2BB8460AE18A";
shapes = (
{
closed = 1;
nodes = (
(46,-88,l),
(6,-37,o),
(-36,-1,o),
(-82,27,c),
(-75,44,o),
(-70,66,o),
(-70,85,c),
(-247,85,l),
(-247,76,ls),
(-247,68,o),
(-247,61,o),
(-248,53,c),
(-256,54,o),
(-263,54,o),
(-268,54,cs),
(-334,54,o),
(-384,33,o),
(-384,-21,cs),
(-384,-80,o),
(-327,-104,o),
(-256,-104,cs),
(-204,-104,o),
(-170,-89,o),
(-139,-67,c),
(-110,-88,o),
(-84,-114,o),
(-53,-150,c)
);
},
{
closed = 1;
nodes = (
(-268,-155,o),
(-205,-135,o),
(-142,-101,c),
(-175,-27,l),
(-238,-60,o),
(-297,-71,o),
(-351,-71,cs),
(-416,-71,o),
(-473,-57,o),
(-534,-24,c),
(-567,-98,l),
(-507,-131,o),
(-433,-155,o),
(-354,-155,cs)
);
},
{
closed = 1;
nodes = (
(-268,-271,o),
(-192,-254,o),
(-132,-220,c),
(-162,-146,l),
(-222,-174,o),
(-276,-184,o),
(-350,-184,cs),
(-421,-184,o),
(-474,-173,o),
(-535,-146,c),
(-567,-220,l),
(-508,-253,o),
(-430,-271,o),
(-354,-271,cs)
);
}
);
width = 0;
}
);
},
{
glyphname = hasubscriptuuUIguru;
layers = (
{
background = {
shapes = (
{
closed = 1;
nodes = (
(-201,-181,o),
(-155,-173,o),
(-123,-148,cs),
(-88,-121,o),
(-70,-82,o),
(-70,-12,cs),
(-70,85,l),
(-247,85,l),
(-247,-51,ls),
(-247,-78,o),
(-256,-85,o),
(-278,-85,cs),
(-309,-85,o),
(-343,-68,o),
(-343,-52,cs),
(-343,-37,o),
(-331,-34,o),
(-295,-34,c),
(-292,66,l),
(-297,66,ls),
(-380,66,o),
(-420,61,o),
(-455,39,cs),
(-480,23,o),
(-496,2,o),
(-496,-29,cs),
(-496,-117,o),
(-401,-185,o),
(-262,-182,cs)
);
},
{
closed = 1;
nodes = (
(-430,-155,o),
(-390,-149,o),
(-354,-138,c),
(-400,-64,l),
(-426,-69,o),
(-450,-71,o),
(-474,-71,cs),
(-539,-71,o),
(-596,-57,o),
(-657,-24,c),
(-690,-98,l),
(-630,-131,o),
(-556,-155,o),
(-477,-155,cs)
);
},
{
closed = 1;
nodes = (
(-391,-271,o),
(-315,-254,o),
(-255,-220,c),
(-285,-146,l),
(-345,-174,o),
(-399,-184,o),
(-473,-184,cs),
(-544,-184,o),
(-597,-173,o),
(-658,-146,c),
(-690,-220,l),
(-631,-253,o),
(-553,-271,o),
(-477,-271,cs)
);
}
);
};
layerId = "4FA569E6-2225-4E7A-8719-2BB8460AE18A";
shapes = (
{
closed = 1;
nodes = (
(-201,-181,o),
(-155,-173,o),
(-123,-148,cs),
(-88,-121,o),
(-70,-82,o),
(-70,-12,cs),
(-70,85,l),
(-247,85,l),
(-247,-51,ls),
(-247,-78,o),
(-256,-85,o),
(-278,-85,cs),
(-309,-85,o),
(-343,-68,o),
(-343,-52,cs),
(-343,-37,o),
(-331,-34,o),
(-295,-34,c),
(-292,66,l),
(-297,66,ls),
(-380,66,o),
(-420,61,o),
(-455,39,cs),
(-480,23,o),
(-496,2,o),
(-496,-29,cs),
(-496,-117,o),
(-401,-185,o),
(-262,-182,cs)
);
},
{
closed = 1;
nodes = (
(-430,-155,o),
(-390,-149,o),
(-354,-138,c),
(-400,-64,l),
(-426,-69,o),
(-450,-71,o),
(-474,-71,cs),
(-539,-71,o),
(-596,-57,o),
(-657,-24,c),
(-690,-98,l),
(-630,-131,o),
(-556,-155,o),
(-477,-155,cs)
);
},
{
closed = 1;
nodes = (
(-391,-271,o),
(-315,-254,o),
(-255,-220,c),
(-285,-146,l),
(-345,-174,o),
(-399,-184,o),
(-473,-184,cs),
(-544,-184,o),
(-597,-173,o),
(-658,-146,c),
(-690,-220,l),
(-631,-253,o),
(-553,-271,o),
(-477,-271,cs)
);
}
);
width = 0;
}
);
},
{
glyphname = vasubscriptuuUIguru;
layers = (
{
background = {
shapes = (
{
closed = 1;
nodes = (
(-66,-102,l),
(-66,-34,l),
(-264,-34,ls),
(-286,-34,o),
(-292,-27,o),
(-292,-18,cs),
(-292,-8,o),
(-284,-5,o),
(-272,-5,cs),
(-104,-5,l),
(-70,26,l),
(-70,85,l),
(-247,85,l),
(-247,61,l),
(-296,61,ls),
(-387,61,o),
(-432,37,o),
(-432,-12,cs),
(-432,-62,o),
(-391,-102,o),
(-282,-102,cs)
);
},
{
closed = 1;
nodes = (
(-137,-202,o),
(-103,-198,o),
(-55,-188,c),
(-74,-119,l),
(-110,-128,o),
(-145,-133,o),
(-182,-133,cs),
(-223,-133,o),
(-239,-126,o),
(-239,-114,cs),
(-239,-106,o),
(-234,-102,o),
(-221,-102,cs),
(-163,-102,l),
(-329,-64,l),
(-358,-78,o),
(-371,-104,o),
(-371,-122,cs),
(-371,-188,o),
(-305,-202,o),
(-203,-202,cs)
);
},
{
closed = 1;
nodes = (
(-379,-155,o),
(-339,-149,o),
(-303,-138,c),
(-349,-64,l),
(-375,-69,o),
(-399,-71,o),
(-423,-71,cs),
(-488,-71,o),
(-545,-57,o),
(-606,-24,c),
(-639,-98,l),
(-579,-131,o),
(-505,-155,o),
(-426,-155,cs)
);
},
{
closed = 1;
nodes = (
(-340,-271,o),
(-264,-254,o),
(-204,-220,c),
(-234,-146,l),
(-294,-174,o),
(-348,-184,o),
(-422,-184,cs),
(-493,-184,o),
(-546,-173,o),
(-607,-146,c),
(-639,-220,l),
(-580,-253,o),
(-502,-271,o),
(-426,-271,cs)
);
}
);
};
layerId = "4FA569E6-2225-4E7A-8719-2BB8460AE18A";
shapes = (
{
closed = 1;
nodes = (
(-66,-102,l),
(-66,-34,l),
(-264,-34,ls),
(-286,-34,o),
(-292,-27,o),
(-292,-18,cs),
(-292,-8,o),
(-284,-5,o),
(-272,-5,cs),
(-104,-5,l),
(-70,26,l),
(-70,85,l),
(-247,85,l),
(-247,61,l),
(-296,61,ls),
(-387,61,o),
(-432,37,o),
(-432,-12,cs),
(-432,-62,o),
(-391,-102,o),
(-282,-102,cs)
);
},
{
closed = 1;
nodes = (
(-137,-202,o),
(-103,-198,o),
(-55,-188,c),
(-74,-119,l),
(-110,-128,o),
(-145,-133,o),
(-182,-133,cs),
(-223,-133,o),
(-239,-126,o),
(-239,-114,cs),
(-239,-106,o),
(-234,-102,o),
(-221,-102,cs),
(-163,-102,l),
(-329,-64,l),
(-358,-78,o),
(-371,-104,o),
(-371,-122,cs),
(-371,-188,o),
(-305,-202,o),
(-203,-202,cs)
);
},
{
closed = 1;
nodes = (
(-379,-155,o),
(-339,-149,o),
(-303,-138,c),
(-349,-64,l),
(-375,-69,o),
(-399,-71,o),
(-423,-71,cs),
(-488,-71,o),
(-545,-57,o),
(-606,-24,c),
(-639,-98,l),
(-579,-131,o),
(-505,-155,o),
(-426,-155,cs)
);
},
{
closed = 1;
nodes = (
(-340,-271,o),
(-264,-254,o),
(-204,-220,c),
(-234,-146,l),
(-294,-174,o),
(-348,-184,o),
(-422,-184,cs),
(-493,-184,o),
(-546,-173,o),
(-607,-146,c),
(-639,-220,l),
(-580,-253,o),
(-502,-271,o),
(-426,-271,cs)
);
}
);
width = 0;
}
);
},
{
glyphname = udaatuuUIguru;
layers = (
{
background = {
shapes = (
{
closed = 1;
nodes = (
(93,-118,l),
(15,-113,o),
(-42,-79,o),
(-64,-4,c),
(-216,-49,l),
(-164,-189,o),
(-71,-261,o),
(66,-267,c)
);
},
{
closed = 1;
nodes = (
(-300,-155,o),
(-255,-147,o),
(-214,-133,c),
(-242,-55,l),
(-280,-67,o),
(-317,-71,o),
(-351,-71,cs),
(-416,-71,o),
(-473,-57,o),
(-534,-24,c),
(-567,-98,l),
(-507,-131,o),
(-433,-155,o),
(-354,-155,cs)
);
},
{
closed = 1;
nodes = (
(-278,-271,o),
(-211,-258,o),
(-154,-232,c),
(-189,-158,l),
(-239,-177,o),
(-287,-184,o),
(-350,-184,cs),
(-421,-184,o),
(-474,-173,o),
(-535,-146,c),
(-567,-220,l),
(-508,-253,o),
(-430,-271,o),
(-354,-271,cs)
);
}
);
};
layerId = "4FA569E6-2225-4E7A-8719-2BB8460AE18A";
shapes = (
{
closed = 1;
nodes = (
(93,-118,l),
(15,-113,o),
(-42,-79,o),
(-64,-4,c),
(-216,-49,l),
(-164,-189,o),
(-71,-261,o),
(66,-267,c)
);
},
{
closed = 1;
nodes = (
(-300,-155,o),
(-255,-147,o),
(-214,-133,c),
(-242,-55,l),
(-280,-67,o),
(-317,-71,o),
(-351,-71,cs),
(-416,-71,o),
(-473,-57,o),
(-534,-24,c),
(-567,-98,l),
(-507,-131,o),
(-433,-155,o),
(-354,-155,cs)
);
},
{
closed = 1;
nodes = (
(-278,-271,o),
(-211,-258,o),
(-154,-232,c),
(-189,-158,l),
(-239,-177,o),
(-287,-184,o),
(-350,-184,cs),
(-421,-184,o),
(-474,-173,o),
(-535,-146,c),
(-567,-220,l),
(-508,-253,o),
(-430,-271,o),
(-354,-271,cs)
);
}
);
width = 0;
}
);
},
{
glyphname = yakashuuUIguru;
layers = (
{
background = {
shapes = (
{
closed = 1;
nodes = (
(-24,-243,o),
(19,-193,o),
(47,-138,c),
(-57,-86,l),
(-66,-109,o),
(-75,-122,o),
(-91,-122,cs),
(-107,-122,o),
(-114,-111,o),
(-114,-82,cs),
(-114,-65,o),
(-113,-47,o),
(-110,-19,c),
(-260,-9,l),
(-266,-38,o),
(-269,-63,o),
(-269,-86,cs),
(-269,-215,o),
(-175,-243,o),
(-111,-243,cs)
);
},
{
closed = 1;
nodes = (
(-268,-155,o),
(-205,-135,o),
(-142,-101,c),
(-175,-27,l),
(-238,-60,o),
(-297,-71,o),
(-351,-71,cs),
(-416,-71,o),
(-473,-57,o),
(-534,-24,c),
(-567,-98,l),
(-507,-131,o),
(-433,-155,o),
(-354,-155,cs)
);
},
{
closed = 1;
nodes = (
(-268,-271,o),
(-192,-254,o),
(-132,-220,c),
(-162,-146,l),
(-222,-174,o),
(-276,-184,o),
(-350,-184,cs),
(-421,-184,o),
(-474,-173,o),
(-535,-146,c),
(-567,-220,l),
(-508,-253,o),
(-430,-271,o),
(-354,-271,cs)
);
}
);
};
layerId = "4FA569E6-2225-4E7A-8719-2BB8460AE18A";
shapes = (
{
closed = 1;
nodes = (
(-24,-243,o),
(19,-193,o),
(47,-138,c),
(-57,-86,l),
(-66,-109,o),
(-75,-122,o),
(-91,-122,cs),
(-107,-122,o),
(-114,-111,o),
(-114,-82,cs),
(-114,-65,o),
(-113,-47,o),
(-110,-19,c),
(-260,-9,l),
(-266,-38,o),
(-269,-63,o),
(-269,-86,cs),
(-269,-215,o),
(-175,-243,o),
(-111,-243,cs)
);
},
{
closed = 1;
nodes = (
(-268,-155,o),
(-205,-135,o),
(-142,-101,c),
(-175,-27,l),
(-238,-60,o),
(-297,-71,o),
(-351,-71,cs),
(-416,-71,o),
(-473,-57,o),
(-534,-24,c),
(-567,-98,l),
(-507,-131,o),
(-433,-155,o),
(-354,-155,cs)
);
},
{
closed = 1;
nodes = (
(-268,-271,o),
(-192,-254,o),
(-132,-220,c),
(-162,-146,l),
(-222,-174,o),
(-276,-184,o),
(-350,-184,cs),
(-421,-184,o),
(-474,-173,o),
(-535,-146,c),
(-567,-220,l),
(-508,-253,o),
(-430,-271,o),
(-354,-271,cs)
);
}
);
width = 0;
}
);
},
{
glyphname = hasubscript1UIguru;
layers = (
{
background = {
shapes = (
{
closed = 1;
nodes = (
(-204,-271,o),
(-161,-258,o),
(-130,-233,cs),
(-97,-206,o),
(-80,-167,o),
(-80,-97,cs),
(-80,64,l),
(-247,30,l),
(-247,-136,ls),
(-247,-163,o),
(-256,-170,o),
(-278,-170,cs),
(-309,-170,o),
(-343,-153,o),
(-343,-137,cs),
(-343,-122,o),
(-331,-119,o),
(-295,-119,c),
(-292,-19,l),
(-297,-19,ls),
(-380,-19,o),
(-420,-24,o),
(-455,-46,cs),
(-480,-62,o),
(-496,-83,o),
(-496,-114,cs),
(-496,-202,o),
(-402,-271,o),
(-262,-271,cs)
);
}
);
};
hints = (
{
horizontal = 1;
place = (-271,42);
type = Stem;
}
);
layerId = "4FA569E6-2225-4E7A-8719-2BB8460AE18A";
shapes = (
{
closed = 1;
nodes = (
(-204,-271,o),
(-161,-258,o),
(-130,-233,cs),
(-97,-206,o),
(-80,-167,o),
(-80,-97,cs),
(-80,64,l),
(-247,30,l),
(-247,-136,ls),
(-247,-163,o),
(-256,-170,o),
(-278,-170,cs),
(-309,-170,o),
(-343,-153,o),
(-343,-137,cs),
(-343,-122,o),
(-331,-119,o),
(-295,-119,c),
(-292,-19,l),
(-297,-19,ls),
(-380,-19,o),
(-420,-24,o),
(-455,-46,cs),
(-480,-62,o),
(-496,-83,o),
(-496,-114,cs),
(-496,-202,o),
(-402,-271,o),
(-262,-271,cs)
);
}
);
width = 0;
}
);
},
{
glyphname = vasubscript1UIguru;
layers = (
{
background = {
shapes = (
{
closed = 1;
nodes = (
(-66,-171,l),
(-66,-103,l),
(-264,-103,ls),
(-286,-103,o),
(-292,-96,o),
(-292,-87,cs),
(-292,-77,o),
(-284,-74,o),
(-272,-74,cs),
(-104,-74,l),
(-70,-43,l),
(-70,64,l),
(-237,31,l),
(-237,-8,l),
(-296,-8,ls),
(-387,-8,o),
(-432,-32,o),
(-432,-81,cs),
(-432,-131,o),
(-403,-171,o),
(-282,-171,cs)
);
},
{
closed = 1;
nodes = (
(-137,-271,o),
(-103,-267,o),
(-55,-257,c),
(-74,-188,l),
(-110,-197,o),
(-145,-202,o),
(-182,-202,cs),
(-223,-202,o),
(-239,-195,o),
(-239,-183,cs),
(-239,-175,o),
(-234,-171,o),
(-221,-171,cs),
(-163,-171,l),
(-338,-133,l),
(-367,-147,o),
(-380,-173,o),
(-380,-191,cs),
(-380,-257,o),
(-305,-271,o),
(-203,-271,cs)
);
}
);
};
layerId = "4FA569E6-2225-4E7A-8719-2BB8460AE18A";
shapes = (
{
closed = 1;
nodes = (
(-66,-171,l),
(-66,-103,l),
(-264,-103,ls),
(-286,-103,o),
(-292,-96,o),
(-292,-87,cs),
(-292,-77,o),
(-284,-74,o),
(-272,-74,cs),
(-104,-74,l),
(-70,-43,l),
(-70,64,l),
(-237,31,l),
(-237,-8,l),
(-296,-8,ls),
(-387,-8,o),
(-432,-32,o),
(-432,-81,cs),
(-432,-131,o),
(-403,-171,o),
(-282,-171,cs)
);
},
{
closed = 1;
nodes = (
(-137,-271,o),
(-103,-267,o),
(-55,-257,c),
(-74,-188,l),
(-110,-197,o),
(-145,-202,o),
(-182,-202,cs),
(-223,-202,o),
(-239,-195,o),
(-239,-183,cs),
(-239,-175,o),
(-234,-171,o),
(-221,-171,cs),
(-163,-171,l),
(-338,-133,l),
(-367,-147,o),
(-380,-173,o),
(-380,-191,cs),
(-380,-257,o),
(-305,-271,o),
(-203,-271,cs)
);
}
);
width = 0;
}
);
},
{
glyphname = phuunuktaUIguru;
layers = (
{
background = {
shapes = (
{
closed = 1;
nodes = (
(461,-150,o),
(535,-127,o),
(598,-93,c),
(565,-14,l),
(509,-43,o),
(450,-58,o),
(391,-58,cs),
(334,-58,o),
(274,-43,o),
(220,-14,c),
(187,-93,l),
(247,-126,o),
(317,-150,o),
(388,-150,cs)
);
},
{
closed = 1;
nodes = (
(459,-271,o),
(538,-254,o),
(598,-220,c),
(568,-141,l),
(508,-169,o),
(457,-179,o),
(392,-179,cs),
(329,-179,o),
(280,-168,o),
(219,-141,c),
(187,-220,l),
(246,-253,o),
(320,-271,o),
(388,-271,cs)
);
},
{
alignment = -1;
ref = phaguru;
},
{
alignment = -1;
pos = (393,98);
ref = nuktaguru;
}
);
};
layerId = "4FA569E6-2225-4E7A-8719-2BB8460AE18A";
shapes = (
{
closed = 1;
nodes = (
(461,-150,o),
(535,-127,o),
(598,-93,c),
(565,-14,l),
(509,-43,o),
(450,-58,o),
(391,-58,cs),
(334,-58,o),
(274,-43,o),
(220,-14,c),
(187,-93,l),
(247,-126,o),
(317,-150,o),
(388,-150,cs)
);
},
{
closed = 1;
nodes = (
(459,-271,o),
(538,-254,o),
(598,-220,c),
(568,-141,l),
(508,-169,o),
(457,-179,o),
(392,-179,cs),
(329,-179,o),
(280,-168,o),
(219,-141,c),
(187,-220,l),
(246,-253,o),
(320,-271,o),
(388,-271,cs)
);
},
{
alignment = -1;
ref = phaguru;
},
{
alignment = -1;
pos = (393,98);
ref = nuktaguru;
}
);
width = 658;
}
);
},
{
glyphname = umatralowUIguru;
layers = (
{
background = {
shapes = (
{
closed = 1;
nodes = (
(-229,-271,o),
(-163,-245,o),
(-111,-218,c),
(-156,-99,l),
(-204,-124,o),
(-259,-141,o),
(-332,-141,cs),
(-405,-141,o),
(-460,-124,o),
(-507,-99,c),
(-552,-218,l),
(-500,-245,o),
(-431,-271,o),
(-332,-271,cs)
);
}
);
};
layerId = "4FA569E6-2225-4E7A-8719-2BB8460AE18A";
shapes = (
{
closed = 1;
nodes = (
(-229,-271,o),
(-163,-245,o),
(-111,-218,c),
(-156,-99,l),
(-204,-124,o),
(-259,-141,o),
(-332,-141,cs),
(-405,-141,o),
(-460,-124,o),
(-507,-99,c),
(-552,-218,l),
(-500,-245,o),
(-431,-271,o),
(-332,-271,cs)
);
}
);
width = 0;
}
);
},
{
glyphname = uumatralowUIguru;
layers = (
{
background = {
shapes = (
{
closed = 1;
nodes = (
(-222,-150,o),
(-145,-127,o),
(-82,-93,c),
(-115,-14,l),
(-171,-43,o),
(-233,-58,o),
(-301,-58,cs),
(-366,-58,o),
(-430,-43,o),
(-484,-14,c),
(-517,-93,l),
(-457,-126,o),
(-383,-150,o),
(-304,-150,cs)
);
},
{
closed = 1;
nodes = (
(-224,-271,o),
(-142,-254,o),
(-82,-220,c),
(-112,-141,l),
(-172,-169,o),
(-226,-179,o),
(-300,-179,cs),
(-371,-179,o),
(-424,-168,o),
(-485,-141,c),
(-517,-220,l),
(-458,-253,o),
(-380,-271,o),
(-304,-271,cs)
);
}
);
};
layerId = "4FA569E6-2225-4E7A-8719-2BB8460AE18A";
shapes = (
{
closed = 1;
nodes = (
(-222,-150,o),
(-145,-127,o),
(-82,-93,c),
(-115,-14,l),
(-171,-43,o),
(-233,-58,o),
(-301,-58,cs),
(-366,-58,o),
(-430,-43,o),
(-484,-14,c),
(-517,-93,l),
(-457,-126,o),
(-383,-150,o),
(-304,-150,cs)
);
},
{
closed = 1;
nodes = (
(-224,-271,o),
(-142,-254,o),
(-82,-220,c),
(-112,-141,l),
(-172,-169,o),
(-226,-179,o),
(-300,-179,cs),
(-371,-179,o),
(-424,-168,o),
(-485,-141,c),
(-517,-220,l),
(-458,-253,o),
(-380,-271,o),
(-304,-271,cs)
);
}
);
width = 0;
}
);
},
{
glyphname = ooaddakguru;
layers = (
{
anchors = (
{
name = Anchor4;
position = "{359, 0}";
}
);
background = {
shapes = (
{
closed = 1;
nodes = (
(564,0,o),
(644,62,o),
(644,170,cs),
(644,245,o),
(591,317,o),
(459,338,c),
(473,277,l),
(634,317,o),
(710,392,o),
(710,550,cs),
(710,574,l),
(533,566,l),
(533,540,ls),
(533,470,o),
(514,427,o),
(472,403,cs),
(440,385,o),
(406,378,o),
(320,378,cs),
(151,378,l),
(161,242,l),
(331,242,ls),
(395,242,o),
(421,238,o),
(438,230,cs),
(456,222,o),
(465,208,o),
(465,189,cs),
(465,161,o),
(443,138,o),
(377,138,cs),
(268,138,o),
(216,211,o),
(216,412,cs),
(216,540,o),
(225,618,o),
(273,663,cs),
(310,698,o),
(358,715,o),
(504,715,cs),
(605,715,l),
(614,854,l),
(512,854,ls),
(327,854,o),
(252,832,o),
(184,786,cs),
(88,721,o),
(39,622,o),
(39,421,cs),
(39,134,o),
(163,0,o),
(391,0,cs)
);
},
{
closed = 1;
nodes = (
(764,484,l),
(764,622,l),
(-7,622,l),
(-7,484,l)
);
},
{
closed = 1;
nodes = (
(834,667,o),
(872,750,o),
(872,868,c),
(724,878,l),
(723,801,o),
(712,782,o),
(685,782,cs),
(660,782,o),
(648,798,o),
(647,878,c),
(499,868,l),
(499,750,o),
(544,667,o),
(688,667,cs)
);
}
);
};
layerId = "4FA569E6-2225-4E7A-8719-2BB8460AE18A";
shapes = (
{
closed = 1;
nodes = (
(564,0,o),
(644,62,o),
(644,170,cs),
(644,245,o),
(591,317,o),
(459,338,c),
(473,277,l),
(634,317,o),
(710,392,o),
(710,550,c),
(710,574,l),
(533,566,l),
(533,540,l),
(533,470,o),
(514,427,o),
(472,403,cs),
(440,385,o),
(406,378,o),
(320,378,cs),
(151,378,l),
(161,242,l),
(331,242,ls),
(395,242,o),
(421,238,o),
(438,230,cs),
(456,222,o),
(465,208,o),
(465,189,cs),
(465,161,o),
(443,138,o),
(377,138,cs),
(268,138,o),
(216,211,o),
(216,412,cs),
(216,540,o),
(225,618,o),
(273,663,cs),
(310,698,o),
(358,715,o),
(504,715,cs),
(605,715,l),
(614,854,l),
(512,854,ls),
(327,854,o),
(252,832,o),
(184,786,cs),
(88,721,o),
(39,622,o),
(39,421,cs),
(39,134,o),
(163,0,o),
(391,0,cs)
);
},
{
closed = 1;
nodes = (
(764,484,l),
(764,622,l),
(-7,622,l),
(-7,484,l)
);
},
{
closed = 1;
nodes = (
(834,667,o),
(872,750,o),
(872,868,c),
(724,878,l),
(723,801,o),
(712,782,o),
(685,782,cs),
(660,782,o),
(648,798,o),
(647,878,c),
(499,868,l),
(499,750,o),
(544,667,o),
(688,667,cs)
);
}
);
width = 723;
}
);
},
{
glyphname = iimatraaddakguru;
layers = (
{
background = {
shapes = (
{
closed = 1;
nodes = (
(247,0,l),
(247,484,l),
(324,484,l),
(324,622,l),
(247,622,l),
(247,635,ls),
(247,778,o),
(158,896,o),
(-8,896,cs),
(-153,896,o),
(-255,837,o),
(-255,700,cs),
(-255,687,o),
(-253,668,o),
(-249,651,c),
(-77,660,l),
(-79,669,o),
(-80,679,o),
(-80,694,cs),
(-80,728,o),
(-58,759,o),
(-8,759,cs),
(45,759,o),
(70,722,o),
(70,635,cs),
(70,622,l),
(-7,622,l),
(-7,484,l),
(70,484,l),
(70,0,l)
);
},
{
closed = 1;
nodes = (
(414,695,o),
(457,778,o),
(457,886,c),
(309,896,l),
(308,829,o),
(292,810,o),
(271,810,cs),
(248,810,o),
(235,826,o),
(234,896,c),
(97,886,l),
(97,836,o),
(112,789,o),
(141,754,cs),
(169,719,o),
(209,695,o),
(269,695,cs)
);
}
);
};
layerId = "4FA569E6-2225-4E7A-8719-2BB8460AE18A";
shapes = (
{
closed = 1;
nodes = (
(247,0,l),
(247,484,l),
(324,484,l),
(324,622,l),
(247,622,l),
(247,635,ls),
(247,778,o),
(158,896,o),
(-8,896,cs),
(-153,896,o),
(-255,837,o),
(-255,700,cs),
(-255,687,o),
(-253,668,o),
(-249,651,c),
(-77,660,l),
(-79,669,o),
(-80,679,o),
(-80,694,cs),
(-80,728,o),
(-58,759,o),
(-8,759,cs),
(45,759,o),
(70,722,o),
(70,635,cs),
(70,622,l),
(-7,622,l),
(-7,484,l),
(70,484,l),
(70,0,l)
);
},
{
closed = 1;
nodes = (
(414,695,o),
(457,778,o),
(457,886,c),
(309,896,l),
(308,829,o),
(292,810,o),
(271,810,cs),
(248,810,o),
(235,826,o),
(234,896,c),
(97,886,l),
(97,836,o),
(112,789,o),
(141,754,cs),
(169,719,o),
(209,695,o),
(269,695,cs)
);
}
);
width = 317;
}
);
},
{
glyphname = eematraaddakguru;
layers = (
{
anchors = (
{
name = _Anchor2;
position = "{-70, 622}";
}
);
background = {
shapes = (
{
closed = 1;
nodes = (
(-81,615,l),
(-156,839,o),
(-260,896,o),
(-404,896,cs),
(-422,896,o),
(-440,895,o),
(-452,894,c),
(-443,744,l),
(-435,745,o),
(-425,746,o),
(-415,746,cs),
(-339,746,o),
(-282,708,o),
(-246,615,c)
);
},
{
closed = 1;
nodes = (
(114,677,o),
(157,760,o),
(157,868,c),
(9,878,l),
(8,811,o),
(-8,792,o),
(-29,792,cs),
(-52,792,o),
(-65,808,o),
(-66,878,c),
(-206,868,l),
(-206,749,o),
(-151,677,o),
(-31,677,cs)
);
}
);
};
layerId = "4FA569E6-2225-4E7A-8719-2BB8460AE18A";
shapes = (
{
closed = 1;
nodes = (
(-81,615,l),
(-156,839,o),
(-260,896,o),
(-404,896,cs),
(-422,896,o),
(-440,895,o),
(-452,894,c),
(-443,744,l),
(-435,745,o),
(-425,746,o),
(-415,746,cs),
(-339,746,o),
(-282,708,o),
(-246,615,c)
);
},
{
closed = 1;
nodes = (
(114,677,o),
(157,760,o),
(157,868,c),
(9,878,l),
(8,811,o),
(-8,792,o),
(-29,792,cs),
(-52,792,o),
(-65,808,o),
(-66,878,c),
(-206,868,l),
(-206,749,o),
(-151,677,o),
(-31,677,cs)
);
}
);
width = 0;
}
);
},
{
glyphname = aimatraaddakguru;
layers = (
{
anchors = (
{
name = _Anchor2;
position = "{-70, 622}";
}
);
background = {
shapes = (
{
closed = 1;
nodes = (
(-68,615,l),
(-108,797,o),
(-201,896,o),
(-367,896,cs),
(-387,896,o),
(-402,896,o),
(-408,896,c),
(-404,783,l),
(-395,783,o),
(-385,783,o),
(-380,783,cs),
(-280,783,o),
(-208,734,o),
(-174,610,c)
);
},
{
closed = 1;
nodes = (
(-148,594,l),
(-228,730,o),
(-313,761,o),
(-430,761,cs),
(-442,761,o),
(-449,760,o),
(-460,759,c),
(-454,651,l),
(-445,652,o),
(-438,652,o),
(-427,652,cs),
(-346,652,o),
(-268,638,o),
(-210,563,c)
);
},
{
closed = 1;
nodes = (
(114,677,o),
(157,760,o),
(157,868,c),
(9,878,l),
(8,811,o),
(-8,792,o),
(-29,792,cs),
(-52,792,o),
(-65,808,o),
(-66,878,c),
(-206,868,l),
(-206,759,o),
(-151,677,o),
(-31,677,cs)
);
}
);
};
layerId = "4FA569E6-2225-4E7A-8719-2BB8460AE18A";
shapes = (
{
closed = 1;
nodes = (
(-68,615,l),
(-108,797,o),
(-201,896,o),
(-367,896,cs),
(-387,896,o),
(-402,896,o),
(-408,896,c),
(-404,783,l),
(-395,783,o),
(-385,783,o),
(-380,783,cs),
(-280,783,o),
(-208,734,o),
(-174,610,c)
);
},
{
closed = 1;
nodes = (
(-148,594,l),
(-228,730,o),
(-313,761,o),
(-430,761,cs),
(-442,761,o),
(-449,760,o),
(-460,759,c),
(-454,651,l),
(-445,652,o),
(-438,652,o),
(-427,652,cs),
(-346,652,o),
(-268,638,o),
(-210,563,c)
);
},
{
closed = 1;
nodes = (
(114,677,o),
(157,760,o),
(157,868,c),
(9,878,l),
(8,811,o),
(-8,792,o),
(-29,792,cs),
(-52,792,o),
(-65,808,o),
(-66,878,c),
(-206,868,l),
(-206,759,o),
(-151,677,o),
(-31,677,cs)
);
}
);
width = 0;
}
);
},
{
glyphname = oomatraaddakguru;
layers = (
{
anchors = (
{
name = _Anchor2;
position = "{-70, 622}";
}
);
background = {
shapes = (
{
closed = 1;
nodes = (
(-84,615,l),
(-100,757,o),
(-153,837,o),
(-262,837,cs),
(-301,837,o),
(-323,832,o),
(-350,832,cs),
(-380,832,o),
(-393,847,o),
(-407,896,c),
(-554,855,l),
(-524,734,o),
(-476,690,o),
(-388,690,cs),
(-358,690,o),
(-330,694,o),
(-307,694,cs),
(-274,694,o),
(-253,679,o),
(-244,615,c)
);
},
{
closed = 1;
nodes = (
(114,677,o),
(157,760,o),
(157,868,c),
(9,878,l),
(8,811,o),
(-8,792,o),
(-29,792,cs),
(-52,792,o),
(-65,808,o),
(-66,878,c),
(-206,868,l),
(-206,769,o),
(-151,677,o),
(-31,677,cs)
);
}
);
};
layerId = "4FA569E6-2225-4E7A-8719-2BB8460AE18A";
shapes = (
{
closed = 1;
nodes = (
(-84,615,l),
(-100,757,o),
(-153,837,o),
(-262,837,cs),
(-301,837,o),
(-323,832,o),
(-350,832,cs),
(-380,832,o),
(-393,847,o),
(-407,896,c),
(-554,855,l),
(-524,734,o),
(-476,690,o),
(-388,690,cs),
(-358,690,o),
(-330,694,o),
(-307,694,cs),
(-274,694,o),
(-253,679,o),
(-244,615,c)
);
},
{
closed = 1;
nodes = (
(114,677,o),
(157,760,o),
(157,868,c),
(9,878,l),
(8,811,o),
(-8,792,o),
(-29,792,cs),
(-52,792,o),
(-65,808,o),
(-66,878,c),
(-206,868,l),
(-206,769,o),
(-151,677,o),
(-31,677,cs)
);
}
);
width = 0;
}
);
},
{
glyphname = aumatraaddakguru;
layers = (
{
anchors = (
{
name = _Anchor2;
position = "{-70, 622}";
}
);
background = {
shapes = (
{
closed = 1;
nodes = (
(-223,682,l),
(-231,701,o),
(-236,717,o),
(-236,734,cs),
(-236,760,o),
(-221,773,o),
(-202,773,cs),
(-183,773,o),
(-171,759,o),
(-171,734,cs),
(-171,717,o),
(-176,701,o),
(-184,682,c),
(-45,659,l),
(-31,691,o),
(-27,722,o),
(-27,754,cs),
(-27,834,o),
(-91,888,o),
(-198,888,cs),
(-315,888,o),
(-382,835,o),
(-382,754,cs),
(-382,720,o),
(-373,684,o),
(-361,659,c)
);
},
{
closed = 1;
nodes = (
(-354,740,o),
(-317,751,o),
(-289,766,c),
(-309,865,l),
(-329,854,o),
(-339,852,o),
(-351,852,cs),
(-372,852,o),
(-386,858,o),
(-400,896,c),
(-542,856,l),
(-513,769,o),
(-469,740,o),
(-382,740,cs)
);
},
{
closed = 1;
nodes = (
(197,695,o),
(240,778,o),
(240,886,c),
(92,896,l),
(91,829,o),
(75,810,o),
(54,810,cs),
(31,810,o),
(18,826,o),
(17,896,c),
(-123,886,l),
(-123,787,o),
(-68,695,o),
(52,695,cs)
);
}
);
};
layerId = "4FA569E6-2225-4E7A-8719-2BB8460AE18A";
shapes = (
{
closed = 1;
nodes = (
(-223,682,l),
(-231,701,o),
(-236,717,o),
(-236,734,cs),
(-236,760,o),
(-221,773,o),
(-202,773,cs),
(-183,773,o),
(-171,759,o),
(-171,734,cs),
(-171,717,o),
(-176,701,o),
(-184,682,c),
(-45,659,l),
(-31,691,o),
(-27,722,o),
(-27,754,cs),
(-27,834,o),
(-91,888,o),
(-198,888,cs),
(-315,888,o),
(-382,835,o),
(-382,754,cs),
(-382,720,o),
(-373,684,o),
(-361,659,c)
);
},
{
closed = 1;
nodes = (
(-354,740,o),
(-317,751,o),
(-289,766,c),
(-309,865,l),
(-329,854,o),
(-339,852,o),
(-351,852,cs),
(-372,852,o),
(-386,858,o),
(-400,896,c),
(-542,856,l),
(-513,769,o),
(-469,740,o),
(-382,740,cs)
);
},
{
closed = 1;
nodes = (
(197,695,o),
(240,778,o),
(240,886,c),
(92,896,l),
(91,829,o),
(75,810,o),
(54,810,cs),
(31,810,o),
(18,826,o),
(17,896,c),
(-123,886,l),
(-123,787,o),
(-68,695,o),
(52,695,cs)
);
}
);
width = 0;
}
);
},
{
glyphname = uraaddakguru;
layers = (
{
background = {
shapes = (
{
closed = 1;
nodes = (
(564,0,o),
(644,62,o),
(644,170,cs),
(644,245,o),
(591,317,o),
(459,338,c),
(473,277,l),
(634,317,o),
(710,392,o),
(710,550,cs),
(710,663,o),
(676,741,o),
(620,789,cs),
(566,837,o),
(490,857,o),
(404,857,cs),
(209,857,o),
(91,749,o),
(52,574,c),
(49,543,l),
(42,505,o),
(39,463,o),
(39,419,cs),
(39,134,o),
(163,0,o),
(391,0,cs)
);
},
{
closed = 1;
nodes = (
(269,138,o),
(216,211,o),
(216,412,cs),
(216,453,o),
(218,493,o),
(223,527,c),
(228,569,l),
(252,664,o),
(306,719,o),
(396,719,cs),
(484,719,o),
(536,654,o),
(536,554,c),
(533,540,l),
(533,470,o),
(514,427,o),
(472,403,cs),
(440,385,o),
(406,378,o),
(320,378,cs),
(151,378,l),
(161,242,l),
(331,242,ls),
(395,242,o),
(421,238,o),
(438,230,cs),
(456,222,o),
(465,208,o),
(465,189,cs),
(465,161,o),
(443,138,o),
(377,138,cs)
);
},
{
closed = 1;
nodes = (
(764,484,l),
(764,622,l),
(-7,622,l),
(-7,484,l)
);
},
{
closed = 1;
nodes = (
(840,677,o),
(883,760,o),
(883,868,c),
(735,878,l),
(734,811,o),
(718,792,o),
(697,792,cs),
(674,792,o),
(661,808,o),
(660,878,c),
(520,868,l),
(520,817,o),
(528,772,o),
(551,739,cs),
(578,700,o),
(625,677,o),
(695,677,cs)
);
}
);
};
layerId = "4FA569E6-2225-4E7A-8719-2BB8460AE18A";
shapes = (
{
closed = 1;
nodes = (
(564,0,o),
(644,62,o),
(644,170,cs),
(644,245,o),
(591,317,o),
(459,338,c),
(473,277,l),
(634,317,o),
(710,392,o),
(710,550,cs),
(710,663,o),
(676,741,o),
(620,789,cs),
(566,837,o),
(490,857,o),
(404,857,cs),
(209,857,o),
(91,749,o),
(52,574,c),
(49,543,l),
(42,505,o),
(39,463,o),
(39,419,cs),
(39,134,o),
(163,0,o),
(391,0,cs)
);
},
{
closed = 1;
nodes = (
(269,138,o),
(216,211,o),
(216,412,cs),
(216,453,o),
(218,493,o),
(223,527,c),
(228,569,l),
(252,664,o),
(306,719,o),
(396,719,cs),
(484,719,o),
(536,654,o),
(536,554,c),
(533,540,l),
(533,470,o),
(514,427,o),
(472,403,cs),
(440,385,o),
(406,378,o),
(320,378,cs),
(151,378,l),
(161,242,l),
(331,242,ls),
(395,242,o),
(421,238,o),
(438,230,cs),
(456,222,o),
(465,208,o),
(465,189,cs),
(465,161,o),
(443,138,o),
(377,138,cs)
);
},
{
closed = 1;
nodes = (
(764,484,l),
(764,622,l),
(-7,622,l),
(-7,484,l)
);
},
{
closed = 1;
nodes = (
(840,677,o),
(883,760,o),
(883,868,c),
(735,878,l),
(734,811,o),
(718,792,o),
(697,792,cs),
(674,792,o),
(661,808,o),
(660,878,c),
(520,868,l),
(520,817,o),
(528,772,o),
(551,739,cs),
(578,700,o),
(625,677,o),
(695,677,cs)
);
}
);
width = 723;
}
);
},
{
glyphname = kaUIguru;
layers = (
{
background = {
shapes = (
{
closed = 1;
nodes = (
(649,85,l),
(626,193,o),
(591,257,o),
(532,320,c),
(491,341,l),
(428,405,o),
(360,434,o),
(253,434,cs),
(110,434,o),
(23,365,o),
(23,242,cs),
(23,121,o),
(116,49,o),
(260,49,cs),
(374,49,o),
(462,95,o),
(526,181,c),
(551,203,l),
(599,266,o),
(623,337,o),
(623,432,cs),
(623,449,o),
(622,467,o),
(620,484,c),
(696,484,l),
(696,622,l),
(-7,622,l),
(-7,484,l),
(445,484,l),
(448,470,o),
(450,452,o),
(450,435,cs),
(450,407,o),
(447,369,o),
(439,339,c),
(413,278,l),
(386,227,o),
(342,188,o),
(277,188,cs),
(217,188,o),
(200,216,o),
(200,243,cs),
(200,280,o),
(233,296,o),
(277,296,cs),
(343,296,o),
(389,259,o),
(422,210,c),
(441,172,l),
(450,150,o),
(465,111,o),
(472,85,c)
);
}
);
};
layerId = "4FA569E6-2225-4E7A-8719-2BB8460AE18A";
shapes = (
{
closed = 1;
nodes = (
(649,85,l),
(626,193,o),
(591,257,o),
(532,320,c),
(491,341,l),
(428,405,o),
(360,434,o),
(253,434,cs),
(110,434,o),
(23,365,o),
(23,242,cs),
(23,121,o),
(116,49,o),
(260,49,cs),
(374,49,o),
(462,95,o),
(526,181,c),
(551,203,l),
(599,266,o),
(623,337,o),
(623,432,cs),
(623,449,o),
(622,467,o),
(620,484,c),
(696,484,l),
(696,622,l),
(-7,622,l),
(-7,484,l),
(445,484,l),
(448,470,o),
(450,452,o),
(450,435,cs),
(450,407,o),
(447,369,o),
(439,339,c),
(413,278,l),
(386,227,o),
(342,188,o),
(277,188,cs),
(217,188,o),
(200,216,o),
(200,243,cs),
(200,280,o),
(233,296,o),
(277,296,cs),
(343,296,o),
(389,259,o),
(422,210,c),
(441,172,l),
(450,150,o),
(465,111,o),
(472,85,c)
);
}
);
width = 689;
}
);
},
{
glyphname = gaUIguru;
layers = (
{
background = {
shapes = (
{
closed = 1;
nodes = (
(457,30,o),
(528,81,o),
(528,217,cs),
(528,484,l),
(598,484,l),
(598,622,l),
(-7,622,l),
(-7,484,l),
(354,484,l),
(354,435,l),
(273,435,ls),
(172,435,o),
(113,420,o),
(72,386,cs),
(43,361,o),
(25,328,o),
(25,282,cs),
(25,137,o),
(163,30,o),
(323,30,cs)
);
},
{
closed = 1;
nodes = (
(260,169,o),
(203,223,o),
(203,263,cs),
(203,273,o),
(207,281,o),
(214,287,cs),
(224,294,o),
(236,297,o),
(266,297,cs),
(351,297,l),
(351,214,ls),
(351,194,o),
(348,183,o),
(340,176,cs),
(334,171,o),
(328,169,o),
(315,169,cs)
);
},
{
closed = 1;
nodes = (
(817,81,l),
(817,484,l),
(894,484,l),
(894,622,l),
(572,622,l),
(572,484,l),
(640,484,l),
(640,81,l)
);
}
);
};
layerId = "4FA569E6-2225-4E7A-8719-2BB8460AE18A";
shapes = (
{
closed = 1;
nodes = (
(457,30,o),
(528,81,o),
(528,217,cs),
(528,484,l),
(598,484,l),
(598,622,l),
(-7,622,l),
(-7,484,l),
(354,484,l),
(354,435,l),
(273,435,ls),
(172,435,o),
(113,420,o),
(72,386,cs),
(43,361,o),
(25,328,o),
(25,282,cs),
(25,137,o),
(163,30,o),
(323,30,cs)
);
},
{
closed = 1;
nodes = (
(260,169,o),
(203,223,o),
(203,263,cs),
(203,273,o),
(207,281,o),
(214,287,cs),
(224,294,o),
(236,297,o),
(266,297,cs),
(351,297,l),
(351,214,ls),
(351,194,o),
(348,183,o),
(340,176,cs),
(334,171,o),
(328,169,o),
(315,169,cs)
);
},
{
closed = 1;
nodes = (
(817,81,l),
(817,484,l),
(894,484,l),
(894,622,l),
(572,622,l),
(572,484,l),
(640,484,l),
(640,81,l)
);
}
);
width = 887;
}
);
},
{
glyphname = taUIguru;
layers = (
{
background = {
shapes = (
{
closed = 1;
nodes = (
(454,45,o),
(579,93,o),
(579,217,cs),
(579,279,o),
(546,322,o),
(486,358,c),
(535,386,o),
(555,422,o),
(555,483,cs),
(555,506,o),
(551,528,o),
(545,539,c),
(483,484,l),
(615,484,l),
(615,622,l),
(-7,622,l),
(-7,484,l),
(422,484,l),
(373,519,l),
(377,511,o),
(379,505,o),
(379,489,cs),
(379,451,o),
(357,430,o),
(329,420,c),
(287,434,o),
(238,440,o),
(200,440,cs),
(116,440,o),
(74,407,o),
(74,357,cs),
(74,306,o),
(111,270,o),
(214,270,cs),
(262,270,o),
(309,277,o),
(345,290,c),
(377,277,o),
(400,260,o),
(400,233,cs),
(400,194,o),
(360,177,o),
(276,177,cs),
(209,177,o),
(140,194,o),
(59,230,c),
(12,104,l),
(82,69,o),
(192,45,o),
(298,45,cs)
);
}
);
};
layerId = "4FA569E6-2225-4E7A-8719-2BB8460AE18A";
shapes = (
{
closed = 1;
nodes = (
(454,45,o),
(579,93,o),
(579,217,cs),
(579,279,o),
(546,322,o),
(486,358,c),
(535,386,o),
(555,422,o),
(555,483,cs),
(555,506,o),
(551,528,o),
(545,539,c),
(483,484,l),
(615,484,l),
(615,622,l),
(-7,622,l),
(-7,484,l),
(422,484,l),
(373,519,l),
(377,511,o),
(379,505,o),
(379,489,cs),
(379,451,o),
(357,430,o),
(329,420,c),
(287,434,o),
(238,440,o),
(200,440,cs),
(116,440,o),
(74,407,o),
(74,357,cs),
(74,306,o),
(111,270,o),
(214,270,cs),
(262,270,o),
(309,277,o),
(345,290,c),
(377,277,o),
(400,260,o),
(400,233,cs),
(400,194,o),
(360,177,o),
(276,177,cs),
(209,177,o),
(140,194,o),
(59,230,c),
(12,104,l),
(82,69,o),
(192,45,o),
(298,45,cs)
);
}
);
width = 608;
}
);
},
{
glyphname = baUIguru;
layers = (
{
background = {
shapes = (
{
closed = 1;
nodes = (
(86,140,o),
(188,84,o),
(311,84,cs),
(381,84,o),
(424,94,o),
(472,115,c),
(465,252,l),
(427,230,o),
(386,218,o),
(325,218,cs),
(259,218,o),
(220,244,o),
(199,288,c),
(198,234,l),
(240,277,o),
(272,291,o),
(342,291,cs),
(464,291,l),
(466,418,l),
(342,418,ls),
(282,418,o),
(260,424,o),
(243,439,cs),
(229,451,o),
(223,473,o),
(223,498,c),
(169,484,l),
(564,484,l),
(581,622,l),
(-7,622,l),
(-7,484,l),
(83,484,l),
(46,509,l),
(46,409,o),
(106,353,o),
(185,335,c),
(204,377,l),
(128,363,o),
(70,321,o),
(28,261,c)
);
},
{
closed = 1;
nodes = (
(620,80,l),
(620,484,l),
(697,484,l),
(697,622,l),
(352,622,l),
(352,484,l),
(443,484,l),
(443,80,l)
);
}
);
};
layerId = "4FA569E6-2225-4E7A-8719-2BB8460AE18A";
shapes = (
{
closed = 1;
nodes = (
(86,140,o),
(188,84,o),
(311,84,cs),
(381,84,o),
(424,94,o),
(472,115,c),
(465,252,l),
(427,230,o),
(386,218,o),
(325,218,cs),
(259,218,o),
(220,244,o),
(199,288,c),
(198,234,l),
(240,277,o),
(272,291,o),
(342,291,cs),
(464,291,l),
(466,418,l),
(342,418,ls),
(282,418,o),
(260,424,o),
(243,439,cs),
(229,451,o),
(223,473,o),
(223,498,c),
(169,484,l),
(564,484,l),
(581,622,l),
(-7,622,l),
(-7,484,l),
(83,484,l),
(46,509,l),
(46,409,o),
(106,353,o),
(185,335,c),
(204,377,l),
(128,363,o),
(70,321,o),
(28,261,c)
);
},
{
closed = 1;
nodes = (
(620,80,l),
(620,484,l),
(697,484,l),
(697,622,l),
(352,622,l),
(352,484,l),
(443,484,l),
(443,80,l)
);
}
);
width = 690;
}
);
},
{
glyphname = raUIguru;
layers = (
{
background = {
shapes = (
{
closed = 1;
nodes = (
(508,68,o),
(579,113,o),
(579,234,cs),
(579,484,l),
(656,484,l),
(656,622,l),
(-7,622,l),
(-7,484,l),
(405,484,l),
(405,437,l),
(258,437,ls),
(160,437,o),
(107,423,o),
(69,392,c),
(43,369,o),
(25,337,o),
(25,296,cs),
(25,164,o),
(179,68,o),
(353,68,cs)
);
},
{
closed = 1;
nodes = (
(283,196,o),
(203,232,o),
(203,280,cs),
(203,289,o),
(206,297,o),
(213,303,cs),
(221,310,o),
(232,313,o),
(254,313,cs),
(402,313,l),
(402,251,ls),
(402,224,o),
(399,213,o),
(391,206,cs),
(382,198,o),
(369,196,o),
(344,196,cs)
);
}
);
};
layerId = "4FA569E6-2225-4E7A-8719-2BB8460AE18A";
shapes = (
{
closed = 1;
nodes = (
(508,68,o),
(579,113,o),
(579,234,cs),
(579,484,l),
(656,484,l),
(656,622,l),
(-7,622,l),
(-7,484,l),
(405,484,l),
(405,437,l),
(258,437,ls),
(160,437,o),
(107,423,o),
(69,392,c),
(43,369,o),
(25,337,o),
(25,296,cs),
(25,164,o),
(179,68,o),
(353,68,cs)
);
},
{
closed = 1;
nodes = (
(283,196,o),
(203,232,o),
(203,280,cs),
(203,289,o),
(206,297,o),
(213,303,cs),
(221,310,o),
(232,313,o),
(254,313,cs),
(402,313,l),
(402,251,ls),
(402,224,o),
(399,213,o),
(391,206,cs),
(382,198,o),
(369,196,o),
(344,196,cs)
);
}
);
width = 649;
}
);
},
{
glyphname = laUIguru;
layers = (
{
background = {
shapes = (
{
closed = 1;
nodes = (
(524,286,o),
(618,403,o),
(640,484,c),
(759,484,l),
(759,622,l),
(-7,622,l),
(-7,484,l),
(109,484,l),
(137,397,o),
(232,291,o),
(376,253,c)
);
},
{
closed = 1;
nodes = (
(455,484,l),
(439,437,o),
(397,401,o),
(322,375,c),
(430,375,l),
(350,403,o),
(308,439,o),
(293,484,c)
);
},
{
closed = 1;
nodes = (
(25,151,o),
(100,77,o),
(277,77,cs),
(309,77,l),
(318,205,l),
(282,205,ls),
(228,205,o),
(202,212,o),
(202,246,cs),
(202,277,o),
(244,302,o),
(322,322,c),
(211,425,l),
(78,380,o),
(25,321,o),
(25,240,cs)
);
},
{
closed = 1;
nodes = (
(727,321,o),
(672,380,o),
(541,425,c),
(430,322,l),
(508,302,o),
(550,277,o),
(550,246,cs),
(550,213,o),
(519,205,o),
(469,205,cs),
(434,205,l),
(443,77,l),
(475,77,ls),
(652,77,o),
(727,151,o),
(727,240,cs)
);
}
);
};
layerId = "4FA569E6-2225-4E7A-8719-2BB8460AE18A";
shapes = (
{
closed = 1;
nodes = (
(524,286,o),
(618,403,o),
(640,484,c),
(759,484,l),
(759,622,l),
(-7,622,l),
(-7,484,l),
(109,484,l),
(137,397,o),
(232,291,o),
(376,253,c)
);
},
{
closed = 1;
nodes = (
(455,484,l),
(439,437,o),
(397,401,o),
(322,375,c),
(430,375,l),
(350,403,o),
(308,439,o),
(293,484,c)
);
},
{
closed = 1;
nodes = (
(25,151,o),
(100,77,o),
(277,77,cs),
(309,77,l),
(318,205,l),
(282,205,ls),
(228,205,o),
(202,212,o),
(202,246,cs),
(202,277,o),
(244,302,o),
(322,322,c),
(211,425,l),
(78,380,o),
(25,321,o),
(25,240,cs)
);
},
{
closed = 1;
nodes = (
(727,321,o),
(672,380,o),
(541,425,c),
(430,322,l),
(508,302,o),
(550,277,o),
(550,246,cs),
(550,213,o),
(519,205,o),
(469,205,cs),
(434,205,l),
(443,77,l),
(475,77,ls),
(652,77,o),
(727,151,o),
(727,240,cs)
);
}
);
width = 752;
}
);
},
{
glyphname = sanuktaUIguru;
layers = (
{
background = {
shapes = (
{
closed = 1;
nodes = (
(618,80,l),
(618,484,l),
(695,484,l),
(695,622,l),
(-7,622,l),
(-7,484,l),
(131,484,l),
(33,523,l),
(62,493,o),
(87,398,o),
(97,328,c),
(49,278,o),
(32,238,o),
(32,198,cs),
(32,148,o),
(60,105,o),
(130,105,cs),
(207,105,o),
(254,154,o),
(263,240,c),
(441,240,l),
(441,80,l)
);
},
{
closed = 1;
nodes = (
(265,375,l),
(260,425,o),
(247,472,o),
(226,516,c),
(156,484,l),
(441,484,l),
(441,375,l)
);
},
{
closed = 1;
nodes = (
(389,69,o),
(416,98,o),
(416,141,cs),
(416,184,o),
(389,213,o),
(339,213,cs),
(289,213,o),
(261,184,o),
(261,141,cs),
(261,98,o),
(289,69,o),
(339,69,cs)
);
}
);
};
layerId = "4FA569E6-2225-4E7A-8719-2BB8460AE18A";
shapes = (
{
closed = 1;
nodes = (
(618,80,l),
(618,484,l),
(695,484,l),
(695,622,l),
(-7,622,l),
(-7,484,l),
(131,484,l),
(33,523,l),
(62,493,o),
(87,398,o),
(97,328,c),
(49,278,o),
(32,238,o),
(32,198,cs),
(32,148,o),
(60,105,o),
(130,105,cs),
(207,105,o),
(254,154,o),
(263,240,c),
(441,240,l),
(441,80,l)
);
},
{
closed = 1;
nodes = (
(265,375,l),
(260,425,o),
(247,472,o),
(226,516,c),
(156,484,l),
(441,484,l),
(441,375,l)
);
},
{
closed = 1;
nodes = (
(389,69,o),
(416,98,o),
(416,141,cs),
(416,184,o),
(389,213,o),
(339,213,cs),
(289,213,o),
(261,184,o),
(261,141,cs),
(261,98,o),
(289,69,o),
(339,69,cs)
);
}
);
width = 701;
}
);
},
{
glyphname = umatralow1guru;
layers = (
{
background = {
shapes = (
{
closed = 1;
nodes = (
(-197,-271,o),
(-128,-245,o),
(-76,-218,c),
(-121,-99,l),
(-169,-124,o),
(-227,-141,o),
(-307,-141,cs),
(-387,-141,o),
(-445,-124,o),
(-492,-99,c),
(-537,-218,l),
(-485,-245,o),
(-413,-271,o),
(-307,-271,cs)
);
}
);
};
layerId = "4FA569E6-2225-4E7A-8719-2BB8460AE18A";
shapes = (
{
closed = 1;
nodes = (
(-197,-271,o),
(-128,-245,o),
(-76,-218,c),
(-121,-99,l),
(-169,-124,o),
(-227,-141,o),
(-307,-141,cs),
(-387,-141,o),
(-445,-124,o),
(-492,-99,c),
(-537,-218,l),
(-485,-245,o),
(-413,-271,o),
(-307,-271,cs)
);
}
);
width = 0;
}
);
},
{
glyphname = exclam.guru;
layers = (
{
background = {
shapes = (
{
closed = 1;
nodes = (
(308,252,l),
(333,714,l),
(122,714,l),
(147,252,l)
);
},
{
closed = 1;
nodes = (
(124,15,o),
(171,-12,o),
(227,-12,cs),
(282,-12,o),
(328,15,o),
(328,81,cs),
(328,150,o),
(282,175,o),
(227,175,cs),
(171,175,o),
(124,150,o),
(124,81,cs)
);
}
);
};
layerId = "4FA569E6-2225-4E7A-8719-2BB8460AE18A";
shapes = (
{
closed = 1;
nodes = (
(308,252,l),
(333,714,l),
(122,714,l),
(147,252,l)
);
},
{
closed = 1;
nodes = (
(124,15,o),
(171,-12,o),
(227,-12,cs),
(282,-12,o),
(328,15,o),
(328,81,cs),
(328,150,o),
(282,175,o),
(227,175,cs),
(171,175,o),
(124,150,o),
(124,81,cs)
);
}
);
width = 429;
}
);
unicode = 33;
},
{
glyphname = quotedbl.guru;
layers = (
{
background = {
shapes = (
{
closed = 1;
nodes = (
(242,471,l),
(262,729,l),
(88,729,l),
(108,471,l)
);
},
{
closed = 1;
nodes = (
(474,471,l),
(494,729,l),
(320,729,l),
(340,471,l)
);
}
);
};
layerId = "4FA569E6-2225-4E7A-8719-2BB8460AE18A";
shapes = (
{
closed = 1;
nodes = (
(242,471,l),
(262,729,l),
(88,729,l),
(108,471,l)
);
},
{
closed = 1;
nodes = (
(474,471,l),
(494,729,l),
(320,729,l),
(340,471,l)
);
}
);
width = 582;
}
);
unicode = 34;
},
{
glyphname = numbersign.guru;
layers = (
{
background = {
shapes = (
{
closed = 1;
nodes = (
(112,0,l),
(246,0,l),
(274,153,l),
(341,153,l),
(313,0,l),
(447,0,l),
(475,153,l),
(600,153,l),
(600,272,l),
(497,272,l),
(514,366,l),
(632,366,l),
(632,485,l),
(536,485,l),
(563,632,l),
(429,632,l),
(402,485,l),
(335,485,l),
(362,632,l),
(228,632,l),
(201,485,l),
(76,485,l),
(76,366,l),
(179,366,l),
(162,272,l),
(44,272,l),
(44,153,l),
(140,153,l)
);
},
{
closed = 1;
nodes = (
(292,269,l),
(311,369,l),
(383,369,l),
(364,269,l)
);
}
);
};
layerId = "4FA569E6-2225-4E7A-8719-2BB8460AE18A";
shapes = (
{
closed = 1;
nodes = (
(112,0,l),
(246,0,l),
(274,153,l),
(341,153,l),
(313,0,l),
(447,0,l),
(475,153,l),
(600,153,l),
(600,272,l),
(497,272,l),
(514,366,l),
(632,366,l),
(632,485,l),
(536,485,l),
(563,632,l),
(429,632,l),
(402,485,l),
(335,485,l),
(362,632,l),
(228,632,l),
(201,485,l),
(76,485,l),
(76,366,l),
(179,366,l),
(162,272,l),
(44,272,l),
(44,153,l),
(140,153,l)
);
},
{
closed = 1;
nodes = (
(292,269,l),
(311,369,l),
(383,369,l),
(364,269,l)
);
}
);
width = 676;
}
);
unicode = 35;
},
{
glyphname = percent.guru;
layers = (
{
background = {
shapes = (
{
closed = 1;
nodes = (
(211,0,l),
(351,0,l),
(747,622,l),
(607,622,l)
);
},
{
closed = 1;
nodes = (
(341,258,o),
(406,328,o),
(406,446,cs),
(406,564,o),
(338,632,o),
(220,632,cs),
(106,632,o),
(38,564,o),
(38,446,cs),
(38,328,o),
(105,258,o),
(220,258,cs)
);
},
{
closed = 1;
nodes = (
(194,376,o),
(185,403,o),
(185,445,cs),
(185,487,o),
(194,514,o),
(222,514,cs),
(250,514,o),
(259,487,o),
(259,445,cs),
(259,403,o),
(250,376,o),
(222,376,cs)
);
},
{
closed = 1;
nodes = (
(857,-8,o),
(922,60,o),
(922,178,cs),
(922,296,o),
(855,366,o),
(740,366,cs),
(622,366,o),
(554,298,o),
(554,180,cs),
(554,62,o),
(621,-8,o),
(740,-8,cs)
);
},
{
closed = 1;
nodes = (
(710,110,o),
(701,137,o),
(701,179,cs),
(701,221,o),
(710,248,o),
(738,248,cs),
(766,248,o),
(775,223,o),
(775,179,cs),
(775,137,o),
(766,110,o),
(738,110,cs)
);
}
);
};
layerId = "4FA569E6-2225-4E7A-8719-2BB8460AE18A";
shapes = (
{
closed = 1;
nodes = (
(211,0,l),
(351,0,l),
(747,622,l),
(607,622,l)
);
},
{
closed = 1;
nodes = (
(341,258,o),
(406,328,o),
(406,446,cs),
(406,564,o),
(338,632,o),
(220,632,cs),
(106,632,o),
(38,564,o),
(38,446,cs),
(38,328,o),
(105,258,o),
(220,258,cs)
);
},
{
closed = 1;
nodes = (
(194,376,o),
(185,403,o),
(185,445,cs),
(185,487,o),
(194,514,o),
(222,514,cs),
(250,514,o),
(259,487,o),
(259,445,cs),
(259,403,o),
(250,376,o),
(222,376,cs)
);
},
{
closed = 1;
nodes = (
(857,-8,o),
(922,60,o),
(922,178,cs),
(922,296,o),
(855,366,o),
(740,366,cs),
(622,366,o),
(554,298,o),
(554,180,cs),
(554,62,o),
(621,-8,o),
(740,-8,cs)
);
},
{
closed = 1;
nodes = (
(710,110,o),
(701,137,o),
(701,179,cs),
(701,221,o),
(710,248,o),
(738,248,cs),
(766,248,o),
(775,223,o),
(775,179,cs),
(775,137,o),
(766,110,o),
(738,110,cs)
);
}
);
width = 960;
}
);
unicode = 37;
},
{
glyphname = quotesingle.guru;
layers = (
{
background = {
shapes = (
{
closed = 1;
nodes = (
(241,471,l),
(261,729,l),
(87,729,l),
(107,471,l)
);
}
);
};
layerId = "4FA569E6-2225-4E7A-8719-2BB8460AE18A";
shapes = (
{
closed = 1;
nodes = (
(241,471,l),
(261,729,l),
(87,729,l),
(107,471,l)
);
}
);
width = 348;
}
);
unicode = 39;
},
{
glyphname = parenleft.guru;
layers = (
{
background = {
shapes = (
{
closed = 1;
nodes = (
(361,-165,l),
(275,-27,o),
(234,157,o),
(234,331,cs),
(234,507,o),
(274,692,o),
(362,832,c),
(203,832,l),
(109,695,o),
(66,511,o),
(66,333,cs),
(66,149,o),
(110,-32,o),
(203,-165,c)
);
}
);
};
layerId = "4FA569E6-2225-4E7A-8719-2BB8460AE18A";
shapes = (
{
closed = 1;
nodes = (
(361,-165,l),
(275,-27,o),
(234,157,o),
(234,331,cs),
(234,507,o),
(274,692,o),
(362,832,c),
(203,832,l),
(109,695,o),
(66,511,o),
(66,333,cs),
(66,149,o),
(110,-32,o),
(203,-165,c)
);
}
);
width = 412;
}
);
unicode = 40;
},
{
glyphname = parenright.guru;
layers = (
{
background = {
shapes = (
{
closed = 1;
nodes = (
(209,-165,l),
(303,-28,o),
(346,156,o),
(346,334,cs),
(346,518,o),
(302,699,o),
(209,832,c),
(51,832,l),
(137,694,o),
(178,510,o),
(178,336,cs),
(178,160,o),
(138,-25,o),
(50,-165,c)
);
}
);
};
layerId = "4FA569E6-2225-4E7A-8719-2BB8460AE18A";
shapes = (
{
closed = 1;
nodes = (
(209,-165,l),
(303,-28,o),
(346,156,o),
(346,334,cs),
(346,518,o),
(302,699,o),
(209,832,c),
(51,832,l),
(137,694,o),
(178,510,o),
(178,336,cs),
(178,160,o),
(138,-25,o),
(50,-165,c)
);
}
);
width = 412;
}
);
unicode = 41;
},
{
glyphname = asterisk.guru;
layers = (
{
background = {
shapes = (
{
closed = 1;
nodes = (
(249,266,l),
(309,403,l),
(379,265,l),
(506,332,l),
(405,468,l),
(558,478,l),
(540,622,l),
(366,573,l),
(385,745,l),
(237,745,l),
(256,573,l),
(86,622,l),
(64,480,l),
(217,468,l),
(116,332,l)
);
}
);
};
layerId = "4FA569E6-2225-4E7A-8719-2BB8460AE18A";
shapes = (
{
closed = 1;
nodes = (
(249,266,l),
(309,403,l),
(379,265,l),
(506,332,l),
(405,468,l),
(558,478,l),
(540,622,l),
(366,573,l),
(385,745,l),
(237,745,l),
(256,573,l),
(86,622,l),
(64,480,l),
(217,468,l),
(116,332,l)
);
}
);
width = 612;
}
);
unicode = 42;
},
{
glyphname = plus.guru;
layers = (
{
background = {
shapes = (
{
closed = 1;
nodes = (
(232,88,l),
(366,88,l),
(366,259,l),
(537,259,l),
(537,388,l),
(366,388,l),
(366,563,l),
(232,563,l),
(232,388,l),
(61,388,l),
(61,259,l),
(232,259,l)
);
}
);
};
layerId = "4FA569E6-2225-4E7A-8719-2BB8460AE18A";
shapes = (
{
closed = 1;
nodes = (
(232,88,l),
(366,88,l),
(366,259,l),
(537,259,l),
(537,388,l),
(366,388,l),
(366,563,l),
(232,563,l),
(232,388,l),
(61,388,l),
(61,259,l),
(232,259,l)
);
}
);
width = 598;
}
);
unicode = 43;
},
{
glyphname = comma.guru;
layers = (
{
background = {
shapes = (
{
closed = 1;
nodes = (
(167,-139,l),
(200,-65,o),
(235,63,o),
(253,135,c),
(246,146,l),
(79,146,l),
(70,66,o),
(50,-48,o),
(31,-139,c)
);
}
);
};
layerId = "4FA569E6-2225-4E7A-8719-2BB8460AE18A";
shapes = (
{
closed = 1;
nodes = (
(167,-139,l),
(200,-65,o),
(235,63,o),
(253,135,c),
(246,146,l),
(79,146,l),
(70,66,o),
(50,-48,o),
(31,-139,c)
);
}
);
width = 309;
}
);
unicode = 44;
},
{
glyphname = hyphen.guru;
layers = (
{
background = {
shapes = (
{
closed = 1;
nodes = (
(55,221,l),
(331,221,l),
(331,373,l),
(55,373,l)
);
}
);
};
layerId = "4FA569E6-2225-4E7A-8719-2BB8460AE18A";
shapes = (
{
closed = 1;
nodes = (
(55,221,l),
(331,221,l),
(331,373,l),
(55,373,l)
);
}
);
width = 387;
}
);
unicode = 45;
},
